<svg width="410" height="341" viewBox="0 0 410 341" fill="none" xmlns="http://www.w3.org/2000/svg">
<g clip-path="url(#clip0_42_486)">
<path d="M146.077 122.537C148.92 118.102 159.655 105.588 156.058 105.513C132.284 96.5022 106.453 86.6247 81.6119 83.1523C29.6071 177.119 41.4461 158.064 46.6188 166.448C103.213 218.296 189.31 265.27 224.922 283.659C264.322 301.955 253.575 300.599 262.737 284.695C279.519 250.103 295.948 216.057 312.821 181.587C316.151 175.835 314.618 177.365 308.643 174.517C268.427 158.151 230.57 139.113 191.328 120.794C188.159 119.988 184.83 115.977 182.534 118.22C173.812 129.338 163.824 140.825 155.229 152.353C152.446 179.051 130.267 192.64 106.997 190.58C101.518 190.166 96.5178 188.335 90.8936 186.416C87.9735 188.62 82.9272 192.437 79.5786 187.578C76.7951 184.124 81.3882 179.389 76.755 176.71C28.395 123.687 106.138 71.4943 146.077 122.537Z" fill="white"/>
<path d="M356.057 241.567C379.823 238.389 354.487 222.22 345.92 216.662C345.4 210.945 362.01 221.383 365.052 220.383C382.157 219.514 391.962 213.653 377.166 201.262C353.701 183.036 337.644 184.792 318.721 180.249C315.227 178.522 315.241 182.383 313.57 185.191C309.956 192.87 306.771 199.455 302.923 207.307C250.223 319.548 252.34 294.665 274.574 311.979C320.032 341.202 318.372 316.355 296.087 300.545C294.08 299.572 294.816 296.985 297.548 298C315.899 310.923 335.448 324.599 356.816 331.708C401.95 340.704 313.247 283.043 308.528 280.016C306.417 279.341 305.9 276.554 309.044 276.985C312.106 278.589 316.21 280.733 319.788 282.544C342.708 292.971 366.896 303.943 388.649 303.777C401.43 302.917 406.986 296.724 404.203 285.247C396.523 272.165 382.103 264.146 369.68 255.848C354.169 245.059 328.906 237.123 333.004 234.519C340.452 234.186 347.741 242.207 356.057 241.567Z" fill="#FFC300"/>
<path d="M78.9512 82.285C60.1256 78.5686 36.6191 73.7681 22.8484 77.3479C-18.817 93.9602 19.4358 141.794 39.3676 158.565C51.7709 132.466 64.7144 107.325 78.9512 82.285Z" fill="#FF4B17"/>
<path d="M153.413 246.775C159.085 281.344 181.787 326.553 210.703 335.964C217.538 338.785 231.253 336.325 229.999 329.637C220.462 322.949 213.678 315.237 207.389 305.349C181.454 253.272 228.033 293.575 153.413 246.775H153.413Z" fill="#008900"/>
<path d="M110.981 181.392C134.533 182.406 139.662 167.393 150.288 153.545C170.152 128.775 189.549 104.735 209.703 80.1337C205.101 77.4415 199.415 75.0353 194.558 71.8549C192.074 70.9902 190.009 67.0902 187.814 71.4332C159.69 107.255 137.268 144.697 110.981 181.392Z" fill="#FFC300"/>
<path d="M225.242 134.154C237.029 138.93 259.104 151.837 261.049 149.426C276.167 136.681 297.225 138.227 316.034 138.24C341.299 135.562 304.528 115.876 295.819 116.127C270.869 111.252 243.844 117.024 225.242 134.154Z" fill="#008900"/>
<path d="M138.265 135.098C123.76 133.711 132.996 131.579 130.935 121.708C126.255 114.077 112.968 110.344 105.769 117.776C101.553 115.651 97.4797 112.024 91.689 113.992C87.848 115.118 90.6357 120.586 93.5618 122.376C94.977 123.31 99.0101 124.05 96.1438 125.951C92.5179 127.835 86.8117 129.606 85.3009 134.395C86.1502 140.56 112.021 126.352 103.119 135.626C99.2782 138.543 103.357 143.568 107.776 142.598C110.18 141.545 113.097 136.557 114.6 141.743C121.352 155.763 117.769 141.667 123.737 144.287C128.677 157.394 134.174 139.656 138.265 135.098Z" fill="#783A1B"/>
<path d="M296.587 31.7124C260.11 22.5203 264.4 4.97684 239.652 2.51172C234.615 6.97505 231.601 15.0618 227.45 21.0257C259.187 27.1441 267.732 46.4383 296.587 31.7124Z" fill="#008900"/>
<path d="M84.6547 167.286C86.8962 164.659 89.0173 155.557 92.3129 156.156C91.8862 165.694 78.6566 176.741 82.2886 185.59C91.2178 193.598 99.7057 153.42 102.708 161.352C102.721 165.84 92.4487 181.31 100.4 173.439C101.847 172.412 104.01 166.899 104.767 170.929C103.095 177.948 92.1892 178.297 104.236 180.791C110.193 183.243 110.945 174.729 114.101 170.993C110.457 171.559 106.264 171.349 104.719 166.525C100.315 154 117.666 147.297 120.984 160.904C123.659 156.158 130.662 151.683 121.784 150.14C120.11 151.625 118.329 151.882 116.067 150.243C114.211 148.985 112.861 147.315 111.737 145.019C110.182 143.702 105.688 147.066 103.092 145.146C97.297 142.979 98.7728 140.826 97.4992 136.823C93.5378 137.862 89.1411 138.891 84.5506 138.356C81.5323 141.796 79.3634 147.046 76.5961 151.397C71.2707 156.287 77.4326 162.949 81.3599 166.867C80.7923 165.754 84.1477 153.801 85.679 159.043C84.647 161.221 83.5852 164.243 84.6547 167.286V167.286Z" fill="#F99278"/>
<path d="M80.3518 175.898C81.324 174.488 82.187 173.497 79.9694 171.725C52.8932 143.673 74.8531 102.642 110.966 107.69C139.981 112.29 140.934 133.669 144.146 125.776C137.244 112.383 119.141 104.196 103.969 104.243C62.5633 104.974 51.2048 152.438 80.3518 175.899V175.898Z" fill="#008900"/>
<path d="M92.3983 183.664C116.192 195.907 149.277 182.852 151.617 156.633C147.082 161.036 144.103 167.789 139.819 172.958C128.806 185.256 110.763 188.021 94.9275 181.85C93.7453 181.521 93.5532 181.922 92.3983 183.664Z" fill="#008900"/>
<path d="M211.983 73.7047C209.397 73.3274 208.657 71.9976 207.5 69.8764C204.354 67.7775 204.213 64.038 201.523 60.593C203.27 54.2467 209.754 47.8218 211.044 40.2216C210.949 30.2903 192.236 69.0237 195.862 68.2376C200.198 69.9592 210.755 78.5487 211.983 73.7038V73.7047Z" fill="#F99278"/>
<path d="M71.5413 137.084C74.3615 134.353 77.658 131.985 81.9933 133.215C84.6539 129.432 88.0298 127.419 92.0117 124.86C88.2235 122.805 86.3132 119.689 86.4703 115.098C78.1736 120.418 73.3466 127.572 71.5413 137.084Z" fill="#958F8C"/>
<path d="M72.7372 152.3C76.0601 148.338 79.2653 142.475 81.8874 137.559C74.3376 130.135 69.176 146.443 72.7372 152.3Z" fill="#F99278"/>
<path d="M111.361 168.269C114.523 168.103 117.911 165.779 118.518 161.59C117.686 155.467 114.951 157.643 111.254 160.548C104.995 162.584 105.035 167.336 111.361 168.269Z" fill="white"/>
<path d="M204.15 59.5748C207.476 61.5969 223.727 61.9785 223.365 58.4985C218.742 56.624 209.033 57.6526 204.15 59.5748Z" fill="#F99278"/>
<path d="M205.541 55.4901C208.102 55.2041 207.913 58.2795 209.771 55.9698C213.495 48.769 225.151 30.7168 229.098 23.5887C230.303 21.412 223.802 23.8294 225.065 21.9165C218.151 32.3915 211.753 44.2656 205.541 55.4901Z" fill="#958F8C"/>
<path d="M206.062 63.1362C212.278 75.1673 227.013 63.5809 222.6 62.4004C217.339 63.9155 211.836 63.4921 206.062 63.1362Z" fill="#F99278"/>
<path d="M134.784 124.533C135.384 126.604 132.319 131.139 135.64 131.463C144.271 134.475 137.339 127.855 134.784 124.533Z" fill="#958F8C"/>
<path d="M99.3507 110.809C105.881 112.674 103.491 115.387 110.137 111.713C112.729 109.964 101.085 110.371 99.3507 110.809Z" fill="#958F8C"/>
<path d="M219.331 55.4896C215.894 53.0014 212.181 49.8201 210.799 55.4896H219.331Z" fill="#F99278"/>
<path d="M221.907 66.1021C217.772 67.2194 213.958 68.0516 209.675 68.1703C217.836 72.5218 219.009 68.7293 221.907 66.1021Z" fill="#F99278"/>
<path d="M221.127 69.436C218.772 70.3955 216.318 70.8487 213.858 71.2849C216.535 71.6314 219.052 71.3395 221.127 69.436Z" fill="#F99278"/>
<path d="M88.8005 139.287C79.3003 139.145 76.918 156.961 88.7083 155.599C99.2252 154.931 99.6819 139.417 88.8005 139.287Z" fill="white"/>
<path d="M88.8005 139.287C99.6819 139.417 99.2252 154.931 88.7083 155.599C76.918 156.961 79.3003 139.145 88.8005 139.287ZM92.5981 143.213C90.3822 145.836 87.5347 146.389 83.7551 148.202C81.173 154.786 99.7775 154.466 92.5981 143.213Z" fill="black"/>
<path d="M358.017 245.243C366.598 244.01 369.301 240.69 370.038 238.063C371.185 233.974 368.277 228.755 362.039 223.642C377.88 224.114 387.399 220.834 388.834 214.345C390.772 205.576 376.986 193.408 354.506 184.057C347.11 181.528 340.161 180.435 332.805 179.278C329.26 178.721 325.594 178.144 321.909 177.41C302.362 169.627 283.887 161.114 264.328 152.102L264.042 151.969C263.954 151.571 264.084 151.145 264.439 150.675C267.825 146.171 288.537 141.022 297.682 141.626C300.376 141.557 303.04 141.702 305.617 141.845C311.392 142.16 316.846 142.46 322.409 140.486C325.93 138.836 327.853 136.473 327.971 133.652C328.17 128.883 323.396 123.953 318.584 121.188C305.741 113.377 288.323 109.924 270.798 111.713C252.636 113.568 236.064 120.676 224.135 131.728L224.057 131.828C223.099 133.628 213.439 128.582 204.923 124.133C198.695 120.881 191.66 117.208 185.836 114.89C195.094 102.902 204.748 90.9644 212.992 80.8427C214.44 79.7954 213.968 78.6345 213.624 77.7843C213.339 77.0844 213.183 76.6337 213.52 76.1916L213.582 76.0764C214.19 74.1942 215.983 73.8886 217.88 73.5668C219.133 73.3535 220.319 73.1512 221.127 72.4956C225.248 69.7249 225.728 64.5907 226.152 60.0599L226.237 59.1364C226.163 54.481 220.528 51.9194 216.414 50.0492C216.021 49.8717 215.647 49.7001 215.292 49.5354C215.2 47.4441 217.012 44.8578 218.768 42.3543C219.999 40.5976 221.162 38.9383 221.764 37.3754C222.953 35.7647 223.969 33.7784 224.951 31.857C226.39 29.0437 227.876 26.1364 229.884 24.4839C238.671 25.9179 245.243 29.3347 251.602 32.6398C263.506 38.8265 274.745 44.67 297.691 34.8608C304.503 32.8796 305.687 32.1268 305.658 31.2783C305.625 30.3317 304.064 29.9467 299.56 28.972C293.13 27.5815 282.371 25.2538 273.684 19.0517C272.856 18.3185 272.028 17.5793 271.2 16.8376C261.948 8.55792 252.384 0 238.766 0C238.667 0 238.567 0.000853572 238.468 0.00170714L238.296 0.00256073L238.182 0.13145C232.397 6.69201 227.602 15.0314 222.964 23.096C220.118 28.0484 217.177 33.1613 214.038 37.8056C213.326 35.9072 212.333 34.9239 211.08 34.8795C211.052 34.8787 211.024 34.8787 210.996 34.8787C204.328 34.8787 193.394 62.5532 192.615 64.5514C191.008 65.6611 190.673 65.2855 190.317 64.8903C190.095 64.6436 189.782 64.3013 189.273 64.3355C187.715 64.4259 184.653 67.2555 159.372 102.928C154.432 101.281 149.437 99.5624 144.603 97.8996C117.427 88.5479 89.3255 78.8786 50.237 74.3206C31.6522 70.3403 14.7882 74.0867 6.22854 84.0991C-0.971342 92.5179 -1.82065 104.659 3.78989 119.249C29.1265 168.27 91.8709 209.543 148.735 244.403C150.52 245.219 150.603 246.151 150.728 247.562C150.782 248.163 150.842 248.843 151.047 249.538C152.041 255.076 153.189 259.931 154.771 265.286C159.091 279.362 175.778 326.279 209.118 338.995C211.404 340.034 214.965 340.664 218.686 340.664C223.517 340.663 228.617 339.601 231.535 337C233.847 334.938 234.505 332.096 233.434 328.782L233.4 328.674L233.312 328.602C219.426 317.177 201.201 299.371 202.634 276.359C208.739 279.182 214.79 282.21 220.645 285.141C231.845 290.746 243.424 296.541 255.535 300.947C262.67 307.613 270.016 312.94 278.653 317.711C280.359 318.619 282.066 319.591 283.716 320.531C291.105 324.739 298.079 328.693 306.733 328.46C310.607 328.044 313.061 326.816 314.232 324.704C315.596 322.247 315.111 318.684 312.752 313.81L312.702 313.732C311.755 312.586 311.496 312.073 311.425 311.869C312.696 311.941 318.745 315.744 324.106 319.117C331.169 323.559 339.171 328.593 342.959 329.662C352.72 334.812 369.504 338.558 372.753 333.192C376.398 327.167 362.208 312.814 331.68 291.629C335.813 293.106 339.996 294.771 344.064 296.39C361.091 303.168 378.698 310.175 397.24 305.699C405.169 302.251 409.32 297.735 409.576 292.277C409.962 284.075 401.293 269.274 358.016 245.243H358.017ZM207.065 305.557C213.756 316.077 220.724 323.579 229.647 329.861C229.876 331.369 229.282 332.71 227.88 333.849C224.261 336.791 215.827 337.661 210.821 335.598C194.09 330.152 181.383 313.564 173.672 300.608C164.141 284.593 156.97 265.307 153.935 247.557C174.309 260.316 185.53 266.503 191.593 269.845C196.267 272.422 198.493 274.412 198.27 275.815C197.798 278.789 196.815 284.979 207.065 305.557ZM306.467 277.754C306.236 278.773 307.083 279.936 308.362 280.366C326.305 291.881 372.065 323.29 369.069 330.717C368.55 332.001 366.018 333.149 356.939 331.342C335.383 324.171 315.399 310.099 297.77 297.684L297.682 297.638C297.207 297.462 296.781 297.385 296.407 297.385C295.52 297.385 294.925 297.817 294.687 298.376C294.358 299.146 294.678 300.289 295.865 300.859C307.611 309.191 312.861 319.345 310.227 323.244C307.68 327.021 297.025 325.955 274.812 311.674C271.338 308.969 268.375 307.301 265.995 305.96C260.206 302.699 262.684 290.33 273.429 268.851C280.449 254.82 290.063 235.603 303.27 207.475C307.522 198.802 310.607 192.394 313.902 185.388C314.367 184.606 314.695 183.773 315.012 182.968C315.515 181.691 315.95 180.587 316.723 180.289C317.181 180.112 317.778 180.212 318.551 180.594L318.631 180.624C323.128 181.703 327.517 182.437 331.761 183.146C345.822 185.497 359.101 187.717 376.919 201.556C382.498 206.227 384.81 210.138 383.792 213.179C382.503 217.027 375.841 219.448 365.034 219.998L364.933 220.017C363.883 220.359 360.51 218.96 357.249 217.604C352.428 215.598 347.876 213.705 346.177 214.953C345.681 215.318 345.466 215.904 345.538 216.695L345.555 216.882L346.08 217.222C352.284 221.245 366.809 230.666 365.503 236.473C364.974 238.825 361.782 240.41 356.017 241.183C351.809 241.498 347.782 239.506 343.901 237.575C340.175 235.72 336.655 233.983 332.988 234.132L332.886 234.137L332.799 234.193C332.254 234.539 332.16 234.954 332.179 235.241C332.286 236.945 336.784 239.143 345.396 243.202C352.903 246.74 362.245 251.144 369.466 256.167C371.244 257.355 373.063 258.537 374.898 259.728C385.912 266.886 397.301 274.286 403.842 285.392C405.086 290.562 404.61 294.689 402.431 297.659C399.973 301.011 395.326 302.94 388.646 303.39C366.902 303.576 343.034 292.696 319.962 282.199C316.594 280.493 312.81 278.522 309.222 276.644L309.097 276.604C306.957 276.309 306.544 277.41 306.467 277.754ZM106.981 164.956C106.85 163.411 108.574 161.825 111.373 160.915L111.537 160.816C113.406 159.347 115.051 158.055 116.178 158.055C116.34 158.055 116.491 158.082 116.63 158.139C117.347 158.429 117.851 159.59 118.13 161.589C117.51 165.685 114.21 167.718 111.379 167.882C108.784 167.491 107.099 166.372 106.981 164.956ZM106.114 156.042C103.592 158.792 102.951 162.659 104.352 166.643C106.015 171.84 110.753 171.801 113.235 171.505C112.492 172.597 111.88 173.923 111.284 175.213C109.604 178.847 108.15 181.984 104.314 180.414C100.921 179.711 99.1442 179.113 99.0307 178.636C98.9598 178.336 99.798 177.673 100.537 177.088C102.087 175.862 104.429 174.01 105.141 171.018L105.16 170.939L105.145 170.859C105.017 170.174 104.768 169.249 104.094 169.106C103.257 168.931 102.488 170.053 101.596 171.356C101.095 172.086 100.576 172.842 100.128 173.166C98.685 174.595 98.0439 175.049 97.7682 175.191C97.8664 174.432 98.9342 172.16 99.8083 170.3C101.35 167.017 103.099 163.296 103.093 161.352L103.068 161.217C102.949 160.903 102.587 159.945 101.783 159.925C100.285 159.887 98.7985 163.175 96.0653 169.477C92.9967 176.551 89.1779 185.356 85.3027 186.203C84.3757 186.405 83.4956 186.131 82.6122 185.362C80.6968 180.545 83.8994 175.084 87.2889 169.304C89.8548 164.928 92.5085 160.404 92.6971 156.174L92.7125 155.838L92.3813 155.778C89.9529 155.341 88.2961 159.044 86.6931 162.629C86.041 164.087 85.417 165.482 84.8033 166.432C84.1461 163.686 85.1652 161.026 86.0273 159.207L86.0896 159.075L86.0478 158.934C85.7636 157.958 85.3778 157.44 84.8707 157.348C84.4312 157.272 83.983 157.531 83.5443 158.122C82.3612 159.719 81.144 163.812 80.9477 165.906C77.8168 162.708 74.8396 159.067 74.9095 155.675C74.9411 154.162 75.5779 152.856 76.8565 151.682L76.9214 151.605C77.9585 149.974 78.9196 148.204 79.8492 146.491C81.418 143.602 82.9024 140.87 84.7094 138.763C89.1036 139.231 93.3006 138.314 97.2382 137.291C97.4789 138.134 97.6052 138.902 97.7179 139.589C98.119 142.029 98.4093 143.796 102.908 145.49C104.483 146.615 106.567 146.048 108.405 145.546C109.667 145.201 110.861 144.876 111.431 145.27C112.599 147.629 114.005 149.312 115.842 150.556C118.059 152.162 119.99 152.163 121.897 150.552C124.095 150.954 125.365 151.572 125.674 152.391C126.114 153.557 124.7 155.314 123.203 157.174C122.48 158.072 121.737 158.995 121.119 159.943C120.026 156.38 117.825 154.022 114.855 153.259C111.81 152.477 108.382 153.57 106.114 156.042ZM133.428 182.488C120.9 189.384 105.436 189.767 92.9583 183.516C93.9348 182.042 94.0236 182 94.7875 182.209C111.567 188.749 129.357 185.218 140.116 173.204C141.978 170.957 143.609 168.392 145.187 165.912C147.101 162.899 148.922 160.037 151.117 157.693C149.828 167.989 143.431 176.98 133.428 182.488ZM101.041 110.964C103.969 110.719 109.248 110.743 110.078 111.274C110.049 111.302 110.009 111.337 109.951 111.376C105.826 113.655 105.419 113.401 103.899 112.439C103.236 112.019 102.392 111.485 101.041 110.964ZM91.0182 125.039C87.4374 127.331 84.3355 129.316 81.8354 132.773C77.8475 131.763 74.726 133.675 72.1619 135.977C74.0679 127.385 78.6311 120.775 86.0768 115.814C86.1306 119.845 87.8352 122.821 91.2683 124.879L91.0182 125.039ZM75.8229 136.902C76.5527 136.324 77.3098 136.036 78.0917 136.036C79.1552 136.036 80.264 136.569 81.4104 137.635C78.8368 142.454 75.8638 147.829 72.8046 151.612C70.902 147.624 72.4846 139.546 75.8229 136.902ZM124.041 144L123.893 143.935C123.339 143.692 122.824 143.57 122.354 143.57C122.038 143.57 121.742 143.625 121.467 143.736C120.341 144.188 119.823 145.444 119.406 146.452C119.207 146.935 118.905 147.664 118.707 147.67H118.701C118.327 147.67 117.37 146.606 114.97 141.635C114.545 140.169 113.961 139.343 113.185 139.108C112.03 138.761 110.813 139.798 109.629 140.801C108.949 141.376 108.244 141.972 107.694 142.222C105.281 142.751 103.041 141.347 102.271 139.683C101.635 138.304 102.028 136.939 103.397 135.894C105.105 134.115 105.64 133.125 105.246 132.477C104.642 131.486 102.215 132.153 97.6231 133.516C93.339 134.788 88.0085 136.373 86.233 135.231C85.9394 135.041 85.7627 134.777 85.6953 134.426C86.9168 130.712 90.7834 128.91 94.1969 127.319C94.948 126.969 95.6684 126.633 96.3564 126.273C97.1946 125.717 97.5787 125.177 97.5301 124.625C97.449 123.716 96.2386 123.192 95.0675 122.687C94.5639 122.469 94.0876 122.262 93.7616 122.048C91.9076 120.914 89.9572 118.05 90.2226 116.057C90.3353 115.206 90.8654 114.636 91.8128 114.358C96.3163 112.825 99.7775 114.824 103.125 116.756C103.933 117.222 104.768 117.703 105.595 118.12L105.848 118.248L106.045 118.044C108.919 115.077 113.047 113.722 117.664 114.23C123.002 114.818 128.06 117.808 130.571 121.853C131.283 125.336 130.545 127.839 130.006 129.67C129.58 131.119 129.243 132.263 129.868 133.188C130.629 134.313 132.655 134.911 137.509 135.412C136.541 136.671 135.518 138.511 134.445 140.443C132.305 144.291 129.885 148.644 127.688 148.644C127.648 148.644 127.608 148.643 127.568 148.64C126.354 148.551 125.187 147.041 124.098 144.152L124.04 144.001L124.041 144ZM134.666 130.619C134.233 130.007 134.542 128.753 134.842 127.541C135.003 126.893 135.157 126.265 135.221 125.688C135.508 126.033 135.816 126.394 136.135 126.768C137.428 128.286 139.834 131.11 139.425 131.706C139.388 131.762 138.958 132.212 135.768 131.099L135.678 131.079C135.181 131.03 134.85 130.88 134.666 130.619ZM71.497 126.987C63.9881 141.731 67.1292 158.976 79.7288 172.026C81.4897 173.434 81.1014 174.142 80.2725 175.338C66.4088 163.976 61.039 146.237 66.5915 130.027C71.9306 114.443 85.9061 104.948 103.971 104.628H104.093C117.987 104.628 136.515 112.027 143.722 125.795C143.276 126.84 142.955 127.095 142.76 127.121C142.235 127.2 141.288 125.938 140.184 124.489C136.65 119.854 129.297 110.206 111.02 107.308C94.2831 104.967 78.7754 112.694 71.497 126.987ZM149.982 153.31C148.103 155.758 146.39 158.251 144.733 160.663C137.025 171.88 130.341 181.579 111.712 181.033C121.853 166.851 131.567 152.348 140.965 138.317C155.736 116.264 171.01 93.4602 188.158 71.607C188.685 70.564 189.234 69.9682 189.789 69.835C190.535 69.6566 191.386 70.2806 192.288 70.9421C192.953 71.4286 193.638 71.9314 194.386 72.202C197.248 74.0722 200.386 75.6726 203.419 77.2193C205.432 78.2453 207.341 79.2192 209.118 80.2392C191.339 101.946 173.085 124.501 149.983 153.309L149.982 153.31ZM156.365 106.018C156.958 107.236 152.178 113.599 149.322 117.4C147.998 119.163 146.834 120.715 146.049 121.879C133.576 106.2 116.146 98.9333 98.1344 101.946C81.7876 104.678 68.0195 115.712 63.0594 130.058C57.8518 145.118 62.6147 161.777 76.4707 176.969L76.5621 177.043C78.9085 178.4 78.673 180.273 78.4007 182.442C78.1719 184.265 77.9346 186.151 79.2602 187.796C80.2307 189.203 81.4249 190.03 82.8102 190.254C85.7397 190.727 88.839 188.447 90.9618 186.845L92.01 187.205C97.0674 188.939 101.846 190.577 106.963 190.963C118.844 192.015 130.231 189.03 139.024 182.561C148.523 175.57 154.253 165.177 155.6 152.499C160.706 145.656 166.362 138.754 171.833 132.078C175.512 127.588 179.317 122.945 182.803 118.495C184.068 117.261 185.77 118.284 187.738 119.472C188.875 120.157 190.05 120.867 191.164 121.142C201.614 126.021 212.124 131.026 222.289 135.866C250.161 149.137 278.982 162.862 308.478 174.865C309.873 175.529 311.015 175.953 311.932 176.294C313.157 176.748 313.964 177.048 314.125 177.492C314.326 178.052 313.731 179.245 312.474 181.417C300.204 206.486 287.929 231.823 276.06 256.324C271.519 265.697 266.968 275.092 262.403 284.503C260.608 287.619 259.551 290.232 258.778 292.14C257.8 294.558 257.21 296.017 256.061 296.461C254.119 297.208 250.084 295.263 240.334 290.556C236.325 288.622 231.337 286.214 225.099 283.317C190.418 265.408 103.641 218.149 46.9183 166.201C45.9786 164.702 44.8254 164.037 43.8984 163.503C39.8456 161.167 39.109 160.749 81.8201 83.5707C106.185 87.0217 132.061 96.8284 154.898 105.484L155.921 105.873L156.049 105.898C156.31 105.903 156.352 105.989 156.366 106.018H156.365ZM212.074 68.4164C214.706 68.1817 217.208 67.6926 219.865 67.0319C219.331 68.6861 216.074 71.2434 212.074 68.4164ZM210.558 66.4728C209.171 66.2005 206.772 64.2868 206.524 63.551L206.767 63.5655C212.301 63.9104 217.53 64.2356 222.599 62.8016C222.686 62.8281 222.745 62.8537 222.784 62.8741C221.941 63.8327 215.144 67.3776 210.558 66.4728ZM222.369 59.4445C219.535 61.2361 208.974 60.998 205.16 59.6178C210.2 57.9209 218.707 57.1919 222.971 58.7591C222.929 58.9332 222.79 59.1773 222.369 59.4445ZM205.438 51.8221C203.639 54.8087 201.939 57.6298 201.152 60.4901L201.101 60.6771L201.219 60.8298C202.313 62.2297 202.973 63.6748 203.609 65.073C204.497 67.02 205.336 68.8603 207.207 70.1423C208.264 72.0816 209.073 73.5105 211.47 74.0047C211.32 74.318 211.1 74.5314 210.804 74.6526C208.949 75.4157 204.503 72.738 200.931 70.587C199.05 69.4526 197.272 68.3822 196.005 67.8795L195.943 67.8752L195.827 67.9C194.839 66.4327 203.216 47.6302 208.335 40.8759C209.879 38.8393 210.365 38.9741 210.383 38.9809C210.385 38.9818 210.648 39.0817 210.664 40.1572C209.958 44.3192 207.661 48.1338 205.438 51.8221ZM211.302 55.1049C211.68 53.8305 212.219 53.0589 212.908 52.8088C214.254 52.3163 216.216 53.6897 218.151 55.1049H211.302ZM206.837 55.4899L208.262 53.7059C210.64 49.3988 212.735 44.8117 215.065 39.8337C217.564 34.4963 221.377 29.3919 225.557 22.8015C225.937 22.2031 226.688 22.6743 227.393 22.9713C227.697 23.0994 211.034 51.648 209.033 55.5326C208.347 56.3861 207.879 55.7775 206.837 55.4899ZM225.951 134.028C243.701 117.973 269.737 111.425 295.746 116.505L295.788 116.513L295.83 116.512C295.888 116.511 295.945 116.509 296.005 116.509C302.837 116.509 323.953 127.311 324.369 133.482C324.561 136.344 319.92 137.441 316.034 137.855C314.227 137.854 312.399 137.838 310.556 137.822C292.871 137.676 274.575 137.52 260.75 149.184C259.704 150.48 249.238 145.272 240.83 141.086C235.581 138.474 230.162 135.776 225.951 134.028ZM295.493 31.8297C277.627 40.6352 267.919 36.1795 254.569 30.0526C247.314 26.7236 239.11 22.9577 228.098 20.7606C229.494 18.689 230.781 16.3681 232.028 14.1198C234.322 9.98253 236.693 5.70784 239.781 2.91239C251.374 4.10739 256.586 8.74997 262.613 14.1206C269.408 20.1742 277.093 27.0224 295.493 31.8306V31.8297ZM78.352 82.5601C64.8579 106.324 52.0568 130.994 39.2353 157.948C24.0614 145.037 1.6201 117.478 4.88331 97.2578C6.29512 88.512 12.3871 81.9336 22.9449 77.7212C26.3216 76.8429 30.3044 76.4758 34.6696 76.4758C47.5705 76.4758 63.802 79.6844 77.5249 82.3962L78.352 82.5601Z" fill="black"/>
<path d="M157.338 209.858C162.641 281.748 269.306 283.975 273.275 209.378C271.484 134.413 158.212 130.279 157.338 209.858Z" fill="#008900"/>
<path d="M273.275 209.378C269.306 283.975 162.641 281.748 157.338 209.858C158.213 130.279 271.484 134.413 273.275 209.378ZM159.516 206.614C162.806 278.897 269.202 280.109 270.559 208.688C265.568 136.474 162.428 135.791 159.516 206.614Z" fill="black"/>
<path d="M213.015 158.613C145.764 161.198 146.005 253.671 215.075 256.772C284.127 255.095 283.203 161.549 213.015 158.613Z" fill="#958F8C"/>
<path d="M203.696 210.062C205.275 191.747 207.984 186.396 181.983 185.202C177.546 190.134 181.832 207.513 177.236 214.657C177.586 207.799 178.081 202.5 178.35 195.531C178.958 190.835 177.127 185.538 181.604 183.389C184.401 181.774 204.776 182.606 206.676 187.795C207.766 194.161 207.815 203.062 207.787 209.037C207.383 211.443 205.907 209.72 203.695 210.062H203.696Z" fill="#6BA1E1"/>
<path d="M201.983 221.614C203.248 223.335 202.203 224.336 202.107 225.93C202.594 234.3 189.996 231.398 182.845 230.249C179.791 229.321 178.947 222.295 182.775 220.666C183.376 224.035 181.087 227.459 182.639 229.648C186.798 226.765 181.504 219.217 186.967 214.029C187.958 209.738 184.855 210.099 187.664 203.375C192.883 212.583 196.116 231.909 197.775 206.559C198.094 203.951 198.795 196.813 199 194.784C200.132 196.133 200.258 201.032 201.424 199.786C201.894 193.979 200.151 187.031 194.71 194.478C190.746 199.54 195.746 196.626 197.351 195.189C196.679 199.765 196.13 203.513 195.493 207.851C195.124 209.627 195.078 214.276 194.07 211.413C190.731 206.457 187.807 186.196 185.091 204.237C184.565 208.623 184.589 210.44 180.398 211.973C181.807 203.482 180.823 194.961 182.742 187.221C188.85 185.692 196.361 186.293 201.874 188.995C204.821 192.58 203.335 198.518 203.217 203.106C202.992 205.769 202.969 208.059 202.807 210.277C199.634 213.667 198.788 218.045 201.983 221.614H201.983Z" fill="white"/>
<path d="M176.236 195.794C177.581 201.93 171.942 206.36 171.979 211.557C174.158 210.779 173.981 208.304 175.501 206.855C176.718 209.22 170.598 216.928 174.905 214.677C175.238 215.823 175.322 216.341 174.979 216.981C164.102 233.83 170.983 199.193 176.236 195.794Z" fill="#FFBC9B"/>
<path d="M170.434 225.661C170.37 222.59 190.516 205.535 184.947 215.284C179.656 221.256 173.81 222.498 175.412 232.921C173.111 231.404 171.346 227.904 170.434 225.66V225.661Z" fill="#FFBC9B"/>
<path d="M178.436 224.96C178.492 228.159 179.01 230.184 180.403 231.495C182.82 232.259 186.238 232.783 190.443 233.144C194.386 233.483 199 233.341 200.497 232.941C202.613 231.894 203.825 229.625 204.397 224.325C207.031 225.636 207.615 231.266 205.665 232.922C204.285 233.787 201.003 236.605 199.329 236.62L196.64 236.948C192.469 237.533 186.756 235.351 183.066 234.661C181.587 234.46 178.111 234.545 176.938 233.997C176.124 231.635 176.556 226.178 178.437 224.961L178.436 224.96Z" fill="#6BA1E1"/>
<path d="M236.808 245.381C233.223 241.279 233.202 248.426 236.375 248.803C228.206 252.997 218.72 253.552 210.108 252.699C207.542 250.426 206.947 245.437 207.075 242.323C207.043 240.647 208.201 241.152 209.341 240.902C211.47 241.276 222.896 235.121 218.275 233.092C203.801 243.589 207.822 236.16 210.609 224.577C208.046 221.126 202.454 219.893 202.703 215.158C205.308 210.902 211.529 212.024 215.703 211.767C221.155 207.986 216.748 192.994 235.845 187.52C232.161 200.348 231.725 227.79 250.324 230.572C252.475 231.586 253.406 233.497 253.301 235.6C252.305 239.59 241.871 249.094 236.807 245.381H236.808Z" fill="#FFBC9B"/>
<path d="M257.42 231.187C255.954 233.608 255.753 229.1 254.026 228.727C249.15 227.069 244.616 226.676 241.771 221.647C236.412 217.134 231.294 181.918 246.347 186.732C246.228 198.826 255.082 208.223 262.874 216.344C261.978 221.823 260.171 226.645 257.42 231.187Z" fill="#FF4B17"/>
<path d="M248.838 187.278C261.844 185.979 263.646 201.606 263.205 211.597C256.339 205.534 249.714 196.468 248.838 187.278Z" fill="#FF4B17"/>
<path d="M253.381 175.155C243.641 164.779 229.688 158.925 213.031 158.229H213.001C178.432 159.558 162.609 184.303 162.537 206.734C162.462 229.88 178.865 255.532 215.084 257.158C230.961 256.773 244.28 251.483 253.6 241.861C261.907 233.284 266.542 221.747 266.65 209.371C266.762 196.54 262.05 184.389 253.381 175.155ZM192.336 166.586C198.648 163.796 205.936 162.181 213.45 162.181C228.216 162.181 243.846 168.419 254.599 184.227C235.298 179.612 220.77 187.225 215.625 204.765C215.099 207.607 214.731 207.62 213.364 207.667C212.78 207.687 208.948 208.414 208.542 208.104C207.292 207.149 208.452 202.8 208.64 198.652C208.885 193.21 209.783 187.649 207.792 184.849C206.413 181.77 192.481 177.877 183.687 179.999C178.617 181.219 176.06 184.239 176.29 188.706C176.26 191.878 175.259 193.245 173.873 195.135C171.676 198.133 168.707 202.181 167.093 215.577C161.604 190.138 177.063 173.339 192.336 166.586ZM205.048 193.865C204.813 190.735 205.864 188.074 203.313 187.589C199.066 186.781 193.623 184.357 181.916 184.822L181.786 184.845L181.698 184.944C179.398 187.499 179.342 193.067 179.285 198.962C179.235 204.049 179.184 209.286 177.717 212.878C177.843 210.661 177.98 208.581 178.115 206.554C178.354 202.96 178.579 199.564 178.732 195.58C178.905 194.239 178.885 192.86 178.864 191.527C178.812 188.12 178.767 185.178 181.797 183.723C182.556 183.284 184.871 183.027 187.81 183.027C192.323 183.027 198.304 183.633 202.384 185.112C204.571 185.906 205.93 186.88 206.296 187.861C206.669 190.038 206.703 191.984 206.584 193.862C206.543 194.512 205.854 208.687 205.854 208.687C204.671 209.337 204.378 209.179 204.378 209.179C204.378 209.179 205.094 194.482 205.048 193.866V193.865ZM201.684 221.856C202.437 222.891 202.243 223.597 201.999 224.488C201.879 224.925 201.755 225.376 201.723 225.952C201.82 227.611 201.393 228.842 200.419 229.715C197.479 232.344 190.154 231.096 184.807 230.186C184.15 230.074 183.518 229.966 182.974 229.883C184.965 228.417 185.104 225.991 185.252 223.425C185.417 220.548 188.541 215.012 188.168 212.082C187.976 210.579 186.547 207.507 187.722 204.284C188.973 206.654 190.114 209.571 191.132 212.173C193.07 217.128 194.141 219.716 195.438 219.501C196.575 219.325 197.475 217.06 198.158 206.605C198.309 205.375 198.523 204.03 198.73 202.731C198.898 201.673 199.015 197.739 199.132 196.848C199.57 197.419 199.952 200.554 201.144 200.456C202.993 200.305 201.51 191.745 199.442 190.976C198.06 190.462 196.363 191.563 194.407 194.24C192.918 196.142 192.534 197.066 193.036 197.536C193.714 198.172 195.693 196.923 196.83 196.088L195.117 207.772C195.016 208.257 194.942 208.918 194.863 209.618C194.791 210.26 194.691 211.146 194.574 211.649C194.534 211.555 194.487 211.436 194.434 211.285L194.39 211.198C193.401 209.728 192.429 206.816 191.49 204.001C189.915 199.281 188.857 196.361 187.497 196.512C186.68 196.581 185.71 197.548 184.711 204.191L184.626 204.901C184.198 208.563 184.023 210.066 180.885 211.37C181.435 207.75 181.576 204.117 181.715 200.596C181.895 196.021 182.065 191.694 183.063 187.538C189.139 186.075 196.39 186.763 201.63 189.304C203.746 191.949 203.398 195.921 203.06 199.763C202.957 200.932 202.86 202.036 202.835 203.074C202.706 204.596 202.643 205.984 202.583 207.326C202.54 208.282 202.497 209.204 202.434 210.113C198.919 213.941 198.63 218.429 201.685 221.856H201.684ZM170.423 221.184C170.013 221.104 169.815 220.387 169.733 219.966C168.799 215.157 172.611 199.829 175.973 196.505C176.407 199.566 175.07 202.234 173.774 204.818C172.644 207.072 171.577 209.201 171.594 211.56L171.597 212.103L172.108 211.92C173.552 211.404 174.066 210.242 174.562 209.118C174.782 208.621 174.994 208.142 175.279 207.719C175.245 208.801 174.51 210.476 173.943 211.768C173.156 213.561 172.635 214.746 173.201 215.275C173.553 215.602 174.103 215.473 174.657 215.227C174.866 216.014 174.873 216.364 174.656 216.772C171.949 220.965 170.803 221.255 170.422 221.184H170.423ZM174.904 232.044C172.897 230.266 171.426 227.062 170.822 225.59C170.984 223.673 179.917 215.296 184.14 213.132C185.26 212.557 185.51 212.71 185.513 212.71C185.516 212.714 185.747 213.098 184.633 215.059C183.341 216.513 182.03 217.67 180.763 218.79C177.026 222.09 174.044 224.725 174.904 232.045V232.044ZM181.996 229.284C181.225 228.526 180.695 227.202 180.614 225.69C180.528 224.102 180.985 222.182 182.466 221.26C182.579 222.514 182.324 223.779 182.076 225.006C181.762 226.56 181.464 228.041 181.996 229.284ZM204.985 251.37C204.845 251.527 203.923 251.238 203.427 251.085C203.028 250.961 202.618 250.834 202.246 250.758C192.539 247.919 184.42 243.02 178.132 236.214C177.71 235.698 177.72 235.514 177.715 235.514C178.059 235.141 180.986 235.7 183.337 236.149C190.206 237.459 200.314 239.389 204.755 234.37C203.913 239.489 203.128 244.328 204.503 249.535L204.524 249.594C205.197 251.105 204.993 251.359 204.985 251.37ZM203.313 233.668C202.18 234.378 199.025 235.941 197.033 235.963C192.946 236.535 184.427 234.055 180.604 233.34C179.096 233.135 178.251 233.006 177.232 232.553C176.501 230.369 177.261 227.178 178.081 225.866C178.23 228.781 178.862 230.574 180.139 231.776L180.287 231.862C182.613 232.597 185.924 233.141 190.41 233.528C194.19 233.853 198.951 233.752 200.667 233.287C202.922 232.171 204.11 229.768 204.699 225.068C204.848 225.277 204.941 225.541 204.98 225.866C205.239 227.997 204.76 232.435 203.313 233.669V233.668ZM242.257 245.307C240.099 246.088 238.353 246.016 237.07 245.095C236.043 243.931 235.168 243.506 234.47 243.833C233.832 244.133 233.539 245.062 233.723 246.199C233.892 247.238 234.453 248.332 235.377 248.868C228.571 252.123 220.129 253.289 210.273 252.328C207.982 250.197 207.324 245.633 207.46 242.316C207.443 241.435 207.714 241.42 208.515 241.379C208.772 241.366 209.06 241.351 209.354 241.294C211.407 241.521 218.854 237.614 219.668 234.927C219.832 234.386 219.889 233.381 218.43 232.74L218.228 232.652L218.049 232.78C216.075 234.213 210.07 238.567 208.674 237.606C207.714 236.944 208.648 233.488 209.731 229.486C210.125 228.031 210.571 226.38 210.984 224.668L211.025 224.493L210.918 224.348C209.952 223.046 208.586 222.061 207.266 221.108C205.067 219.52 202.989 218.019 203.084 215.276C205.067 212.156 209.245 212.177 212.948 212.195C213.935 212.202 214.866 212.205 215.728 212.151L215.834 212.145L215.923 212.084C217.85 210.748 218.601 208.148 219.471 205.138C221.196 199.164 223.336 191.755 235.289 188.088C232.909 196.971 231.801 213.086 238.221 223.073C241.08 227.519 245.113 230.168 250.21 230.945C252.059 231.838 253.02 233.482 252.928 235.507C252.299 238.028 247.16 243.537 242.256 245.309L242.257 245.307ZM257.09 230.988C256.791 231.482 256.64 231.512 256.642 231.514C256.48 231.473 256.167 230.842 255.981 230.465C255.538 229.568 255.036 228.551 254.15 228.362C253.243 228.054 252.346 227.788 251.479 227.532C247.653 226.4 244.349 225.422 242.106 221.458L242.019 221.353C238.346 218.26 234.207 198.138 238.779 189.861C239.953 187.737 241.611 186.67 243.727 186.67C244.422 186.67 245.168 186.786 245.96 187.017C245.984 199.223 255.079 208.775 262.463 216.471C261.581 221.727 259.822 226.477 257.091 230.988H257.09ZM249.261 187.627C252.565 187.385 255.304 188.276 257.427 190.284C262.617 195.194 262.999 205.685 262.85 210.762C255.161 203.767 250.124 195.197 249.262 187.627H249.261Z" fill="black"/>
<path d="M218.677 215.283C216.06 215.257 217.232 210.349 219.966 211.241C221.789 212.271 221.264 214.89 218.677 215.283Z" fill="black"/>
</g>
<defs>
<clipPath id="clip0_42_486">
<rect width="409.715" height="340.719" fill="white"/>
</clipPath>
</defs>
</svg>
