<svg width="24" height="24" viewBox="0 0 24 24" fill="none" xmlns="http://www.w3.org/2000/svg">
<g clip-path="url(#clip0_190_171)">
<path d="M23.3408 2.63711C20.2846 -1.78547 14.3083 -0.445933 12.3778 5.22341C10.4378 2.67328 7.66056 1.49207 4.42241 1.27566C-2.43414 0.915421 0.153109 9.33628 2.45306 13.1362C5.20371 17.453 8.63046 21.0695 12.879 23.9788C14.2453 24.3824 18.2766 17.5985 21.5906 12.5391C23.24 9.63686 24.9821 5.74136 23.3408 2.63721V2.63711Z" fill="#FFA0C1"/>
<path d="M12.3776 5.22338C14.3081 -0.445954 20.2844 -1.78549 23.3406 2.63719C24.9819 5.74134 23.2398 9.63684 21.5903 12.539C18.2763 17.5986 14.245 24.3825 12.8787 23.9788C8.63019 21.0695 5.20344 17.4529 2.45274 13.1362C0.152943 9.33626 -2.43431 0.915399 4.42224 1.27564C7.66039 1.49205 10.4376 2.67336 12.3776 5.22338ZM4.44814 2.80044C-4.49761 3.09747 7.04369 18.0052 9.91374 19.7092C11.5937 20.6196 12.6017 23.5998 13.9683 20.8151C34.2589 -4.20843 11.6556 -0.289856 13.2928 8.04705C13.9062 8.63288 13.3098 10.0204 12.5179 9.09504C11.9254 8.20117 11.7823 6.58104 10.9604 5.59057C9.47929 3.58002 6.89519 3.13055 4.44814 2.80044Z" fill="black"/>
</g>
<defs>
<clipPath id="clip0_190_171">
<rect width="24" height="24" fill="white"/>
</clipPath>
</defs>
</svg>
