<svg width="185" height="31" viewBox="0 0 185 31" fill="none" xmlns="http://www.w3.org/2000/svg">
<path d="M24.8184 2.88586V7.24351H15.0065V23.0869H9.81194V7.24351H3.09047e-06V2.88586H24.8184ZM39.5 5.80058C41.5201 5.80058 42.9342 6.08917 44.0885 6.37775V10.5045C42.4725 10.1005 41.1738 9.92737 39.7309 9.92737C36.9605 9.92737 33.786 10.5623 30.7847 12.8998V23.0869H25.8499V6.08917H30.7847V8.97503C33.3243 6.6952 36.3256 5.80058 39.5 5.80058ZM46.1129 3.74481e-08H51.0478V4.29993H46.1129V3.74481e-08ZM46.1129 6.08917H51.0478V23.0869H46.1129V6.08917ZM66.9441 5.80058C72.4273 5.80058 77.0735 8.10927 77.0735 14.6025C77.0735 21.0957 72.4273 23.3755 66.9441 23.3755C63.2791 23.3755 60.3355 22.3943 58.4885 20.4608V30.3016H53.5249V6.08917H58.4885V8.7153C60.3355 6.81064 63.2791 5.80058 66.9441 5.80058ZM65.2992 19.2487C69.7146 19.2487 72.1387 17.9501 72.1387 14.6025C72.1387 11.226 69.7146 9.92737 65.2992 9.92737C60.8838 9.92737 58.4885 11.226 58.4885 14.6025C58.4885 17.9501 60.8838 19.2487 65.2992 19.2487ZM92.3645 5.80058C97.8477 5.80058 102.494 8.10927 102.494 14.6025C102.494 21.0957 97.8477 23.3755 92.3645 23.3755C88.6995 23.3755 85.7559 22.3943 83.9089 20.4608V30.3016H78.9453V6.08917H83.9089V8.7153C85.7559 6.81064 88.6995 5.80058 92.3645 5.80058ZM90.7196 19.2487C95.1349 19.2487 97.5591 17.9501 97.5591 14.6025C97.5591 11.226 95.1349 9.92737 90.7196 9.92737C86.3042 9.92737 83.9089 11.226 83.9089 14.6025C83.9089 17.9501 86.3042 19.2487 90.7196 19.2487ZM115.599 5.80058C122.698 5.80058 126.739 8.08041 126.796 14.5159V23.0869H121.833V20.9802C118.831 22.452 115.513 23.3755 111.501 23.3755C106.739 23.3755 103.767 21.846 103.767 18.0078C103.767 13.5924 108.615 12.2072 114.012 12.2072C116.927 12.2072 119.61 12.6689 121.833 13.4193C121.833 10.1871 117.677 9.92737 115.368 9.92737C113.146 9.92737 110.433 10.1294 106.942 11.1683L105.181 7.56096C108.644 6.43547 112.049 5.80058 115.599 5.80058ZM121.833 17.8058V16.4783C120.101 15.93 117.763 15.4394 114.618 15.4394C110.924 15.4394 108.702 16.0743 108.702 17.8058C108.702 19.595 110.347 19.7393 112.915 19.7393C115.599 19.7393 119.293 18.9024 121.833 17.8058ZM142.529 5.80058C147.983 5.80058 152.658 8.10927 152.658 14.6025C152.658 21.0957 147.983 23.3755 142.529 23.3755C138.864 23.3755 135.891 22.3654 134.044 20.4319V23.0869H129.11V3.74481e-08H134.044V8.74416C135.891 6.81064 138.864 5.80058 142.529 5.80058ZM140.884 19.2487C145.299 19.2487 147.695 17.9501 147.695 14.6025C147.695 11.226 145.299 9.92737 140.884 9.92737C136.469 9.92737 134.044 11.226 134.044 14.6025C134.044 17.9501 136.469 19.2487 140.884 19.2487ZM154.53 3.74481e-08H159.465V23.0869H154.53V3.74481e-08ZM172.829 19.3641C176.234 19.3641 178.312 18.7292 179.553 16.9977H184.459C183.334 21.3265 179.12 23.3755 172.829 23.3755C166.365 23.3755 161.343 20.8359 161.343 14.6025C161.343 8.34014 166.22 5.80058 173.118 5.80058C179.582 5.80058 184.748 8.0227 184.748 15.7568H166.394C166.942 18.4695 169.539 19.3641 172.829 19.3641ZM173.089 9.55221C169.712 9.55221 167.346 10.216 166.567 12.6112H179.467C178.63 10.216 176.206 9.55221 173.089 9.55221Z" fill="black"/>
</svg>
