<svg width="353" height="379" viewBox="0 0 353 379" fill="none" xmlns="http://www.w3.org/2000/svg">
<path fill-rule="evenodd" clip-rule="evenodd" d="M150.805 110.701C191.381 114.174 231.729 117.133 264.14 141.741C301.851 170.374 345.354 207.791 340.649 254.844C336.029 301.049 282.499 321.984 243.573 347.423C215.167 365.986 184.732 380.269 150.805 378.911C118.273 377.608 89.0124 362.43 65.1936 340.279C40.337 317.163 24.7744 287.942 17.3961 254.844C7.26687 209.407 -15.4445 154.714 16.2034 120.52C47.9345 86.2352 104.209 106.713 150.805 110.701Z" fill="#FFC73C" fill-opacity="0.47"/>
<g clip-path="url(#clip0_25_305)">
<path d="M350.803 57.7905C340.616 43.0486 320.695 47.5137 314.26 66.4115C307.793 57.9111 298.536 53.9737 287.742 53.2524C264.887 52.0516 273.511 80.1211 281.177 92.7875C290.346 107.177 301.769 119.232 315.93 128.929C320.485 130.275 333.922 107.662 344.969 90.797C350.467 81.123 356.274 68.138 350.803 57.7909V57.7905Z" fill="#FFA0C1"/>
<path d="M314.259 66.4112C320.694 47.5134 340.615 43.0483 350.802 57.7906C356.273 68.1377 350.466 81.1227 344.968 90.7967C333.921 107.662 320.483 130.275 315.929 128.929C301.767 119.231 290.345 107.176 281.176 92.7872C273.51 80.1208 264.886 52.0513 287.741 53.252C298.535 53.9734 307.792 57.9111 314.259 66.4112ZM287.827 58.3347C258.008 59.3248 296.479 109.017 306.046 114.697C311.646 117.732 315.006 127.666 319.561 118.384C387.196 34.9718 311.852 48.0337 317.31 75.8234C319.354 77.7762 317.366 82.4013 314.727 79.3167C312.751 76.3371 312.274 70.9367 309.535 67.6352C304.598 60.9333 295.984 59.4351 287.827 58.3347Z" fill="black"/>
</g>
<g clip-path="url(#clip1_25_305)">
<path d="M121.183 108.248L131.5 115.212L133.288 146.726L137.002 142.888C137.002 142.888 147.181 127.497 159.08 132.629C170.979 137.761 167.953 146.726 167.953 146.726C167.953 146.726 163.7 166.586 147.807 171.827C131.913 177.067 133.082 178.722 133.082 178.722L136.59 238.509L125.929 239.888L124.278 219.821C124.278 219.821 105.708 211.408 101.788 206.167C97.8678 200.926 88.7882 184.86 88.7882 184.86C88.7882 184.86 87.894 175.781 94.0155 175.562C100.137 175.343 106.19 174.309 110.178 178.516C114.168 182.722 123.189 193.134 123.189 193.134L122.424 131.831L121.183 108.248Z" fill="#2D881A"/>
<path d="M115.153 99.3984C115.153 99.3984 125.568 116.247 135.997 117.005C146.425 117.764 154.954 113.489 154.954 113.489C154.954 113.489 172.148 102.938 164.377 79.6989L181.433 69.769C181.433 69.769 192.819 56.6686 189.55 44.4616C186.28 32.2546 173.043 23.5676 173.043 23.5676C173.043 23.5676 159.7 16.2584 144.224 27.9809L139.753 12.1209C139.753 12.1209 133.288 -1.39481 122.009 2.88024C110.729 7.15596 107.702 9.70691 107.702 9.70691C107.702 9.70691 101.707 20.9912 103.232 23.2226L91.1264 18.8093C91.1264 18.8093 72.1433 19.706 70.2175 28.4634C68.2917 37.2209 67.1912 49.2199 67.1912 49.2199C67.1912 49.2199 75.7888 67.3556 89.6136 68.1831C89.6136 68.1831 78.3338 78.5265 78.471 81.6989C78.6089 84.8706 75.3075 98.938 86.6556 104.248C98.0044 109.558 107.633 105.696 107.633 105.696L115.153 99.3984Z" fill="#FF5C33"/>
<path d="M128.453 75.2172C128.453 75.2172 146.792 61.7014 130.927 50.6682C115.062 39.6349 110.201 65.1953 110.201 65.1953C110.201 65.1953 112.407 79.8144 128.453 75.2172Z" fill="#FFC73C"/>
<path d="M100.297 240.991L167.426 237.57L154.22 311.052L110.215 310.316L100.297 240.991Z" fill="#703D22"/>
<path d="M133.774 144.758C148.588 119.441 178.386 128.288 167.093 156.96C160.429 167.111 149.879 172.359 139.426 178.03C137.502 179.543 134.371 179.661 135.177 182.913C135.601 201.188 136.857 218.455 136.944 236.595C173.463 235.011 170.353 230.152 167.715 246.608C164.557 264.769 161.499 282.156 158.401 300.291C157.036 304.64 157.882 312.282 154.459 312.829C139.669 312.235 124.33 313.859 110.257 311.663C106.75 298.764 105.767 284.951 103.101 271.729C101.807 261.08 98.4213 250.754 98.7926 240.025C99.7227 238.706 101.154 239.24 103.118 238.97C131.997 236.349 122.716 241.148 123.423 227.493C122.715 224.725 124.944 220.669 121.045 220.417C109.554 216.105 100.75 207.52 93.6851 197.543C79.7712 180.156 90.2946 170.724 105.857 174.456C112.876 177.682 117.419 183.626 121.972 189.785C119.174 93.4429 121.244 111.288 115.407 101.197C109.505 109.093 99.1822 110.898 90.0637 107.828C78.8034 103.539 74.0086 89.4476 78.3884 78.4704C79.8811 73.9821 85.1311 71.5185 86.8943 68.4303C69.7362 65.6706 60.8056 46.6376 66.931 31.3039C72.6916 18.0855 89.9258 13.7068 102.111 20.8647C101.807 14.574 104.987 9.32868 109.63 5.29033C125.103 -8.49341 146.448 7.81324 144.984 25.8518C179.59 3.77163 207.17 46.6963 179.675 72.7627C171.123 80.9959 164.915 78.9086 165.867 80.8785C173.696 104.937 155.795 125.07 132.246 116.938C132.932 126.105 133.327 135.285 133.774 144.758ZM187.531 48.8567C188.961 35.3214 175.453 23.2428 162.592 22.5934C156.057 22.9188 150.471 26.0964 144.536 28.8801C143.345 29.6528 142.484 31.1409 140.76 30.5957C141.997 23.5526 142.24 14.6908 135.333 9.64625C120.496 -4.69307 99.5361 13.7844 105.391 24.4622C105.435 25.2878 104.808 25.5473 103.602 25.7755C100 25.3308 98.2411 21.7157 94.2132 21.0851C62.6846 16.2049 61.6186 61.0252 87.7827 65.672C91.2754 66.459 101.083 64.894 93.73 69.8283C89.1609 71.1116 85.5935 73.4383 82.7305 77.5014C76.7722 86.4356 82.1165 100.301 91.3872 104.481C99.5887 107.96 111.131 106.238 114.604 97.4121C115.103 96.5644 116.378 96.878 116.758 98.0564C120.977 107.832 131.479 116.017 142.378 116.039C163.64 114.416 167.318 93.2922 161.593 77.1949C163.57 75.6606 166.418 76.522 168.947 75.6123C180 71.8459 188.145 58.9014 187.531 48.8567ZM133.301 308.208C140.457 307.781 154.691 310.463 153.933 306.733C157.77 283.974 162.037 261.845 165.434 239.154C92.4467 244.001 101.776 242.072 101.876 246.146C105.845 266.907 108.597 287.218 112.596 307.864C118.995 308.934 126.594 307.855 133.301 308.208ZM134.91 175.562C145.407 169.99 157.992 164.365 164.807 153.568C170.137 137.895 161.212 129.656 147.429 136.114C128.49 145.278 135.385 161.294 134.91 175.562ZM122.424 110.445C124.099 126.913 124.012 144.53 124.663 161.481C128.396 254.17 123.677 235.349 131.209 237.062C134.167 236.712 134.487 237.736 133.67 234.229C127.268 85.8657 133.992 123.268 122.424 110.445ZM123.02 214.999C122.01 208.549 123.631 200.695 121.595 194.155C116.756 187.044 110.52 179.008 103.135 177.097C87.0673 175.712 89.5642 187.478 96.8167 196.542C102.364 206.104 125.38 223.526 123.02 214.999Z" fill="black"/>
<path d="M125.925 46.9813C147.02 49.8811 141.395 78.4587 122.377 77.6579C102.135 74.8963 106.735 46.3051 125.925 46.9813ZM122.37 73.7604C136.473 73.5759 142.269 53.4539 126.791 51.2192C109.257 50.1732 106.607 73.0868 122.37 73.7604Z" fill="black"/>
</g>
<g clip-path="url(#clip2_25_305)">
<path d="M220.202 202.162C220.158 224.382 232.648 256.447 245.978 272.615C255.924 284.678 261.734 286.46 275.288 278.122C301.753 261.843 312.024 239.644 320.872 209.42C321.546 207.118 328.159 187.391 321.168 183.407C313.594 179.089 307.314 182.15 301.743 187.474C298.716 190.365 295.908 193.519 293.26 196.767C275.402 218.681 273.146 218.596 257.546 195.996C254.154 191.084 250.531 186.11 246.116 182.182C238.054 175.007 230.31 176.245 225.563 185.747C222.423 192.034 221.117 199.24 220.204 202.162M275.16 196.845C282.241 189.596 287.836 183.292 294.04 177.662C302.819 169.694 313.16 167.473 324.079 172.528C335.719 177.915 341.409 188.216 340.159 200.405C339.076 210.972 335.837 221.654 331.687 231.497C322.104 254.231 306.437 272.541 286.14 286.31C263.692 301.539 249.943 298.946 234.041 277.133C219.606 257.335 210.224 235.388 208.764 210.546C207.984 197.282 212.004 185.488 220.713 175.571C231.362 163.446 243.411 162.754 255.041 173.994C261.87 180.592 267.675 188.261 275.16 196.845Z" fill="black"/>
<path d="M218.21 207.158C218.222 201.015 219.849 188.502 224.509 183.379C232.201 174.917 240.571 174.925 248.633 182.099C253.048 186.029 256.559 190.999 259.951 195.911C275.553 218.51 277.609 208.651 292.234 193.674C295.16 190.678 297.654 187.73 300.828 185.004C306.949 179.743 313.592 179.094 321.168 183.412C328.157 187.397 331.383 200.183 328.912 209.118C320.512 239.472 301.755 261.846 275.29 278.126C261.736 286.463 255.926 284.683 245.979 272.618C232.65 256.45 218.17 229.378 218.212 207.158H218.21Z" fill="#FF4B17"/>
</g>
<defs>
<clipPath id="clip0_25_305">
<rect width="80" height="80" fill="white" transform="translate(273 49)"/>
</clipPath>
<clipPath id="clip1_25_305">
<rect width="126" height="313" fill="white" transform="translate(65)"/>
</clipPath>
<clipPath id="clip2_25_305">
<rect width="133" height="130" fill="white" transform="translate(208 166)"/>
</clipPath>
</defs>
</svg>
