<svg width="572" height="572" viewBox="0 0 572 572" fill="none" xmlns="http://www.w3.org/2000/svg">
<path fill-rule="evenodd" clip-rule="evenodd" d="M552.259 6.07375C595.259 82.6824 558.026 175.087 531.11 258.713C509.442 326.031 467.492 378.546 416.577 427.627C353.129 488.788 294.89 572.672 206.773 571.361C112.823 569.964 34.9423 498.103 -18.97 421.148C-71.9162 345.572 -116.566 246.695 -80.0462 161.953C-45.9493 82.8314 71.4617 99.2387 141.424 48.9582C210.567 -0.73396 232.053 -114.372 316.74 -123.212C409.337 -132.877 506.69 -75.1121 552.259 6.07375Z" fill="#77A1DD"/>
<path d="M36.8314 246.285L43.5869 228.421H46.1124L39.357 246.285H36.8314ZM55.8988 246.285L49.1433 228.421H51.6689L58.4244 246.285H55.8988ZM61.1678 246.367V244.109H71.0238V246.367H61.1678ZM73.7672 246.285L80.5227 228.421H83.0482L76.2928 246.285H73.7672ZM92.8346 246.285L86.0791 228.421H88.6047L95.3602 246.285H92.8346ZM31.0491 272.675C29.7212 271.485 28.6672 270.109 27.8869 268.548C27.1067 266.974 26.7165 265.222 26.7165 263.292C26.7165 261.362 27.1067 259.609 27.8869 258.035C28.6672 256.461 29.7212 255.085 31.0491 253.908L32.7328 255.243C31.5008 256.434 30.611 257.666 30.0635 258.939C29.5159 260.212 29.2421 261.663 29.2421 263.292C29.2421 264.907 29.5159 266.358 30.0635 267.645C30.611 268.918 31.5008 270.15 32.7328 271.341L31.0491 272.675ZM53.7839 269.246C52.8941 269.246 52.0522 269.041 51.2583 268.63C50.4643 268.206 49.8209 267.597 49.3281 266.803C48.8353 265.995 48.5889 265.03 48.5889 263.908C48.5889 262.785 48.8353 261.827 49.3281 261.033C49.8209 260.225 50.4643 259.616 51.2583 259.206C52.0522 258.781 52.8941 258.569 53.7839 258.569C54.6736 258.569 55.5155 258.781 56.3094 259.206C57.1034 259.616 57.7468 260.225 58.2396 261.033C58.7324 261.827 58.9788 262.785 58.9788 263.908C58.9788 265.03 58.7324 265.995 58.2396 266.803C57.7468 267.597 57.1034 268.206 56.3094 268.63C55.5155 269.041 54.6736 269.246 53.7839 269.246ZM53.7839 266.803C54.2493 266.803 54.6326 266.687 54.9337 266.454C55.2486 266.221 55.4813 265.886 55.6319 265.448C55.7961 265.01 55.8783 264.496 55.8783 263.908C55.8783 263.319 55.7961 262.806 55.6319 262.368C55.4813 261.93 55.2486 261.594 54.9337 261.362C54.6326 261.129 54.2493 261.013 53.7839 261.013C53.3184 261.013 52.9283 261.129 52.6135 261.362C52.3123 261.594 52.0796 261.93 51.9153 262.368C51.7648 262.806 51.6895 263.319 51.6895 263.908C51.6895 264.496 51.7648 265.01 51.9153 265.448C52.0796 265.886 52.3123 266.221 52.6135 266.454C52.9283 266.687 53.3184 266.803 53.7839 266.803ZM66.0958 269.246C65.3977 269.246 64.8227 269.014 64.371 268.548C63.933 268.083 63.7139 267.515 63.7139 266.844C63.7139 266.173 63.933 265.605 64.371 265.14C64.8227 264.661 65.3977 264.421 66.0958 264.421C66.8076 264.421 67.3825 264.661 67.8206 265.14C68.2586 265.605 68.4776 266.173 68.4776 266.844C68.4776 267.515 68.2586 268.083 67.8206 268.548C67.3825 269.014 66.8076 269.246 66.0958 269.246ZM78.4077 269.246C77.518 269.246 76.6761 269.041 75.8821 268.63C75.0882 268.206 74.4448 267.597 73.952 266.803C73.4592 265.995 73.2128 265.03 73.2128 263.908C73.2128 262.785 73.4592 261.827 73.952 261.033C74.4448 260.225 75.0882 259.616 75.8821 259.206C76.6761 258.781 77.518 258.569 78.4077 258.569C79.2975 258.569 80.1394 258.781 80.9333 259.206C81.7273 259.616 82.3706 260.225 82.8634 261.033C83.3562 261.827 83.6026 262.785 83.6026 263.908C83.6026 265.03 83.3562 265.995 82.8634 266.803C82.3706 267.597 81.7273 268.206 80.9333 268.63C80.1394 269.041 79.2975 269.246 78.4077 269.246ZM78.4077 266.803C78.8731 266.803 79.2564 266.687 79.5576 266.454C79.8724 266.221 80.1051 265.886 80.2557 265.448C80.42 265.01 80.5021 264.496 80.5021 263.908C80.5021 263.319 80.42 262.806 80.2557 262.368C80.1051 261.93 79.8724 261.594 79.5576 261.362C79.2564 261.129 78.8731 261.013 78.4077 261.013C77.9423 261.013 77.5522 261.129 77.2373 261.362C76.9362 261.594 76.7035 261.93 76.5392 262.368C76.3886 262.806 76.3133 263.319 76.3133 263.908C76.3133 264.496 76.3886 265.01 76.5392 265.448C76.7035 265.886 76.9362 266.221 77.2373 266.454C77.5522 266.687 77.9423 266.803 78.4077 266.803ZM101.143 272.675L99.4588 271.341C100.691 270.15 101.581 268.918 102.128 267.645C102.676 266.358 102.949 264.907 102.949 263.292C102.949 261.663 102.676 260.212 102.128 258.939C101.581 257.666 100.691 256.434 99.4588 255.243L101.143 253.908C102.47 255.085 103.524 256.461 104.305 258.035C105.085 259.609 105.475 261.362 105.475 263.292C105.475 265.222 105.085 266.974 104.305 268.548C103.524 270.109 102.47 271.485 101.143 272.675Z" fill="white"/>
<path d="M37.6184 293.758V291.027L43.0597 287.619V287.536L37.6184 284.128V281.397L45.5442 286.53V288.625L37.6184 293.758ZM61.9958 288.768L65.1785 280.637H67.6014L70.7841 288.768H68.2995L67.355 286.14L66.431 283.368H66.3489L65.4249 286.14L64.4803 288.768H61.9958ZM95.1615 293.758L87.2357 288.625V286.53L95.1615 281.397V284.128L89.7202 287.536V287.619L95.1615 291.027V293.758Z" fill="white"/>
<path d="M334.4 89.44V87.36H343.6V89.44H334.4ZM352.832 98.58C351.539 97.42 350.512 96.08 349.752 94.56C348.992 93.0267 348.612 91.32 348.612 89.44C348.612 87.56 348.992 85.8533 349.752 84.32C350.512 82.7867 351.539 81.4467 352.832 80.3L354.472 81.6C353.272 82.76 352.406 83.96 351.872 85.2C351.339 86.44 351.072 87.8533 351.072 89.44C351.072 91.0133 351.339 92.4267 351.872 93.68C352.406 94.92 353.272 96.12 354.472 97.28L352.832 98.58ZM364.824 98.58C363.531 97.42 362.504 96.08 361.744 94.56C360.984 93.0267 360.604 91.32 360.604 89.44C360.604 87.56 360.984 85.8533 361.744 84.32C362.504 82.7867 363.531 81.4467 364.824 80.3L366.464 81.6C365.264 82.76 364.398 83.96 363.864 85.2C363.331 86.44 363.064 87.8533 363.064 89.44C363.064 91.0133 363.331 92.4267 363.864 93.68C364.398 94.92 365.264 96.12 366.464 97.28L364.824 98.58ZM376.817 98.58C375.523 97.42 374.497 96.08 373.737 94.56C372.977 93.0267 372.597 91.32 372.597 89.44C372.597 87.56 372.977 85.8533 373.737 84.32C374.497 82.7867 375.523 81.4467 376.817 80.3L378.457 81.6C377.257 82.76 376.39 83.96 375.857 85.2C375.323 86.44 375.057 87.8533 375.057 89.44C375.057 91.0133 375.323 92.4267 375.857 93.68C376.39 94.92 377.257 96.12 378.457 97.28L376.817 98.58ZM382.369 89.44V87.36H391.569V89.44H382.369ZM394.361 89.44V87.36H403.561V89.44H394.361ZM406.353 89.44V87.36H415.553V89.44H406.353ZM424.785 98.58C423.492 97.42 422.465 96.08 421.705 94.56C420.945 93.0267 420.565 91.32 420.565 89.44C420.565 87.56 420.945 85.8533 421.705 84.32C422.465 82.7867 423.492 81.4467 424.785 80.3L426.425 81.6C425.225 82.76 424.359 83.96 423.825 85.2C423.292 86.44 423.025 87.8533 423.025 89.44C423.025 91.0133 423.292 92.4267 423.825 93.68C424.359 94.92 425.225 96.12 426.425 97.28L424.785 98.58ZM436.778 98.58C435.484 97.42 434.458 96.08 433.698 94.56C432.938 93.0267 432.558 91.32 432.558 89.44C432.558 87.56 432.938 85.8533 433.698 84.32C434.458 82.7867 435.484 81.4467 436.778 80.3L438.418 81.6C437.218 82.76 436.351 83.96 435.818 85.2C435.284 86.44 435.018 87.8533 435.018 89.44C435.018 91.0133 435.284 92.4267 435.818 93.68C436.351 94.92 437.218 96.12 438.418 97.28L436.778 98.58ZM448.77 98.58C447.476 97.42 446.45 96.08 445.69 94.56C444.93 93.0267 444.55 91.32 444.55 89.44C444.55 87.56 444.93 85.8533 445.69 84.32C446.45 82.7867 447.476 81.4467 448.77 80.3L450.41 81.6C449.21 82.76 448.343 83.96 447.81 85.2C447.276 86.44 447.01 87.8533 447.01 89.44C447.01 91.0133 447.276 92.4267 447.81 93.68C448.343 94.92 449.21 96.12 450.41 97.28L448.77 98.58ZM454.322 89.44V87.36H463.522V89.44H454.322ZM466.314 89.44V87.36H475.514V89.44H466.314ZM478.306 89.44V87.36H487.506V89.44H478.306ZM490.298 89.44V87.36H499.498V89.44H490.298ZM502.291 89.44V87.36H511.491V89.44H502.291ZM514.283 89.44V87.36H523.483V89.44H514.283ZM526.275 89.44V87.36H535.475V89.44H526.275ZM538.267 89.44V87.36H547.467V89.44H538.267Z" fill="white"/>
<path d="M358.184 73.28V71.08H367.784V73.28H358.184ZM374.977 70.24C374.297 70.24 373.737 70.0133 373.297 69.56C372.87 69.1067 372.657 68.5533 372.657 67.9C372.657 67.2467 372.87 66.6933 373.297 66.24C373.737 65.7733 374.297 65.54 374.977 65.54C375.67 65.54 376.23 65.7733 376.657 66.24C377.083 66.6933 377.297 67.2467 377.297 67.9C377.297 68.5533 377.083 69.1067 376.657 69.56C376.23 70.0133 375.67 70.24 374.977 70.24ZM385.669 75V55H388.269V75H385.669ZM398.961 70.24C398.094 70.24 397.274 70.04 396.501 69.64C395.728 69.2267 395.101 68.6333 394.621 67.86C394.141 67.0733 393.901 66.1333 393.901 65.04C393.901 63.9467 394.141 63.0133 394.621 62.24C395.101 61.4533 395.728 60.86 396.501 60.46C397.274 60.0467 398.094 59.84 398.961 59.84C399.828 59.84 400.648 60.0467 401.421 60.46C402.194 60.86 402.821 61.4533 403.301 62.24C403.781 63.0133 404.021 63.9467 404.021 65.04C404.021 66.1333 403.781 67.0733 403.301 67.86C402.821 68.6333 402.194 69.2267 401.421 69.64C400.648 70.04 399.828 70.24 398.961 70.24ZM398.961 67.86C399.414 67.86 399.788 67.7467 400.081 67.52C400.388 67.2933 400.614 66.9667 400.761 66.54C400.921 66.1133 401.001 65.6133 401.001 65.04C401.001 64.4667 400.921 63.9667 400.761 63.54C400.614 63.1133 400.388 62.7867 400.081 62.56C399.788 62.3333 399.414 62.22 398.961 62.22C398.508 62.22 398.128 62.3333 397.821 62.56C397.528 62.7867 397.301 63.1133 397.141 63.54C396.994 63.9667 396.921 64.4667 396.921 65.04C396.921 65.6133 396.994 66.1133 397.141 66.54C397.301 66.9667 397.528 67.2933 397.821 67.52C398.128 67.7467 398.508 67.86 398.961 67.86ZM422.945 70.24C422.079 70.24 421.259 70.04 420.485 69.64C419.712 69.2267 419.085 68.6333 418.605 67.86C418.125 67.0733 417.885 66.1333 417.885 65.04C417.885 63.9467 418.125 63.0133 418.605 62.24C419.085 61.4533 419.712 60.86 420.485 60.46C421.259 60.0467 422.079 59.84 422.945 59.84C423.812 59.84 424.632 60.0467 425.405 60.46C426.179 60.86 426.805 61.4533 427.285 62.24C427.765 63.0133 428.005 63.9467 428.005 65.04C428.005 66.1333 427.765 67.0733 427.285 67.86C426.805 68.6333 426.179 69.2267 425.405 69.64C424.632 70.04 423.812 70.24 422.945 70.24ZM422.945 67.86C423.399 67.86 423.772 67.7467 424.065 67.52C424.372 67.2933 424.599 66.9667 424.745 66.54C424.905 66.1133 424.985 65.6133 424.985 65.04C424.985 64.4667 424.905 63.9667 424.745 63.54C424.599 63.1133 424.372 62.7867 424.065 62.56C423.772 62.3333 423.399 62.22 422.945 62.22C422.492 62.22 422.112 62.3333 421.805 62.56C421.512 62.7867 421.285 63.1133 421.125 63.54C420.979 63.9667 420.905 64.4667 420.905 65.04C420.905 65.6133 420.979 66.1133 421.125 66.54C421.285 66.9667 421.512 67.2933 421.805 67.52C422.112 67.7467 422.492 67.86 422.945 67.86ZM457.622 75V55H460.222V75H457.622ZM466.114 73.28V71.08H475.714V73.28H466.114ZM517.043 73.58L515.403 72.28C516.603 71.12 517.469 69.92 518.003 68.68C518.536 67.4267 518.803 66.0133 518.803 64.44C518.803 62.8533 518.536 61.44 518.003 60.2C517.469 58.96 516.603 57.76 515.403 56.6L517.043 55.3C518.336 56.4467 519.363 57.7867 520.123 59.32C520.883 60.8533 521.263 62.56 521.263 64.44C521.263 66.32 520.883 68.0267 520.123 69.56C519.363 71.08 518.336 72.42 517.043 73.58ZM541.027 73.58L539.387 72.28C540.587 71.12 541.454 69.92 541.987 68.68C542.521 67.4267 542.787 66.0133 542.787 64.44C542.787 62.8533 542.521 61.44 541.987 60.2C541.454 58.96 540.587 57.76 539.387 56.6L541.027 55.3C542.321 56.4467 543.347 57.7867 544.107 59.32C544.867 60.8533 545.247 62.56 545.247 64.44C545.247 66.32 544.867 68.0267 544.107 69.56C543.347 71.08 542.321 72.42 541.027 73.58Z" fill="white"/>
<path d="M385.669 49V29H388.269V49H385.669ZM401.021 47.2L394.441 29.8H396.901L403.481 47.2H401.021ZM406.153 47.28V45.08H415.753V47.28H406.153ZM418.145 47.28V45.08H427.745V47.28H418.145ZM430.418 47.2L436.998 29.8H439.458L432.878 47.2H430.418ZM445.31 48.34L444.57 46.62C445.463 46.3133 446.123 45.9133 446.55 45.42C446.99 44.9267 447.196 44.36 447.17 43.72L447.07 41.34L448.27 43.34C448.083 43.5 447.876 43.62 447.65 43.7C447.436 43.7667 447.203 43.8 446.95 43.8C446.576 43.8 446.223 43.72 445.89 43.56C445.556 43.4 445.29 43.1733 445.09 42.88C444.89 42.5733 444.79 42.2 444.79 41.76C444.79 41.1467 445.01 40.6533 445.45 40.28C445.89 39.8933 446.416 39.7 447.03 39.7C447.856 39.7 448.476 40.0067 448.89 40.62C449.303 41.22 449.51 42.06 449.51 43.14C449.51 44.4067 449.15 45.48 448.43 46.36C447.723 47.2533 446.683 47.9133 445.31 48.34ZM457.622 49V29H460.222V49H457.622ZM508.731 47.58C507.437 46.42 506.411 45.08 505.651 43.56C504.891 42.0267 504.511 40.32 504.511 38.44C504.511 36.56 504.891 34.8533 505.651 33.32C506.411 31.7867 507.437 30.4467 508.731 29.3L510.371 30.6C509.171 31.76 508.304 32.96 507.771 34.2C507.237 35.44 506.971 36.8533 506.971 38.44C506.971 40.0133 507.237 41.4267 507.771 42.68C508.304 43.92 509.171 45.12 510.371 46.28L508.731 47.58ZM519.003 32.78L515.383 29.66L517.383 27.7L520.443 31.34L519.003 32.78ZM532.935 47.2L526.355 29.8H528.815L535.395 47.2H532.935Z" fill="white"/>
</svg>
