<svg width="972" height="729" viewBox="0 0 972 729" fill="none" xmlns="http://www.w3.org/2000/svg">
<g clip-path="url(#clip0_190_87)">
<mask id="mask0_190_87" style="mask-type:alpha" maskUnits="userSpaceOnUse" x="21" y="-5" width="951" height="747">
<rect x="21" y="-5" width="951" height="747" fill="url(#paint0_linear_190_87)"/>
</mask>
<g mask="url(#mask0_190_87)">
<mask id="mask1_190_87" style="mask-type:luminance" maskUnits="userSpaceOnUse" x="203" y="-48" width="207" height="383">
<path d="M203.264 -47.2324H409.448V334.279H203.264V-47.2324Z" fill="white"/>
</mask>
<g mask="url(#mask1_190_87)">
<path d="M386.202 288.788C380.359 287.839 369.508 296.087 367.946 288.213C355.324 256.31 343.082 225.735 330.235 194.006C324.655 178.194 316.217 172.874 326.796 151.921C332.869 127.772 332.673 153.043 338.516 162.498C341.702 170.647 336.893 178.21 337.908 185.717C339.025 191.135 342.58 189.26 345.316 188.321C346.338 193.433 344.804 198.843 348.265 201.692C351.516 202.128 352.411 200.604 355.007 202.812C357.916 203.591 359.258 198.838 360.055 197.887C364.961 204.599 366.081 195.615 367.214 192.316C376.567 209.285 375.768 180.348 372.485 174.336C362.886 151.062 356.588 129.999 348.451 106.264C341.46 92.0708 365.357 101.332 353.313 69.0432C349.303 61.077 352.293 59.6712 352.267 51.8896C349.327 47.7455 340.89 47.1042 335.69 46.4297C332.382 46.9787 331.937 53.3025 330.768 55.7283C327.573 49.0803 317.38 47.3503 321.961 40.3805C322.667 29.5198 346.343 49.2981 354.931 43.6275C370.887 33.581 342.499 18.5835 332.628 15.069C330.427 2.36943 344.691 -17.3638 320.631 -25.6164C302.798 -55.0577 276.867 -55.1287 258.104 -21.4747C249.096 -9.9396 268.359 -7.87587 276.547 -0.993603C284.251 -2.5272 287.174 -22.1256 298.408 -16.6373C294.671 -10.7253 290.563 -3.97561 287.713 2.58006C282.838 3.42496 278.093 3.62376 276.289 8.50856C273.293 14.8962 273.693 24.493 280.145 27.1366C285.695 37.2115 267.298 29.3968 250.9 49.3951C228.786 70.0845 224.287 122.603 245.949 150.788C250.755 154.728 245.435 158.588 244.791 162.979C233.692 194.292 224.658 224.734 214.344 256.237C209.71 269.133 205.474 282.952 205.02 295.358C202.606 307.821 199.931 318.298 217.376 320.627C234.186 324.442 248.867 332.287 265.63 334.133C309.709 336.413 281.151 311.518 257.619 301.213C253.08 299.566 263.746 279.691 264.823 271.187C271.89 251.388 276.197 224.408 284.469 207.451C298.477 243.724 312.4 280.585 327.566 315.849C333.191 333.835 324.335 333.312 388.68 315.844C414.235 309.896 419.298 287.044 386.202 288.788Z" fill="#FFC73C"/>
<path d="M367.215 192.315C366.081 195.614 364.962 204.598 360.058 197.886C359.258 198.838 357.916 203.59 355.007 202.811C352.414 200.601 351.519 202.127 348.267 201.692C344.805 198.843 346.338 193.432 345.316 188.32C342.58 189.26 339.028 191.134 337.911 185.717C336.895 178.21 341.702 170.646 338.517 162.498C332.673 153.043 332.87 127.772 326.797 151.921C316.22 172.875 324.655 178.193 330.236 194.005C343.084 225.735 355.325 256.31 367.948 288.213C369.508 296.087 380.362 287.836 386.202 288.788C419.3 287.043 414.238 309.896 388.683 315.843C324.338 333.314 333.194 333.835 327.568 315.848C312.403 280.585 298.477 243.724 284.471 207.452C276.2 224.407 271.89 251.387 264.826 271.187C263.749 279.693 253.08 299.565 257.621 301.213C281.153 311.517 309.712 336.415 265.633 334.133C248.87 332.287 234.189 324.442 217.376 320.626C199.934 318.298 202.608 307.82 205.022 295.358C205.477 282.952 209.713 269.133 214.347 256.239C224.661 224.734 233.694 194.291 244.794 162.978C245.438 158.59 250.758 154.728 245.951 150.787C224.289 122.603 228.788 70.084 250.903 49.397C267.299 29.3963 285.697 37.211 280.147 27.1361C273.696 24.4925 273.296 14.8957 276.292 8.51045C278.096 3.62565 282.841 3.42448 287.716 2.58195C290.565 -3.97609 294.674 -10.7258 298.411 -16.6378C287.176 -22.1261 284.254 -2.52769 276.55 -0.994087C268.361 -7.87399 249.099 -9.94009 258.107 -21.4752C276.87 -55.1292 302.804 -55.0582 320.634 -25.6169C344.694 -17.3643 330.432 2.36895 332.631 15.0685C342.5 18.583 370.89 33.5806 354.934 43.6271C346.345 49.2976 322.669 29.5193 321.964 40.38C317.382 47.3498 327.575 49.0822 330.77 55.7278C331.94 53.302 332.385 46.9782 335.693 46.4292C340.893 47.1037 349.33 47.7451 352.269 51.8891C352.295 59.6731 349.306 61.0788 353.315 69.0427C365.359 101.333 341.463 92.0727 348.454 106.263C356.591 129.999 362.888 151.062 372.488 174.336C375.77 180.347 376.57 209.284 367.217 192.318L367.215 192.315ZM253.189 156.969C209.439 305.236 204.97 275.75 230.071 285.879C239.739 287.488 250.817 294.962 252.211 289.365C255.461 281.425 287.202 152.435 286.907 194.947C292.314 219.229 306.496 245.064 314.753 269.786C329.805 306.417 319.907 299.911 347.498 293.145C361.854 288.563 362.796 292.489 356.7 278.138C293.886 127.767 339.274 190.576 253.189 156.969ZM329.078 63.2491C325.777 60.5274 322.397 50.7057 317.664 51.2312C311.778 63.2846 299.18 71.5301 288.265 60.3783C277.151 50.4241 286.637 34.8183 273.724 40.974C219.989 59.5807 227.612 177.01 291.079 150.48C309.108 142.504 324.847 120.875 331.239 105.56C322.262 95.7837 323.827 90.5888 312.232 99.8425C299.275 107.364 279.837 129.502 277.412 123C276.668 119.777 278.54 117.5 281.48 114.821C282.711 108.123 276.761 101.229 276.2 93.3815C278.626 80.9707 285.879 106.445 287.191 110.093C293.24 105.156 300.709 98.6828 307.65 93.9684C311.761 90.6456 315.903 90.2646 319.053 85.2828C318.79 75.6031 322.298 69.4782 329.076 63.2491H329.078ZM292.367 4.62675C290.951 5.63968 291.439 11.5847 288.684 10.7209C282.32 6.43488 277.52 13.6508 280.602 18.7392C286.9 22.7412 287.678 23.9979 286.488 32.8706C284.661 72.8933 317.228 54.1422 311.669 45.6387C309.175 44.2376 305 45.1394 303.869 40.7208C304.616 33.9568 314.045 44.6163 316.457 39.438C317.763 37.1779 317.688 28.7147 322.26 29.0508C327.758 29.4152 358.557 43.6341 353.008 34.7757C336.628 18.5499 320.648 24.7955 326.541 10.6333C326.186 9.76005 326.939 8.83942 324.511 10.1458C312.893 14.4389 302.645 11.5256 292.367 4.62675ZM214.752 290.269C214.366 296.6 207.68 311.78 215.847 313.579C330.823 352.612 273.225 305.302 214.752 290.269ZM339.236 322.297C360.056 316.149 384.418 314.414 402.805 301.972C399.567 283.072 341.797 304.341 333.563 305.572C332.311 307.761 336.365 322.352 339.236 322.297ZM307.234 -33.8316C288.341 -51.7425 270.172 -34.5014 261.87 -17.6531C266.061 -15.2225 272.574 -10.1886 277.946 -9.49752C282.545 -15.8094 287.614 -23.3851 296.854 -23.8514C299.975 -26.6464 302.813 -30.7218 307.234 -33.8316ZM314.104 6.00652C320.916 6.46091 330.631 2.27901 329.786 -4.53699C327.1 -42.025 266.882 7.06678 314.104 6.00652ZM349.29 199.018C352.882 193.219 348.561 169.607 353.992 172.79C356.565 175.249 349.647 205.767 357.038 195.491C360.162 191.011 357.109 172.539 360.872 173.323C363.333 179.689 357.755 190.699 363.071 196.291C367.468 194.914 361.639 174.972 366.5 176.646C367.494 177.85 369.002 200.428 372.585 190.261C370.968 179.897 368.701 163.002 361.793 157.014C354.16 163.163 340.994 158.955 343.546 172.476C344.142 175.602 340.673 182.195 343.3 182.555C346.334 179.327 343.605 172.357 347.006 169.576C350.454 177.249 346.071 189.504 349.29 199.018ZM340.857 104.396C337.712 112.618 334.079 125.206 333.736 135.087C342.294 150.364 336.671 162.756 355.602 150.996C352.75 135.742 346.982 118.899 340.857 104.396ZM327.831 70.5858C314.691 84.7219 328.811 88.9274 334.801 98.2119C342.085 114.542 366.15 69.064 345.053 94.1507C344.798 94.2335 342.204 98.0699 341.915 95.1376C344.166 90.1747 354.011 86.0874 353.18 79.0324C351.824 76.8456 338.192 98.9148 339.761 90.0397C342.855 88.7925 360.96 65.4809 348.267 77.0326C344.653 79.6383 341.02 88.2103 337.383 86.53C338.185 80.1589 348.653 76.9639 349.235 70.0201C339.335 77.1225 320.606 95.831 327.831 70.5881V70.5858ZM287.967 160.228C293.145 161.792 314.424 165.804 315.735 161.975C318.776 149.592 326.562 135.903 327.926 123.244C317.827 139.43 306.564 153.779 287.967 160.228ZM330.271 78.907C335.579 74.9144 342.758 72.0223 346.556 66.6429C348.875 54.1303 349.119 51.8583 335.752 52.0548C333.102 60.5653 331.627 68.9196 330.271 78.9093V78.907ZM310.294 -30.9608C298.316 -21.2102 300.366 -19.3665 314.055 -25.7068C312.994 -27.7564 311.989 -29.3562 310.294 -30.9608Z" fill="black"/>
</g>
<path d="M316.232 17.4778C316.237 12.7634 322.518 13.1847 321.666 18.4482C320.518 21.9863 316.623 22.4597 316.232 17.4778Z" fill="black"/>
<path d="M340.097 55.9526C339.939 59.5002 333.27 60.4161 336.147 54.5373C337.615 52.5328 339.402 52.5328 340.097 55.9526Z" fill="black"/>
<mask id="mask2_190_87" style="mask-type:luminance" maskUnits="userSpaceOnUse" x="524" y="-6" width="221" height="390">
<path d="M524.184 -5.19971H744.568V383.719H524.184V-5.19971Z" fill="white"/>
</mask>
<g mask="url(#mask2_190_87)">
<path d="M742.944 321.601C725.123 290.347 710.49 260.939 692.672 228.428C683.267 209.007 666.229 191.941 663.368 170.923C663.117 165.901 673.715 180.522 675.944 183.367C676.401 189.948 685.165 218.803 689.472 200.343C692.03 206.238 701.329 223.153 702.422 210.555C707.309 211.748 707.646 210.676 707.854 205.396C716.071 207.04 710.542 197.529 711.316 194.864C719.796 202.96 723.379 196.741 718.994 189.489C712.062 177.549 702.652 170.466 695.476 159.068C675.864 124.6 654.507 91.9305 630.708 61.6396C637.708 55.2046 639.128 48.8099 634.809 41.433C653.099 18.2704 609.547 -32.0142 580.714 12.7348C574.324 24.0569 563.395 5.9164 557.821 23.9741C554.953 32.0586 565.74 34.333 567.172 38.3894C563.156 49.5506 566.081 57.4411 572.099 66.3232C568.618 76.4289 567.425 86.6079 567.683 96.8177C569.974 133.996 576.305 117.576 554.387 175.285C553.064 181.992 547.938 184.839 551.292 189.88C547.368 196.23 521.126 227.195 546.345 213.369C543.889 218.734 529.807 234.449 541.236 233.644C543.432 233.209 542.069 234.551 542.862 235.474C544.462 237.831 547.621 235.904 548.383 236.108C548.927 241.262 552.319 238.422 554.676 238.586C561.674 258.068 582.738 206.394 583.033 196.819C592.313 210.872 566.803 273.402 556.359 346.279C545.498 349.594 521.358 352.484 524.456 369.964C530.219 382.907 564.216 374.728 585.715 374.198C594.552 372.063 585.526 384.737 596.263 383.452C629.671 385.676 617.58 374.044 620.973 348.03C626.649 314.821 629.179 281.498 633.207 248.708C653.529 275.821 670.205 305.487 688.807 333.26C662.267 375.767 691.469 377.232 720.473 335.83C723.616 344.295 729.582 337.228 735.224 335.266C743.404 332.204 746.883 329.823 742.944 321.601Z" fill="#FFA0C1"/>
<path d="M583.034 196.819C582.74 206.397 561.677 258.068 554.676 238.586C552.319 238.422 548.928 241.262 548.383 236.108C547.624 235.907 544.462 237.833 542.864 235.474C542.069 234.553 543.432 233.209 541.236 233.644C529.81 234.449 543.889 218.734 546.346 213.369C521.126 227.195 547.368 196.232 551.292 189.88C547.938 184.839 553.065 181.992 554.388 175.285C576.305 117.576 569.974 133.998 567.683 96.8177C567.425 86.6079 568.618 76.4289 572.1 66.3232C566.081 57.4411 563.156 49.5506 567.172 38.3894C565.74 34.3353 554.953 32.0586 557.822 23.9764C563.395 5.91877 574.324 24.0569 580.714 12.7348C609.547 -32.0142 653.099 18.2704 634.809 41.433C639.126 48.8122 637.708 55.207 630.705 61.6396C654.507 91.9305 675.861 124.6 695.476 159.068C702.652 170.466 712.062 177.549 718.992 189.492C723.379 196.743 719.796 202.963 711.316 194.864C710.543 197.529 716.071 207.043 707.854 205.396C707.646 210.676 707.31 211.75 702.423 210.555C701.329 223.153 692.031 206.238 689.472 200.343C685.165 218.803 676.401 189.951 675.944 183.367C673.715 180.522 663.117 165.901 663.365 170.925C666.229 191.941 683.267 209.01 692.672 228.428C710.488 260.939 725.121 290.347 742.945 321.601C746.883 329.823 743.404 332.204 735.225 335.266C729.58 337.231 723.616 344.298 720.471 335.83C691.47 377.232 662.265 375.767 688.807 333.26C670.205 305.487 653.53 275.821 633.207 248.71C629.179 281.501 626.647 314.821 620.974 348.03C617.58 374.044 629.669 385.676 596.263 383.452C585.526 384.737 594.552 372.063 585.713 374.201C564.216 374.728 530.219 382.907 524.454 369.964C521.358 352.484 545.496 349.594 556.359 346.279C566.803 273.402 592.313 210.872 583.034 196.819ZM726.463 304.841C714.949 289.713 708.138 271.409 699.022 254.279C651.615 170.028 670.499 191.399 638.906 197.971C618.176 206.875 588.792 205.923 589.286 215.435C580.459 259.33 568.623 300.744 561.911 344.92C559.074 353.665 611.064 355.665 613.455 356.273C619.85 333.617 621.572 305.387 624.427 280.289C625.688 268.337 627.044 258.837 628.549 246.469C629.953 242.661 625.534 236.359 630.772 235.414C652.945 263.126 671.365 293.346 690.457 323.871C693.455 332.642 720.651 304.77 726.463 304.841ZM575.325 119.017C606.232 54.9088 634.492 86.9534 618.354 121.426C609.105 145.181 596.58 167.193 586.425 190.209C591.424 209.365 592.37 201.197 606.885 199.141C664.996 182.801 659.647 185.083 656.762 169.455C651.25 144.809 642.061 31.8669 607.503 73.0374C594.822 82.4852 574.152 112.412 573.238 85.4246C572.779 96.7065 573.231 107.761 575.325 119.017ZM617.928 101.847C603.131 48.1117 560.105 171.893 555.95 184.631C554.551 186.772 577.664 197.692 577.628 195.399C591.639 164.041 610.272 135.283 617.93 101.847H617.928ZM593.956 5.3058C586.868 9.68177 584.326 18.2112 576.994 23.967C572.907 24.0451 558.016 16.8788 563.918 28.1394C569.43 32.2834 575.434 29.673 571.811 40.3112C571.929 40.9218 572.483 41.2413 573.955 42.001C576.073 42.072 582.885 48.0975 575.723 47.9531C573.588 47.6762 569.946 43.8919 570.419 49.1743C573.068 70.827 602.897 67.419 614.51 55.3821C620.396 57.9902 626.476 62.3472 631.186 53.2474C637.971 40.988 597.177 45.267 593.956 5.3058ZM649.868 95.0924C661.768 147.334 654.015 153.594 673.085 172.662C675.724 176.648 676.661 173.604 680.162 170.636C683.482 166.954 688.339 165.198 690.902 160.829C678.11 138.199 665.749 116.014 649.868 95.0924ZM616.3 361.572C586.146 364.876 552.414 346.423 536.311 358.483C532.941 360.966 525.947 365.155 530.181 368.935C550.691 374.513 571.281 366.104 592.936 367.908C597.816 368.752 593.648 374.851 596.012 377.04C614.449 376.295 614.323 380.872 616.3 361.572ZM731.249 312.253C680.114 337.619 671.84 369.64 693.581 357.146C705.435 350.16 709.352 339.621 719.153 329.312C722.8 326.131 723.583 333.806 727.41 332.585C744.637 325.497 738.233 324.78 731.249 312.253ZM634.161 29.0103C633.943 19.0869 625.7 9.3528 617.303 4.27157C573.24 -18.8366 628.774 68.5999 634.161 29.0103ZM547.086 232.222C554.906 228.804 558.993 219.174 564.917 212.141C575.501 208.283 553.836 230.392 554.066 233.883C560.42 230.127 563.371 221.536 568.95 215.856C576.031 215.942 557.348 234.719 558.697 238.782C569.271 232.006 573.345 218.015 577.552 205.77C577.318 201.576 571.331 201.82 566.436 198.258C562.384 196.767 559.126 192.954 554.496 192.772C549.72 198.769 543.837 205.152 540.793 212.432C546.677 210.766 550.175 201.2 556.013 200.409C558.172 211.102 542.464 219.442 541.312 229.474C549.105 225.448 553.472 215.776 559.746 208.451C571.591 202.227 547.687 228.821 547.086 232.222ZM685.108 200.795C685.134 195.903 684.211 189.402 682.85 184.015C685.858 180.032 694.792 213.128 700.24 211.36C697.067 201.394 692.4 192.268 687.922 182.931C696.111 184.945 695.455 202.13 704.164 206.12C702.808 196.559 696.447 189.17 692.343 179.784C695.559 172.764 704.058 197.027 707.769 199.309C707.603 193.101 702.188 186.846 698.118 181.017C696.851 171.195 712.687 194.556 717.259 194.265C713.872 186.432 697.431 164.646 694.492 167.041C675.89 181.556 676.941 180.756 685.108 200.795ZM579.171 89.9402C587.705 84.3122 594.249 77.5057 601.238 71.0139C592.931 73.3238 585.102 71.4754 576.989 68.6496C577.588 75.9058 578.033 82.613 579.171 89.9425V89.9402Z" fill="black"/>
</g>
<path d="M588.449 28.085C581.278 29.3535 581.95 14.3891 587.94 17.6622C586.113 25.1243 587.684 24.5019 594.992 21.011C596.834 23.5954 591.518 27.6874 588.449 28.085Z" fill="black"/>
<path d="M656.216 551.755C621.298 563.217 586.375 581.061 549.95 589.816C550.8 602.494 567.743 589.044 574.523 588.414C601.482 579.696 655.562 563.378 655.979 548.969C655.404 549.98 655.622 550.884 656.216 551.755Z" fill="white"/>
<path d="M569.155 336.57C474.614 376.179 443.8 343.429 450.174 371.609C464.037 427.252 494.198 476.755 523.36 525.161C531.185 535.661 535.026 547.708 541.95 558.531C558.183 556.973 573.491 547.618 588.553 541.133C592.05 539.226 594.036 539.282 590.522 534.45C582.255 519.71 575.07 506.445 567.137 490.981C535.937 417.588 509.352 383.198 520.49 384.943C533.7 397.088 540.024 420.059 550.776 434.837C560.145 403.365 573.96 371.14 569.158 336.57H569.155Z" fill="#77A1DD"/>
<path d="M522.506 164.88C496.655 206.822 470.693 156.746 477.97 185.979C489.387 283.659 438.324 296.039 444.122 309.836C450.481 326.966 448.074 353.927 455.939 352.872C483.084 355.766 578.631 335.536 572.045 322.529C570.159 301.967 561.847 301.676 552.667 290.356C524.383 258.148 509.752 260.565 513.413 231.646C514.843 226.499 515.778 221.574 519.59 216.696C521.723 214.117 527.412 213.534 527.866 210.839C525.755 194.816 527.206 168.729 522.506 164.88Z" fill="#2D881A"/>
<path d="M449.864 191.273C405.408 234.896 397.271 304.585 382.532 363.157C388.136 367.848 404.125 364.826 412.224 365.519C420.119 366.442 418.209 353.026 421.038 347.582C425.832 329.716 431.179 310.113 436.063 291.795C441.938 259.441 459.311 226.023 449.864 191.273Z" fill="#2D881A"/>
<path d="M566.718 296.117C568.211 294.366 570.057 293.748 571.254 296.501C571.737 300.846 575.63 304.126 580.522 306.535C624.895 328.382 597.908 247.901 589.767 232.776C581.699 210.827 567.671 188.711 546.987 178.267C547.389 185.371 548.925 194.93 549.618 203.185C548.369 214.595 557.206 219.461 558.908 230.665C556.124 247.513 592.718 259.226 585.305 270.394C558.427 253.174 560.803 230.731 547.136 254.637C544.014 259.621 538.28 263.384 537.747 268.28C548.234 276.867 556.882 286.416 566.718 296.117Z" fill="#2D881A"/>
<path d="M474.95 454.007C411.176 520.385 404.005 501.042 435.096 525.275C442.231 528.56 449.961 536.32 457.704 538.154C473.159 527.452 483.88 512.443 499.429 500.579C492.89 485.877 482.585 469.268 474.95 454.007Z" fill="#77A1DD"/>
<path d="M502.086 107.054C495.109 117.976 489.356 112.708 482.99 106.744C479.269 112.568 473.724 118.582 469.396 123.457C472.16 142.779 473.824 175.488 495.315 174.265C526.025 174.026 522.068 134.32 517.867 113.6C511.617 113.394 507.288 112.071 502.086 107.054Z" fill="#703D22"/>
<path d="M441.287 296.699C472.446 268.358 479.224 219.366 472.205 177.878C467.874 176.271 459.557 183.643 454.457 186.462C452.384 189.375 454.916 191.505 455.555 196.13C464.198 231.185 446.103 262.543 441.287 296.696V296.699Z" fill="#FF5C33"/>
<path d="M543.986 567.711C545.836 571.429 546.161 584.526 549.803 584.01C586.498 574.534 615.833 556.455 650.798 547.519C659.915 540.885 629.65 544.035 625.619 544.619C614.569 546.099 607.067 548.816 595.726 548.113C578.681 556.024 562.884 564.185 543.983 567.711H543.986Z" fill="#FF5C33"/>
<path d="M480.453 587.337C470.95 554.777 438.13 539.327 413.635 518.236C409.715 516.692 406.187 526.299 403.387 530.388C424.455 550.808 454.791 568.868 480.453 587.335V587.337Z" fill="#FF5C33"/>
<path d="M414.172 374.061C404.156 373.879 391.132 372.485 380.911 372.461C377.586 379.639 374.331 388.081 370.417 395.496C375.872 404.361 366.384 417.181 367.664 427.746C372.048 421.946 372.249 391.439 378.617 395.202C382.638 405.845 373.662 419.981 375.209 431.663C381.069 422.102 382.111 390.547 388.38 393.366C392.448 403.751 379.318 425.051 382.565 433.919C387.445 429.105 388.359 421.463 390.676 413.766C393.688 403.76 401.801 368.187 403.908 393.82C404.317 400.118 400.097 409.099 404.388 415.099C412.972 406.543 409.879 385.944 414.172 374.061Z" fill="#703D22"/>
<path d="M532.91 217.326C532.006 225.723 543.553 238.759 547.683 226.855C542.791 208.589 546.09 172.305 536.039 171.413C521.775 160.687 537.201 212.477 532.91 217.326Z" fill="#FF5C33"/>
<path d="M528.316 217.458C521.82 224.885 534.124 233.102 534.694 241.75C530.517 245.844 522.709 224.999 522.267 221.03C513.65 229.715 531.021 237.599 530.039 247.193C524.771 247.525 521.713 235.258 517.29 232.243C515.444 246.003 528.711 246.628 528.226 255.436C524.399 255.77 519.893 249.068 516.452 244.959C516.963 251.013 532.205 267.147 534.486 262.229C543.763 248.038 560.119 236.941 552.037 223.863C550.79 247.101 529.689 235.317 528.316 217.458Z" fill="#703D22"/>
<path d="M401.231 535.785C397.106 541.259 402.656 541.876 406.89 546.184C415.189 553.192 421.305 558.479 430.258 565.567C447.012 576.749 468.688 602.29 479.986 592.691C452.701 574.839 427.229 555.142 401.231 535.785Z" fill="white"/>
<path d="M463.742 126.176C451.823 123.968 457.827 152.233 465.872 148.589C469.256 144.04 463.242 132.822 463.742 126.176Z" fill="#703D22"/>
<path d="M532.15 124.262C534.926 117.463 522.738 103.703 525.336 119.157C526.487 126.155 526.674 132.33 526.595 139.835C530.349 144.483 532.325 127.183 532.15 124.262Z" fill="#703D22"/>
<path d="M366.199 404.051C363.369 412.292 357.982 419.507 357.374 428.482C360.304 435.669 367.03 406.758 366.199 404.051Z" fill="#703D22"/>
<mask id="mask3_190_87" style="mask-type:luminance" maskUnits="userSpaceOnUse" x="353" y="81" width="310" height="523">
<path d="M353.216 81.7046H662.776V603.803H353.216V81.7046Z" fill="white"/>
</mask>
<g mask="url(#mask3_190_87)">
<path d="M438.619 307.295C430.84 332.962 423.371 360.145 416.46 386.247C416.089 417.182 399.252 436.338 397.946 406.762C392.905 416.193 392.181 439.651 380.851 439.604C378.53 437.384 375.898 436.859 372.84 437.607C371.624 437.367 371.595 435.339 370.346 433.07C367.873 434.385 364.439 438.556 362.029 433.325C336.775 445.582 373.721 380.385 374.753 375.202C392.261 295.069 407.048 199.69 473.916 167.728C470.543 163.452 471.365 155.493 467.381 152.956C455.335 159.845 452.611 139.319 452.566 130.664C451.918 121.91 459.373 121.981 463.462 118.968C460.743 91.0129 492.449 70.4726 512.511 88.4805C519.107 93.4671 520.12 102.581 524.406 107.587C541.643 104.926 537.66 133.878 533.355 143.238C532.171 147.882 527.72 145.086 525.983 148.781C524.347 160.662 522.823 158.621 534.266 162.59C568.159 175.335 588.676 205.238 599.077 238.74C612.704 270.257 626.769 335.845 575.079 312.535C576.172 321.384 582.586 328.418 574.139 334.798C577.765 364.981 573.465 393.951 561.426 421.747C553.753 443.398 550.134 437.637 558.86 455.16C572.48 484.493 586.101 514.85 602.776 540.774C621.771 538.268 660.206 525.284 662.776 549.439C659.612 578.066 564.827 598.746 552.255 603.801C537.664 595.929 544.582 573.377 534.649 560.777C497.758 490.267 505.286 506.197 490.525 517.127C463.647 547.389 452.637 541.617 464.963 552.525C480.836 565.551 503.535 609.746 467.682 600.424C447.206 588.6 385.22 540.902 393.96 535.589C406.703 504.571 432.329 487.084 456.163 465.647C461.467 459.148 470.967 454.947 472.143 447.4C459.335 415.914 438.421 383.37 446.006 347.609C444.306 333.575 441.592 321.282 438.619 307.295ZM656.215 551.756C621.298 563.217 586.375 581.062 549.95 589.816C550.799 602.495 567.742 589.045 574.523 588.415C601.482 579.696 655.562 563.378 655.979 548.97C655.404 549.981 655.621 550.885 656.215 551.756ZM569.155 336.571C474.614 376.18 443.8 343.43 450.173 371.61C464.037 427.252 494.198 476.756 523.36 525.161C531.184 535.662 535.026 547.709 541.95 558.531C558.183 556.974 573.491 547.619 588.552 541.134C592.05 539.226 594.036 539.283 590.522 534.451C582.255 519.711 575.07 506.446 567.137 490.982C535.937 417.589 509.352 383.199 520.49 384.943C533.7 397.089 540.024 420.06 550.776 434.838C560.145 403.366 573.96 371.141 569.158 336.571H569.155ZM522.506 164.881C496.655 206.823 470.692 156.747 477.97 185.98C489.387 283.66 438.324 296.04 444.122 309.837C450.481 326.967 448.074 353.928 455.939 352.873C483.084 355.767 578.631 335.537 572.045 322.53C570.159 301.968 561.847 301.677 552.667 290.357C524.383 258.149 509.752 260.566 513.413 231.647C514.843 226.5 515.777 221.575 519.59 216.697C521.723 214.117 527.412 213.535 527.866 210.84C525.755 194.817 527.206 168.729 522.506 164.881ZM449.863 191.274C405.408 234.897 397.271 304.586 382.532 363.158C388.136 367.849 404.125 364.827 412.224 365.52C420.119 366.443 418.209 353.027 421.037 347.583C425.832 329.717 431.179 310.114 436.063 291.796C441.937 259.441 459.311 226.024 449.863 191.274ZM566.718 296.118C568.211 294.366 570.057 293.749 571.255 296.501C571.737 300.846 575.63 304.126 580.522 306.536C624.895 328.382 597.908 247.902 589.767 232.776C581.699 210.828 567.671 188.711 546.987 178.267C547.389 185.372 548.925 194.931 549.618 203.186C548.369 214.595 557.206 219.461 558.908 230.665C556.124 247.513 592.718 259.226 585.305 270.394C558.427 253.175 560.803 230.731 547.136 254.637C544.014 259.621 538.28 263.384 537.747 268.281C548.234 276.867 556.882 286.417 566.718 296.118ZM474.95 454.008C411.176 520.385 404.005 501.043 435.095 525.275C442.231 528.56 449.96 536.32 457.704 538.154C473.159 527.452 483.88 512.443 499.429 500.579C492.889 485.877 482.585 469.268 474.95 454.008ZM502.086 107.054C495.109 117.976 489.356 112.708 482.99 106.744C479.269 112.568 473.724 118.582 469.396 123.458C472.16 142.779 473.824 175.489 495.315 174.265C526.025 174.026 522.068 134.321 517.867 113.6C511.617 113.394 507.288 112.071 502.086 107.054ZM441.287 296.7C472.446 268.359 479.224 219.367 472.205 177.879C467.874 176.272 459.557 183.644 454.457 186.463C452.384 189.376 454.916 191.506 455.555 196.131C464.198 231.186 446.103 262.544 441.287 296.698V296.7ZM543.986 567.712C545.837 571.43 546.161 584.527 549.803 584.011C586.498 574.535 615.833 556.456 650.798 547.519C659.915 540.885 629.65 544.036 625.619 544.62C614.569 546.099 607.067 548.816 595.726 548.113C578.681 556.025 562.884 564.185 543.983 567.712H543.986ZM480.453 587.338C470.95 554.778 438.129 539.328 413.634 518.236C409.715 516.693 406.187 526.3 403.387 530.389C424.455 550.809 454.791 568.869 480.453 587.336V587.338ZM414.172 374.061C404.156 373.879 391.132 372.485 380.911 372.462C377.585 379.64 374.331 388.082 370.417 395.496C375.872 404.362 366.384 417.182 367.664 427.747C372.047 421.946 372.249 391.44 378.617 395.203C382.638 405.846 373.661 419.982 375.209 431.664C381.069 422.102 382.11 390.548 388.38 393.366C392.448 403.751 379.318 425.051 382.565 433.919C387.445 429.105 388.358 421.463 390.675 413.767C393.688 403.761 401.801 368.187 403.907 393.821C404.317 400.118 400.097 409.1 404.388 415.1C412.972 406.544 409.879 385.945 414.172 374.061ZM532.91 217.327C532.006 225.724 543.553 238.759 547.683 226.855C542.791 208.589 546.09 172.306 536.039 171.413C521.775 160.688 537.201 212.477 532.91 217.327ZM528.316 217.459C521.82 224.886 534.124 233.103 534.694 241.751C530.517 245.845 522.709 224.999 522.267 221.03C513.65 229.716 531.021 237.599 530.039 247.194C524.771 247.525 521.713 235.259 517.29 232.244C515.444 246.004 528.711 246.628 528.226 255.437C524.399 255.771 519.893 249.068 516.452 244.96C516.963 251.014 532.205 267.147 534.486 262.229C543.763 248.039 560.119 236.942 552.037 223.863C550.79 247.102 529.689 235.318 528.316 217.459ZM401.231 535.785C397.106 541.259 402.656 541.877 406.889 546.184C415.189 553.192 421.305 558.479 430.258 565.567C447.012 576.75 468.688 602.291 479.986 592.692C452.701 574.84 427.229 555.142 401.231 535.785ZM463.742 126.177C451.823 123.969 457.827 152.234 465.872 148.589C469.256 144.04 463.242 132.822 463.742 126.177ZM532.15 124.262C534.926 117.463 522.738 103.703 525.336 119.157C526.487 126.156 526.674 132.33 526.596 139.835C530.349 144.483 532.325 127.183 532.15 124.262ZM366.199 404.052C363.369 412.293 357.982 419.509 357.374 428.483C360.304 435.671 367.03 406.759 366.199 404.052Z" fill="black"/>
</g>
<path d="M489.259 132.547C488.828 131.026 489.463 121.249 492.523 128.517C494.331 133.025 491.249 143.626 496.939 145.512C499.658 143.436 493.805 121.315 500.316 129.016C506.914 154.174 489.96 161.201 489.259 132.547Z" fill="black"/>
<path d="M497.611 162.221C493.147 163.108 481.373 153.481 488.327 150.236C491.207 154.375 494.591 159.468 500.922 156.103C504.922 153.62 504.782 151.999 505.968 146.972C515.283 145.195 504.221 164.379 497.611 162.221Z" fill="black"/>
<path d="M479.762 137.988C476.07 139.394 467.029 126.761 473.975 126.254C475.98 129.468 479.655 136.388 483.487 129.153C487.924 110.307 492.317 138.894 479.762 137.988Z" fill="black"/>
<path d="M508.176 130.971C497.024 130.98 498.108 111.394 503.184 122.269C503.823 123.892 505.719 125.679 508.419 125.383C509.527 125.192 511.011 124.562 511.198 122.425C513.47 113.559 519.245 130.64 508.176 130.971Z" fill="black"/>
<mask id="mask4_190_87" style="mask-type:luminance" maskUnits="userSpaceOnUse" x="766" y="107" width="280" height="462">
<path d="M766.152 107.264H1045.04V568.587H766.152V107.264Z" fill="white"/>
</mask>
<g mask="url(#mask4_190_87)">
<path d="M1033.03 486.482C1027.56 481.219 1027.5 475.117 1026.77 469.93C996.684 429.072 969.581 388.232 938.826 347.171C935.837 342.468 933.504 337.789 930.967 333.962C935.298 328.746 933.551 324.006 932.595 318.099C921.2 255.387 938.77 306.677 963.773 246.382C968.857 226.925 948.449 212.268 942.398 195.217C926.783 160.68 908.756 99.0755 848.827 108.171C828.694 111.302 823.62 131.896 822.28 149.358C818.557 158.855 811.306 164.433 808.246 174.153C803.997 193.56 821.733 186.41 828.421 176.548C832.49 184.041 835.086 195.451 841.509 202.534C837.531 215.16 837.427 226.504 825.847 234.087C822.23 239.741 820.881 236.205 817.057 238.425C808.378 248.112 795.279 257.765 797.828 271.92C799.401 280.57 803.858 288.395 811.337 292.198C812.153 301.246 817.961 305.106 823.792 311.051C869.684 371.304 867.187 285.609 800.481 498.098C798.864 506.611 788.437 517.211 800.488 518.733C749.99 519.407 754.548 555.828 818.429 547.857C829.072 543.552 808.792 568.421 826.578 568.587C842.541 562.819 840.813 539.853 855.671 534.055C852.805 525.909 857.804 520.643 860.655 512.75C871.234 476.845 886.32 442.458 901.656 408.901C926.094 434.489 946.842 462.203 970.959 488.087C977.548 492.737 983.519 507.744 990.081 496.931C992.339 507.25 966.855 549.897 978.423 561.709C996.59 568.925 1016.5 532.855 1022.81 513.481C1023.42 510.653 1024.41 510.797 1025.17 512.104C1048.9 537.463 1051.19 504.22 1033.03 486.482Z" fill="#77A1DD"/>
<path d="M901.655 408.901C886.319 442.458 871.234 476.846 860.655 512.75C857.804 520.643 852.805 525.909 855.671 534.055C840.813 539.853 842.541 562.82 826.578 568.587C808.795 568.421 829.072 543.553 818.429 547.858C754.548 555.828 749.99 519.408 800.488 518.733C788.437 517.212 798.864 506.611 800.48 498.098C867.187 285.61 869.684 371.304 823.79 311.051C817.961 305.109 812.153 301.246 811.334 292.198C803.858 288.395 799.399 280.571 797.827 271.921C795.276 257.766 808.376 248.112 817.057 238.425C820.879 236.205 822.23 239.741 825.844 234.087C837.427 226.504 837.531 215.161 841.509 202.535C835.084 195.451 832.487 184.042 828.421 176.549C821.733 186.411 803.997 193.56 808.243 174.154C811.303 164.434 818.555 158.856 822.28 149.358C823.617 131.895 828.691 111.302 848.824 108.169C908.755 99.0759 926.782 160.68 942.398 195.217C948.447 212.267 968.855 226.926 963.771 246.382C938.767 306.678 921.197 255.387 932.595 318.097C933.549 324.006 935.295 328.747 930.967 333.961C933.504 337.79 935.835 342.469 938.826 347.171C969.581 388.233 996.682 429.07 1026.77 469.928C1027.5 475.118 1027.56 481.217 1033.03 486.483C1051.19 504.221 1048.9 537.463 1025.17 512.104C1024.41 510.798 1023.42 510.654 1022.81 513.482C1016.5 532.855 996.59 568.926 978.423 561.71C966.855 549.898 992.339 507.25 990.081 496.932C983.516 507.745 977.545 492.738 970.959 488.087C946.842 462.203 926.094 434.489 901.653 408.901H901.655ZM856.244 231.863C866.537 230.594 858.461 255.849 859.846 262.776C858.601 271.329 860.329 320.622 851.809 302.228C850.157 290.135 838.676 278.798 833.545 267.32C830.566 261.169 816.269 296.404 818.025 295.689C833.789 310.221 852.408 341.437 872.096 334.164C893.415 320.639 891.36 292.56 893.883 270.673C894.158 260.528 896.295 251.823 895.786 241.928C886.194 224.758 863.06 228.881 847.059 234.317C832.201 237.706 843.606 279.556 851.728 285.37C853.309 267.325 853.828 249.511 856.244 231.863ZM1019.82 471.253C993.328 435.611 968.071 397.243 940.729 361.21C929.142 348.52 927.623 328.986 918.109 333.104C879.932 343.15 894.395 325.831 875.842 341.735C871.036 345.051 864.861 342.402 860.333 343.659C854.097 360.368 849.355 376.923 842.505 393.75C828.085 428.963 817.232 463.472 805.718 499.698C804.686 503.987 800.89 509.238 802.182 512.372C812.52 515.271 820.538 519.907 830.315 524.489C836.759 525.632 844.018 531.135 848.654 527.251C854.097 512.909 860.733 498.943 864.262 483.049C871.646 456.111 886.08 434.501 896.437 408.972C904.112 399.92 854.554 363.428 868.835 359.736C909.7 401.562 944.149 450.573 985.353 492.65C995.974 485.782 1009.31 480.625 1019.82 471.253ZM874.394 191.376C908.959 198.836 922.189 239.583 925.564 271.627C927.883 290.054 963.269 243.163 956.657 235.013C955.535 228.921 952.26 225.506 948.743 219.669C929.589 194.647 924.83 162.185 905.863 136.682C875.615 98.7825 821.201 116.367 844.607 128.203C857.311 139.766 871.291 142.885 887.453 146.218C900.808 152.906 895.081 169.458 882.043 171.666C878.888 176.781 878.947 185.078 874.394 191.376ZM834.326 126.437C826.393 134.41 831.474 148.385 826.367 157.499C811.358 173.981 806.863 191.816 827.808 166.431C828.914 165.582 829.948 163.887 832.416 165.728C834.908 168.838 833.069 177.867 836.92 179.957C839.897 179.441 841.119 176.752 844.953 177.924C849.48 182.624 841.078 182.934 838.442 186.193C848.443 212.872 876.817 185.429 874.756 166.502C874.924 161.599 879.17 164.443 883.214 163.617C886.466 161.989 891.119 159.244 888.4 154.832C884.634 150.281 878.214 152.087 872.16 150.165C858.225 146.27 845.272 136.853 834.326 126.437ZM843.275 220.682C864.061 212.927 882.916 213.421 899.791 227.638C918.146 244.122 914.677 269.175 919.645 292.468C921.022 298.285 901.947 300.898 898.179 298.844C897.017 322.298 881.305 330.129 894.579 329.353C938.291 325.938 924.657 327.291 922.04 293.708C917.827 272.25 917.654 252.393 908.803 232.123C897.814 211.796 880.897 186.747 857.52 204.225C842.953 204.445 846.025 209.836 843.275 220.68V220.682ZM994.805 494.411C1002.55 503.35 967.846 568.022 987.085 553.805C1019.08 535.38 1013.86 487.81 1027.85 505.882C1030.05 507.541 1035.67 518.011 1039.21 512.074C1039.42 498.948 1026.94 491.204 1021.96 479.238C1013.22 485.157 1004.88 491.039 994.805 494.411ZM844.261 535.627C832.861 533.859 820.957 524.411 811.639 525.71C737.728 525.114 784.065 548.092 821.141 540.313C837.445 532.744 825.588 550.951 825.342 559.835C828.914 568.542 841.992 537.702 844.259 535.627H844.261ZM823.458 253.049C830.45 227.217 868.638 218.152 889.06 228.899C898.141 235.562 905.075 245.904 907.399 257.406C909.025 260.873 906.171 266.875 911.117 268.792C915.825 246.238 895.265 219.674 869.895 219.991C854.18 217.189 813.97 239.251 823.458 253.049ZM817.629 243.814C812.229 248.275 817.371 255.335 817.551 261.872C813.873 267.334 811.822 255.257 811.495 250.618C807.105 256.062 811.187 262.34 812.953 268.574C809.124 274.179 806.265 263.048 804.98 259.193C802.092 262.459 813.944 276.983 805.247 274.294C803.467 272.295 803.013 270.29 801.278 267.346C801.631 276.034 811.966 297.791 817.506 279.612C820.507 270.943 831.238 261.545 828.123 254.216C825.193 267.526 815.225 251.922 817.627 243.814H817.629ZM898.633 295.121C919.687 290.766 914.741 291.708 912.533 274.285C894.984 269.734 900.782 283.153 898.633 295.121ZM902.205 255.12C901.743 258.932 900.723 264.828 900.789 269.71C907.702 271.329 903.698 259.46 902.205 255.12ZM833.659 257.188V244.261C827.91 248.507 833.403 251.305 833.659 257.188Z" fill="black"/>
</g>
<path d="M835.315 145.876C839.798 146.25 840.205 154.472 834.657 154.785C832.106 154.089 830.317 147.171 835.315 145.876Z" fill="black"/>
<mask id="mask5_190_87" style="mask-type:luminance" maskUnits="userSpaceOnUse" x="588" y="161" width="224" height="488">
<path d="M588.936 161.225H811.024V648.827H588.936V161.225Z" fill="white"/>
</mask>
<g mask="url(#mask5_190_87)">
<path d="M810.219 608.231C802.534 596.603 801.917 586.216 795.191 575.524C793.172 572.537 795.12 573.372 796.282 572.205C797.553 568.637 797.889 565.226 797.444 561.645C791.56 495.201 791.887 429.526 781.393 363.787C777.521 322.688 787.854 286.206 740.57 248.441C738.997 238.29 745.396 239.241 752.806 235.904C759.684 230.34 761.38 219.627 756.754 212.671C754.209 209.459 753.888 209.781 755.154 208.401C783.596 195.098 757.999 160.64 736.812 183.582C724.233 158.73 677.565 149.043 672.131 183.968C670.912 208.539 660.378 195.326 657.664 214.294C657.174 229.699 673.977 222.826 673.719 234.901C675.423 242.074 674.879 246.592 678.344 252.36C694.991 272.171 650.876 221.801 628.433 521.04C629.484 526.242 622.919 555.75 630.291 556.943C632.873 557.26 632.717 558.181 632.139 560.109C627.508 574.281 623.69 588.157 620.003 601.637C611.301 607.031 602.823 610.086 595.42 617.293C584.314 627.06 587.868 638.555 603.055 639.353C616.261 639.554 634.918 640.195 640.822 627.136C645.93 627.441 641.161 634.302 642.661 636.683C646.427 639.603 658.755 642.68 660.217 636.472C662.494 627.865 662.021 620.336 663.041 613.464C671.452 601.341 675.511 588.557 680.346 574.127C680.945 557.437 703.369 569.233 746.634 571.069C752.477 572.314 755.005 597.266 760.54 607.421C756.536 616.512 748.122 622.916 747.185 633.026C745.45 657.162 766.691 649.778 778.51 636.446C783.419 631.237 787.781 625.25 790.938 619.716C797.867 628.338 814.912 619.513 810.219 608.231Z" fill="#FFC73C"/>
<path d="M736.812 183.583C757.999 160.64 783.597 195.099 755.154 208.402C753.888 209.782 754.21 209.46 756.754 212.672C761.381 219.625 759.684 230.341 752.804 235.905C745.396 239.242 738.994 238.291 740.571 248.441C787.854 286.206 777.521 322.688 781.393 363.788C791.887 429.527 791.56 495.202 797.444 561.646C797.889 565.227 797.551 568.637 796.28 572.206C795.12 573.373 793.172 572.537 795.189 575.524C801.917 586.217 802.535 596.604 810.217 608.231C814.912 619.513 797.865 628.339 790.938 619.717C787.779 625.25 783.419 631.238 778.511 636.447C766.692 649.778 745.451 657.162 747.185 633.027C748.123 622.917 756.534 616.512 760.541 607.422C755.005 597.267 752.477 572.315 746.632 571.07C703.369 569.234 680.942 557.438 680.346 574.128C675.511 588.557 671.452 601.342 663.041 613.464C662.021 620.337 662.494 627.865 660.218 636.473C658.755 642.681 646.427 639.604 642.662 636.684C641.161 634.303 645.93 627.442 640.82 627.136C634.918 640.196 616.261 639.554 603.053 639.353C587.869 638.556 584.314 627.061 595.421 617.293C602.821 610.087 611.301 607.032 620.001 601.638C623.69 588.157 627.506 574.282 632.139 560.11C632.717 558.181 632.873 557.261 630.291 556.943C622.919 555.751 629.482 526.243 628.433 521.041C650.876 221.802 694.991 272.172 678.344 252.361C674.879 246.593 675.423 242.075 673.719 234.902C673.977 222.827 657.174 229.7 657.664 214.295C660.379 195.326 670.913 208.539 672.131 183.969C677.565 149.044 724.234 158.733 736.812 183.583ZM736.94 253.265C713.856 281.989 687.631 254.737 684.637 263.583C661.782 298.719 656.604 341.617 650.725 382.539C643.073 434.561 637.01 486.029 634.194 538.86C635.06 543.825 631.711 550.014 635.803 553.043C646.96 553.779 659.418 555.055 671.315 556.56C703.899 558.64 797.92 572.765 788.853 561.381C768.568 309.113 782.3 290.204 736.94 253.265ZM670.853 207.001C650.491 217.507 673.996 218.34 677.97 226.375C680.185 233.735 679.26 242.65 684.225 249.615C696.049 260.838 721.079 262.338 730.593 249.639C737.648 242.279 741.527 205.751 733.691 208.315C722.354 209.058 708.543 207.739 697.18 209.048C690.582 219.783 675.539 219.085 670.853 206.999V207.001ZM677.338 564.94C665.001 563.57 649.582 559.144 637.41 559.194C634.52 570.559 627.87 585.031 627.927 595.246C639.545 596.325 650.659 597.335 661.867 602.634C670.096 594.223 672.96 576.767 677.338 564.943V564.94ZM653.487 632.251C655.572 632.334 656.556 632.345 656.781 629.55C656.852 624.412 659.003 616.295 658.064 610.641C649.331 606.236 640.778 605.462 630.511 604.353C611.912 608.672 567.804 635.782 614.283 632.601C621.823 631.46 629.636 631.167 635.914 626.332C641.253 615.142 648.067 619.589 648.396 631.24C649.478 632.106 650.737 632.016 653.487 632.251ZM796.668 593.968C788.628 599.868 776.878 602.22 767.906 608.307C762.663 613.701 739.605 646.837 759.556 639.384C774.636 634.26 779.455 620.266 790.06 609.204C793.033 608.099 795.118 613.573 797.546 614.924C810.581 613.767 800.473 601.165 796.668 593.968ZM735.925 200.67C731.36 167.845 684.942 163.629 688.381 171.548C698.747 186.948 719.585 202.814 735.925 200.67ZM754.207 571.61C758.444 580.84 759.899 598.85 765.272 598.528C773.926 595.61 783.306 591.071 792.228 586.008C794.784 582.939 789.958 579.003 788.195 574.334C778.338 570.698 765.901 572.701 754.205 571.61H754.207ZM751.971 182.388C742.279 182.134 736.772 200.852 747.567 203.815C759.258 204.871 768.481 182.231 751.971 182.388ZM714.954 203.394C702.813 196.313 690.927 186.816 682.736 174.275C679.042 178.814 676.872 184.821 676.751 190.444C686.365 187.209 698.001 191.925 699.395 203.477C703.831 204.528 709.345 203.889 714.954 203.394ZM684.055 209.68C700.538 207.997 691.623 192.025 678.763 196.531C672.671 201.619 676.051 210.203 684.055 209.68ZM743.711 208.627C745.037 216.666 744.142 224.28 743.614 231.986C753.123 230.59 755.795 212.873 743.711 208.627Z" fill="black"/>
</g>
<path d="M676.197 444.964C665.259 441.601 672.15 431.128 673.17 422.604C677.847 399.384 683.406 379.1 688.355 355.913C692.504 335.148 696.385 315.117 702.228 294.73C715.872 261.37 742.665 277.281 746.239 303.051C744.331 353.937 716.293 401.233 703.672 447.155C722.664 471.747 691.578 490.357 734.713 488.671C741.285 494.792 733.868 512.596 735.57 520.759C733.89 529.179 738.869 544.362 725.533 541.976C689.512 536.443 654.391 539.221 650.491 531.475C650.867 518.101 647.79 474.869 662.722 483.55C671.601 476.064 668.118 469.187 668.823 460.378C669.502 454.632 673.014 450.315 676.197 444.962V444.964ZM690.016 436.903C702.986 440.008 704.342 417.466 709.589 409.305C722.333 371.391 755.481 299.646 728.73 285.183C703.478 265.933 699.211 349.58 694.591 359.596C676.034 442.917 670.939 435.975 690.016 436.903ZM683.832 510.123C675.53 509.704 662.364 507.096 655.853 510.047C656.308 514.958 653.236 525.961 656.883 528.062C730.614 532.848 729.48 539.56 729.206 526.15C728.766 522.652 730.955 518.449 728.628 515.441C719.017 514.352 708.294 514.239 697.954 512.653C696.385 513.349 696.563 517.94 694.025 518.158C689.084 517.583 681.129 517.684 683.835 510.121L683.832 510.123ZM730.366 504.817C731.215 498.567 728.825 496.825 720.946 496.673C699.114 496.129 678.768 491.093 657.292 491.997C657.415 494.749 653.177 506.412 659.205 505.503C666.712 505.136 676.898 506.495 684.436 505.551C686.168 503.241 686.989 500.564 689.207 500.879C691.893 500.794 696.899 501.428 697.885 503.544C698.64 505.125 696.986 508.168 699.019 509.098C709.037 509.387 734.121 517.538 730.366 504.815V504.817ZM692.684 484.303C697.978 480.478 697.268 471.828 700.266 465.36C706.713 463.604 696.977 480.885 700.143 485.228C720.082 460.667 686.869 428.766 674.401 454.873C671.407 459.554 670.55 477.065 677.307 468.474C676.827 461.935 682.374 461.258 680.585 471.002C681.253 474.325 675.113 483.266 679.381 483.112C684.308 478.424 683.728 471.534 686.426 464.498C692.274 459.992 685.827 476.49 684.852 479.662C683.276 492.813 694.149 469.875 694.248 466.564C699.578 466.051 690.684 480.05 692.684 484.303ZM691.327 512.39C695.654 512.331 693.396 503.513 688.379 506.698C687.851 509.605 685.957 512.44 691.327 512.39ZM667.415 484.492C672.976 486.063 674.155 484.225 674.926 477.674C671.776 479.25 669.646 481.373 667.415 484.492ZM706.472 487.185C705.667 487.618 706.02 487.692 706.472 487.185C703.89 485.775 706.884 486.468 706.472 487.185Z" fill="black"/>
<mask id="mask6_190_87" style="mask-type:luminance" maskUnits="userSpaceOnUse" x="40" y="249" width="298" height="464">
<path d="M40.816 249.832H337.312V712.762H40.816V249.832Z" fill="white"/>
</mask>
<g mask="url(#mask6_190_87)">
<path d="M266.565 593.314C275.523 623.797 357.75 627.458 332.524 546.262C312.443 508.516 290.627 474.394 276.545 434.061C262.911 405.367 260.523 370.073 233.863 349.644C231.186 347.642 228.658 345.358 229.671 343.292C231.986 339.004 230.942 334.64 233.851 331.972C249.468 324.437 255.932 308.855 236.317 300.962C236.094 295.497 242.534 299.17 244.823 296.011C253.993 290.165 249.7 278.064 240.494 273.878C229.73 262.331 219.326 248.649 202.22 249.915C184.915 251.378 174.923 258.878 174.899 278.045C157.448 287.822 148.93 302.569 160.03 323.587C162.756 330.484 172.632 326.522 174.296 330.254C177.867 346.707 158.569 326.344 126.274 384.489C105.114 424.287 90.6863 466.676 67.9592 505.274C62.1987 519.476 61.3633 532.318 56.062 546.336C47.0615 577.45 18.5811 642.086 74.6332 647.451C88.0617 646.436 98.5744 637.54 100.503 624.213C103.592 607.822 101.445 592.49 101.159 576.371C104.493 559.449 110.304 544.523 107.12 527.428C122.274 499.793 134.458 470.006 148.007 441.793C141.839 477.044 136.545 508.994 150.194 543.519C160.046 565.096 155.98 559.48 142.957 585.338C127.902 612.247 116.18 639.923 101.556 666.811C99.0761 672.474 92.5536 682.064 95.9214 687.474C114.109 695.509 128.783 704.635 147.283 710.012C154.712 711.846 197.442 718.941 185.734 699.225C183.545 691.701 161.428 684.239 164.399 679.458C175.446 662.903 180.366 644.32 188.548 626.847C191.802 622.85 198.398 640.82 202.215 644.32C216.699 664.863 227.11 687.791 240.577 708.313C249.539 712.241 262.024 701.546 273.871 699.369C283.638 695.362 316.864 688.366 318.483 671.383C312.637 657.157 288.615 667.206 276.164 663.074C261.07 637.687 248.728 610.03 235.761 581.989C213.204 541.957 238.57 572.44 240.212 490.676C239.538 483.912 240.671 485.422 243.029 481.385C242.712 472.588 243.097 464.231 244.6 455.832C255.215 477.404 266.371 496.517 273.76 519.117C271.507 538.223 268.78 555.797 264.937 574.693C264.035 581.873 264.246 586.931 266.568 593.316L266.565 593.314ZM286.599 523.343C293.862 540.372 297.616 530.424 304.794 520.532C312.867 529.871 317.441 557.265 297.968 552.141C279.513 552.233 282.185 536.545 286.599 523.343ZM82.4456 568.173C63.8412 566.985 64.2909 544.634 71.7814 536.043C74.3847 547.49 84.7034 539.728 89.1906 533.875C90.381 543.614 97.3485 568.705 82.4456 568.173Z" fill="#FFA0C1"/>
<path d="M244.598 455.829C243.095 464.228 242.709 472.585 243.026 481.384C240.669 485.42 239.535 483.91 240.212 490.674C238.567 572.437 213.202 541.954 235.758 581.987C248.725 610.027 261.07 637.684 276.162 663.071C288.613 667.203 312.635 657.154 318.48 671.38C316.862 688.364 283.636 695.359 273.869 699.366C262.021 701.544 249.539 712.239 240.574 708.31C227.108 687.788 216.697 664.86 202.213 644.318C198.398 640.817 191.802 622.847 188.546 626.844C180.366 644.318 175.446 662.901 164.396 679.455C161.428 684.238 183.542 691.701 185.734 699.222C197.442 718.941 154.712 711.843 147.28 710.012C128.783 704.632 114.109 695.506 95.9214 687.471C92.5536 682.064 99.0761 672.471 101.556 666.81C116.18 639.92 127.9 612.245 142.957 585.338C155.98 559.477 160.044 565.093 150.194 543.516C136.545 508.994 141.839 477.042 148.005 441.79C134.458 470.003 122.272 499.79 107.118 527.426C110.304 544.522 104.493 559.449 101.159 576.368C101.445 592.488 103.592 607.821 100.503 624.21C98.5744 637.537 88.0617 646.436 74.6332 647.451C18.5811 642.086 47.0615 577.447 56.062 546.333C61.3657 532.315 62.2011 519.474 67.9616 505.271C90.6863 466.673 105.114 424.284 126.274 384.488C158.569 326.342 177.867 346.707 174.298 330.254C172.632 326.519 162.756 330.481 160.032 323.585C148.93 302.566 157.45 287.819 174.899 278.043C174.923 258.875 184.915 251.378 202.22 249.913C219.329 248.649 229.733 262.33 240.494 273.877C249.7 278.064 253.993 290.162 244.823 296.008C242.534 299.17 236.094 295.497 236.319 300.959C255.934 308.854 249.471 324.437 233.851 331.97C230.942 334.637 231.988 339.001 229.671 343.289C228.658 345.358 231.188 347.639 233.865 349.644C260.523 370.073 262.911 405.367 276.545 434.058C290.627 474.391 312.443 508.516 332.524 546.262C357.75 627.457 275.525 623.796 266.565 593.311C264.246 586.928 264.033 581.871 264.935 574.69C268.778 555.795 271.504 538.22 273.757 519.114C266.369 496.512 255.212 477.401 244.598 455.829ZM194.337 480.005C209.344 477.283 239.822 483.552 237.363 466.787C240.456 450.199 238.807 382.988 245.978 396.838C245.469 445.077 243.277 451.912 265.659 484.213C271.464 486.764 280.129 481.138 287.176 480.549C290.634 479.288 286.729 475.861 285.617 471.991C262.968 424.045 254.471 375.071 234.338 357.324C224.216 344.944 223.925 358.855 212.811 361.338C200.611 363.503 188.529 357.153 179.817 348.51C177.825 346.456 177.15 342.629 174.033 343.36C138.024 357.283 126.326 398.996 110.779 430.127C103.791 449.025 89.7893 467.234 86.6014 485.237C95.9403 486.409 114.424 494.853 118.902 490.993C134.948 463.256 142.057 427.105 163.149 403.578C166.715 405.646 165.558 408.018 162.621 412.81C154.705 424.596 155.994 437.509 153.24 451.392C151.798 461.504 148.336 470.055 148.345 480.542C162.328 485.533 179.105 478.722 194.337 480.005ZM221.639 551.412C231.221 531.264 234.471 508.348 234.698 485.495C215.154 489.265 193.965 488.288 173.368 489.526C165.89 492.851 147.108 482.809 147.337 493.85C143.676 551.386 202.322 631.765 217.346 657.258C224.618 665.097 225.335 680.932 234.648 677.517C246.858 673.29 269.706 668.171 268.432 663.014C253.956 634.437 239.526 607.156 226.372 577.426C218.971 560.178 209.379 544.551 202.98 526.763C204.279 523.641 215.147 521.793 216.877 525.653C217.277 529.38 208.643 527.629 209.517 529.489C211.403 533.702 220.252 549.94 221.639 551.412ZM110.547 663.402C125.569 668.656 143.364 674.033 159.902 675.522C171.219 659.907 174.765 640.389 184.487 623.254C189.282 617.614 180.108 610.268 178.217 604.169C170.867 590.469 166.162 579.083 159.107 565.28C142.384 597.917 125.401 630.065 110.547 663.405V663.402ZM65.2588 531.245C58.9848 557.96 45.9847 584.552 46.0723 613.044C45.2037 638.732 86.9257 652.563 94.8232 624.442C98.6407 609.296 95.3865 595.354 96.5391 579.393C98.0537 563.259 102.406 548.853 102.394 532.379C100.586 518.172 88.0569 522.56 95.2966 534.589C108.159 599.285 49.4187 575.639 65.3346 539.94C66.0091 536.767 68.8538 534.007 65.2565 531.245H65.2588ZM308.777 513.824C306.815 519.216 314.805 524.638 315.392 530.848C319.105 543.135 315.489 562.343 298.641 558.419C276.872 556.668 279.113 546.967 280.446 530.923C280.152 525.229 283.823 521.568 282.992 516.196C280.829 516.6 280.424 516.023 279.383 520.662C275.125 536.409 275.305 551.734 272.07 568.234C260.289 607.499 300.932 614.533 324.274 598.239C343.335 570.771 323.957 538.258 308.775 513.824H308.777ZM183.391 286.993C180.785 303.655 174.951 322.053 181.457 339.604C188.659 354.23 223.205 359.948 222.668 340.255C219.168 339.157 204.364 337.285 214.508 332.651C222.036 332.32 226.045 339.283 227.638 327.3C229.406 322.934 234.584 324.536 238.033 320.939C246.467 314.773 238.851 307.77 230.656 310.414C223.809 309.503 232.951 300.441 228.817 296.039C223.994 294.235 217.383 291.055 211.871 288.148C207.462 302.81 189.783 298.306 183.391 286.993ZM233.387 685.763C236.766 690.363 240.671 706.516 247.558 702.119C278.065 691.107 357.597 663.17 276.112 671.683C260.755 674.952 249.438 682.776 233.389 685.763H233.387ZM180.317 704.606C174.999 694.687 161.845 690.988 153.588 682.703C141.021 679.186 127.805 677.124 115.238 672.722C111.539 672.483 107.535 667.454 104.605 670.841C104.335 674.405 96.8302 683.382 105.019 684.605C129.777 693.885 152.627 709.971 180.317 704.606ZM77.6081 536.918C88.7314 540.132 102.401 486.43 106.42 512.189C105.904 514.501 101.003 528.294 107.26 519.84C110.131 513.68 115.827 506.01 114.031 499.745C103.459 496.656 93.6896 494.543 82.5781 491.895C74.6734 496.836 65.6233 514.359 67.261 523.726C67.6705 520.404 83.5934 488.042 79.9937 504.961C77.5135 511.19 70.2501 518.468 72.2571 526.64C74.8225 523.752 85.6926 499.433 88.0759 503.21C89.5124 513.396 73.9824 522.169 75.5183 532.554C81.693 525.544 88.554 515.895 90.5088 505.562C102.673 500.45 79.8375 534.755 77.6081 536.921V536.918ZM286.599 523.343C282.185 536.544 279.513 552.233 297.968 552.141C317.441 557.264 312.867 529.87 304.794 520.531C297.616 530.424 293.862 540.371 286.599 523.343ZM89.1906 533.875C84.7034 539.727 74.3847 547.49 71.7814 536.043C64.2932 544.634 63.8412 566.982 82.4456 568.17C97.3508 568.703 90.3834 543.611 89.1929 533.875H89.1906ZM213.041 272.053C162.865 276.199 202.819 302.098 206.416 285.834C207.301 282.532 202.937 275.615 208.916 275.151C243.848 306.414 262.158 280.088 213.041 272.053ZM304.219 512.596C305.258 503.65 299.327 494.971 294.854 486.544C287.591 486.205 277.315 490.939 268.115 492.714C270.558 499.48 272.569 506.89 275.861 514.508C277.464 511.891 277.57 510.665 275.44 507.046C270.939 498.801 273.885 495.031 280.64 503.842C285.69 510.698 288.852 519.698 293.337 527.255C294.657 514.57 277.561 502.545 282.827 497.104C287.778 500.973 289.78 509.332 294.229 515.05C294.624 508.852 288.734 502.815 287.023 495.911C291.42 488.939 298.48 517.592 300.823 518.162C300.834 511.486 296.07 504.495 293.668 497.232C293.169 485.838 303.277 509.631 304.216 512.596H304.219ZM177.496 285.962C151.692 287.571 160.785 327.97 171.792 319.687C173.633 308.62 176.166 297.904 177.496 285.962ZM178.038 279.991C192.661 267.201 210.108 266.42 228.149 267.686C214.704 256.485 182.205 267.026 178.038 279.991ZM179.514 270.564C189.381 262.491 200.81 258.885 213.54 257.933C202.93 253.141 181.552 255.926 179.514 270.564ZM102.207 510.338C101.012 511.985 99.1495 514.546 98.972 517.251C101.05 520.486 102.827 513.275 102.207 510.338Z" fill="black"/>
</g>
<path d="M217.066 308.206C216.669 302.836 225.548 303.184 222.308 309.991C221.227 311.631 216.517 313.008 217.066 308.206Z" fill="black"/>
</g>
</g>
<defs>
<linearGradient id="paint0_linear_190_87" x1="921.464" y1="-53.7515" x2="536.637" y2="786.822" gradientUnits="userSpaceOnUse">
<stop stop-color="white"/>
<stop offset="0.58275" stop-color="white" stop-opacity="0.2"/>
<stop offset="1" stop-color="white" stop-opacity="0"/>
</linearGradient>
<clipPath id="clip0_190_87">
<rect width="972" height="729" fill="white"/>
</clipPath>
</defs>
</svg>
