<svg width="427" height="419" viewBox="0 0 427 419" fill="none" xmlns="http://www.w3.org/2000/svg">
<path fill-rule="evenodd" clip-rule="evenodd" d="M206.075 62.1934C254.551 61.4229 307.187 48.5294 344.978 78.9954C385.31 111.51 400.219 166.436 399.766 218.341C399.318 269.786 384.102 325.091 342.57 355.271C304.25 383.117 253.213 363.212 206.075 359.091C165.529 355.546 124.996 356.46 91.4653 333.317C49.9836 304.686 6.16709 268.691 2.14677 218.341C-2.042 165.881 29.804 115.273 71.5056 83.342C109.026 54.6131 158.881 62.9435 206.075 62.1934Z" fill="white"/>
<g clip-path="url(#clip0_47_614)">
<path d="M8.16997 118.574C8.16997 118.574 9.14472 108.043 33.401 102.554C57.6582 97.0664 199.145 64.6113 199.145 64.6113L208.263 66.8242L281.299 358.179L265.04 375.882L99.2084 412.517L82.4483 405.632L65.2973 365.55L8.16997 118.574Z" fill="#2D881A"/>
<path d="M268.191 258.903C270.303 260.255 283.264 263.807 278.486 266.079C253.253 257.747 228.518 246.01 203.752 235.609C157.171 217.528 170.431 218.802 156.212 223.709C154.769 223.92 153.383 222.59 154.098 220.815C155.112 218.148 158.301 217.899 161.335 216.483C175.412 211.025 187.953 206.138 201.866 200.192C262.697 172.676 257.537 157.801 273.601 117.37C281.478 94.6336 291.678 73.5718 299.243 51.0087C292.06 38.8088 276.83 34.6633 263.329 31.2485C258.595 30.1983 251.66 27.3683 248.927 32.66C232.671 60.6614 221.037 89.3393 209.755 119.186C206.602 125.473 205.993 134.019 201.933 139.319C188.222 143.517 174.388 147.216 160.791 152.36C140.524 159.978 119.574 166.422 99.5255 174.928C97.4245 185.422 98.9728 196.128 101.553 206.521C108.58 230.401 119.67 252.698 137.821 271.043C176.037 294.153 215.484 314.888 260.926 322.25C294.698 322.963 365.656 250.464 374.917 241.35C381.078 234.257 385.614 234.258 379.919 226.115C367.921 208.234 360.494 191.718 353.307 185.002C321.542 206.899 299.53 236.797 268.192 258.903H268.191Z" fill="#FF5C33"/>
<path d="M214.208 96.2975C215.68 92.3859 219.105 88.1313 218.174 83.4115C216.437 77.0496 216.932 69.9633 212.916 64.2518C195.441 53.4643 126.624 78.4742 117.013 78.7536C22.8557 101.117 -4.8577 103.096 5.68954 128.576C17.7765 165.701 7.61161 150.543 32.7622 240.94C46.7362 291.163 58.1409 341.377 71.5774 391.736C75.5587 416.895 93.5208 417.302 114.637 412.498C129.06 410.598 140.952 407.43 154.805 404.075C190.235 394.886 225.102 388.918 260.209 379.717C291.443 370.869 286.539 362.449 281.967 338.636C280.011 334.165 279.386 326.513 276.622 323.66C274.692 325.023 269.494 323.981 268.779 325.839C272.402 338.201 280.071 352.897 272.662 364.781C264.529 376.347 246.882 375.379 233.992 379.267C216.791 382.697 200.419 386.466 182.922 388.941C159.511 393.151 137.88 399.045 114.754 403.983C78.8701 415.142 76.8401 387.717 69.8399 364.953C61.7692 336.089 55.6179 308.381 48.9252 279.357C40.4713 242.416 -5.56937 115.958 23.0516 108.526C62.0494 97.3903 101.679 88.8183 141.277 78.7658C209.692 62.2397 205.202 58.9925 214.208 96.2975Z" fill="#95908D"/>
<path d="M348.485 37.7194C318.447 27.8476 288.82 15.8851 257.251 9.64292C251.204 5.57687 252.058 22.2627 250.759 25.283C297.762 29.267 294.889 46.9357 303.763 43.8359C310.942 43.8656 302.583 42.07 306.159 39.3701C309.652 39.2278 311.451 44.8293 316.03 43.0564C314.92 41.6257 307.872 32.9812 313.764 34.164C316.533 36.9251 318.407 39.927 321.56 42.7684C330.078 43.5662 342.867 42.7911 348.485 37.7194Z" fill="#77A1DD"/>
<path d="M396.226 244.998C396.93 243.974 400.472 237.664 401.287 241.701C400.891 243.863 398.317 245.872 399.167 248.311C404.345 253.12 414.428 265.408 419.747 260.37C410.995 239.004 394.981 217.002 383.086 195.718C379.145 188.774 374.467 183.208 371.364 175.642C367.364 175.339 362.381 177.081 358.505 179.292C357.053 180.502 356.308 180.789 358.24 182.617C369.669 200.657 392.318 231.372 386.686 235.377C387.944 235.404 389.126 236.256 389.795 237.303C393.038 242.107 391.277 230.011 395.513 232.853C397.525 236.71 391.166 241.765 396.226 244.998Z" fill="#77A1DD"/>
<path d="M242.472 182.667C240.486 184.729 235.458 186.428 235.179 189.203C238.759 199.392 240.523 210.229 243.203 220.591C253.16 256.294 244.198 249.749 260.181 255.632C252.037 232.622 248.517 206.864 242.472 182.667Z" fill="#95908D"/>
<path d="M375.053 175.364C390.502 200.82 407.289 227.399 421.839 253.458C420.12 232.038 383.921 174.732 375.053 175.364Z" fill="white"/>
<path d="M348.36 33.4666C330.444 17.2565 269.565 0.0434937 256.12 5.87109C294.082 12.3778 319.994 24.6912 348.36 33.4666Z" fill="white"/>
<path d="M96.9457 173.593C96.9457 173.593 81.836 179.309 80.2092 188.16C78.5824 197.012 77.9455 209.955 77.9455 209.955C77.9455 209.955 90.8804 244.219 98.9255 251.78C106.971 259.34 126.163 271.51 131.561 272.064C136.959 272.617 125.364 259.893 125.364 259.893L101.293 215.125L96.9457 173.593Z" fill="#FFC73C"/>
<path d="M423.855 240.175C423.341 237.626 415.855 220.992 406.186 204.753C397.455 190.091 384.993 172.519 375.22 172.067C357.172 170.495 332.372 194.528 306.122 219.998C292.631 233.09 278.679 246.627 265.135 257.159C264.96 257.195 264.793 257.166 264.62 257.07C262.851 256.081 261.547 249.352 260.165 242.227C259.057 236.51 257.8 230.028 256.042 224.874C251.908 205.828 248.898 195.526 247.099 189.371C245.54 184.037 245.675 180.599 247.503 179.058C250.215 176.77 255.266 172.512 263.176 158.104C268.194 144.457 273.469 130.342 278.569 116.692C287.012 94.0968 295.741 70.735 303.562 48.823C308.093 48.4616 312.641 48.4127 317.043 48.3656C326.139 48.2678 334.732 48.1753 343.451 45.5705C350.276 42.8025 353.926 39.2209 354.007 35.2134C354.099 30.6629 349.613 26.1254 341.375 22.4313C335.504 18.14 284.237 -2.96451 261.026 0.352572C256.428 1.00639 253.189 2.59946 251.362 5.14663C248.748 11.024 247.985 17.4626 247.312 23.1427C247.183 24.226 247.057 25.2918 246.921 26.3349C244.194 31.7357 241.275 37.1643 238.451 42.4141C232.305 53.8458 225.956 65.6528 221.294 77.7358C219.801 67.8413 217.007 62.2493 212.073 59.1793C201.237 52.4351 178.826 57.9869 134.179 69.0511C113.424 74.1943 87.5939 80.5954 55.6418 87.6006C40.834 91.0966 25.1499 95.0989 10.4897 102.136C-4.43633 109.719 -0.467277 121.267 4.55698 135.889C6.62384 141.901 8.96515 148.716 10.1604 155.948C14.3954 173.901 18.5717 192.075 22.6098 209.651C34.3372 260.693 46.4649 313.472 61.1619 365.587L61.9871 369.078C68.1792 395.304 71.5899 409.75 81.9999 415.712C85.9387 417.969 90.8664 419.001 97.3121 419.001C111.345 419.001 132.564 414.107 166.374 406.312C184.98 402.023 208.135 396.685 235.921 390.838C238.943 390.09 241.974 389.411 244.904 388.753C253.435 386.842 261.491 385.036 269.53 381.66C277.611 379.903 283.092 376.654 286.286 371.728C292.735 361.785 288.414 346.859 284.235 332.425L283.821 331.004C283.697 330.069 283.245 328.946 282.768 327.757C281.45 324.48 280.704 322.089 283.162 321.164C318.247 303.207 346.376 275.803 373.576 249.303C377.104 245.867 380.625 242.437 384.151 239.036C385.751 240.851 387.354 242.775 388.907 244.64C395.662 252.748 402.646 261.131 412.77 265.257L412.855 265.283C417.857 266.164 421.619 265.209 424.037 262.441C428.369 257.484 427.225 247.496 423.855 240.175ZM257.57 5.75505C272.386 1.71869 327.706 16.986 346.762 32.5859C338.768 30.0667 331.049 27.3135 322.91 24.4102C303.464 17.474 283.364 10.3064 257.571 5.75505H257.57ZM257.17 9.99655C280.537 14.6169 303.171 22.4915 325.061 30.1059C332.489 32.6898 340.163 35.3591 347.744 37.8592C342.388 42.1635 330.967 43.2643 321.736 42.4228C320.026 40.8664 318.675 39.2393 317.369 37.6645C316.338 36.4215 315.272 35.1357 314.052 33.9188L313.967 33.835L313.847 33.8115C312.569 33.554 311.714 33.7198 311.302 34.3012C310.458 35.491 311.764 38.2197 315.41 42.8819C313.269 43.4851 311.822 42.2866 310.299 41.0244C309.064 40.0013 307.794 38.9564 306.143 39.0088L306.011 39.014L305.912 39.0909C305.249 39.591 304.888 40.1279 304.84 40.6874C304.764 41.5551 305.441 42.2622 305.936 42.7772C306.083 42.9326 306.297 43.156 306.369 43.2791C306.199 43.3586 305.63 43.4816 303.765 43.4747L303.626 43.4982C300.744 44.5038 299.192 43.1386 296.373 40.6586C291.185 36.0915 281.553 27.612 251.279 24.9653C251.569 23.9458 251.742 22.2261 251.938 20.2769C252.36 16.0808 252.939 10.3335 255.003 9.47368C255.556 9.24061 256.216 9.39337 257.022 9.93458L257.171 9.99655H257.17ZM378.667 237.011C377.464 238.136 376.1 239.41 374.63 241.103C374.15 241.576 373.503 242.22 372.703 243.016C320.416 295.054 281.754 322.334 260.994 321.894C214.951 314.435 174.708 292.915 138.077 270.765C121.586 254.087 109.763 233.04 101.934 206.44C98.7714 193.699 98.1336 184.046 99.8739 175.178C112.375 169.883 125.424 165.317 138.047 160.9C145.582 158.263 153.374 155.536 160.939 152.693C170.97 148.899 181.299 145.842 191.289 142.885C194.821 141.839 198.472 140.759 202.055 139.661L202.178 139.624L202.252 139.527C204.641 136.408 205.868 132.143 207.054 128.018C207.91 125.039 208.796 121.959 210.124 119.305C220.104 92.9027 232.182 62.2685 249.28 32.8155C251.469 28.5757 256.539 29.8895 261.014 31.0496C261.789 31.2503 262.537 31.4441 263.225 31.5969C275.817 34.7822 291.48 38.7443 298.819 51.0481C294.903 62.7059 290.2 74.1743 285.651 85.2673C281.406 95.6192 277.016 106.324 273.232 117.245C270.542 124.016 268.415 130.162 266.538 135.584C256.99 163.174 252.197 177.023 201.701 199.864C188.252 205.612 176.424 210.24 161.158 216.16C160.335 216.545 159.496 216.843 158.686 217.131C156.544 217.891 154.521 218.611 153.73 220.689C153.343 221.65 153.473 222.597 154.086 223.287C154.618 223.886 155.461 224.182 156.273 224.065L156.348 224.047C158.571 223.281 160.107 222.61 161.341 222.072C164.137 220.85 169.129 221.77 176.317 224.828C181.892 227.2 190.314 230.785 203.589 235.938C210.312 238.761 217.15 241.734 223.764 244.609C241.557 252.345 259.954 260.344 278.353 266.419L278.514 266.473L278.665 266.4C279.526 265.992 279.95 265.49 279.926 264.909C279.858 263.31 276.346 261.82 271.761 260.039C270.594 259.586 269.548 259.179 268.89 258.863C284.105 248.062 297.34 235.237 310.142 222.831C323.465 209.921 337.237 196.574 353.265 185.482C357.41 189.476 361.611 196.655 366.903 205.701C370.556 211.943 374.697 219.019 379.589 226.311C383.75 232.26 382.365 233.554 378.667 237.011H378.667ZM265.235 328.694C265.899 331.315 266.778 333.981 267.628 336.559C269.282 341.574 270.988 346.748 271.165 351.801C270.295 350.801 269.436 349.8 268.579 348.802C264.132 343.625 259.532 338.273 253.819 333.376C253.125 331.799 253.291 330.104 253.451 328.464C253.556 327.376 253.656 326.347 253.524 325.354C253.596 325.143 253.718 324.995 253.905 324.893C254.675 324.479 256.375 324.892 257.876 325.257C259.374 325.622 260.668 325.936 261.426 325.664C262.706 325.41 263.679 325.533 264.316 326.028C265.127 326.656 265.258 327.772 265.225 328.599L265.224 328.647L265.235 328.694ZM249.292 327.408C249.212 327.936 249.13 328.475 249.082 329.007C247.602 327.615 245.573 326.239 243.604 324.902C241.969 323.792 240.401 322.729 239.438 321.829C240.605 322.104 241.849 322.326 243.061 322.542C245.353 322.951 247.719 323.374 249.507 324.144C249.629 325.178 249.457 326.31 249.292 327.408ZM248.479 334.75C244.711 348.539 240.23 362.974 230.731 374.74C221.027 377.767 210.602 379.595 200.521 381.361C196.576 382.053 192.501 382.768 188.51 383.546C187.481 381.509 188.002 376.361 188.352 372.912C188.409 372.332 188.463 371.795 188.507 371.321C211.947 364.327 229.137 342.468 229.558 319.143C232.195 319.455 233.495 320.708 234.988 322.146C235.618 322.752 236.266 323.379 237.032 323.958C238.274 325.09 239.79 326.147 241.256 327.169C244.389 329.354 247.626 331.613 248.479 334.75ZM214.836 346.159C207.704 355.695 198.051 362.74 188.285 365.55C187.599 356.95 186.927 351.747 186.481 348.285C185.99 344.49 186.38 342.122 187.65 341.183C189.843 339.56 194.408 336.184 202.839 322.274C204.323 318.87 204.735 316.279 205.036 314.387C205.274 312.889 205.432 311.899 205.997 311.609C206.155 311.528 206.359 311.489 206.616 311.489C208.034 311.489 211.059 312.701 216.658 314.945C218.949 315.863 221.697 316.965 224.999 318.251C225.418 326.661 221.63 337.073 214.836 346.159ZM99.9118 388.679C99.7055 387.45 99.502 386.241 99.3232 385.01C99.237 384.732 99.2134 384.569 99.2086 384.479C99.7187 384.613 101.144 385.598 102.647 386.636C106.616 389.377 113.856 394.377 123.623 397.849C121.065 398.331 118.494 399.105 115.994 399.858C110.721 401.445 105.736 402.946 100.828 402.001C101.407 397.579 100.647 393.057 99.9118 388.679ZM141.62 154.187C140.956 155.391 140.083 156.123 139.024 156.361C137.357 156.733 135.167 155.965 132.318 154.006L132.227 153.96C115.195 147.779 93.8645 149.805 77.765 159.107C77.1422 158.154 76.5858 157.273 76.0587 156.437C74.4404 153.872 73.0416 151.655 70.8016 149.112C70.4145 148.411 69.6177 147.669 68.8464 146.95C67.8821 146.053 66.789 145.035 66.8865 144.379C66.9196 144.155 67.107 143.956 67.5064 143.741C89.9097 127.383 120.578 131.926 141.852 141.648C143.822 142.282 143.354 144.151 142.425 147.147C141.732 149.389 140.946 151.925 141.62 154.186V154.187ZM129.016 268.36C128.272 269.078 119.702 265.513 117.469 263.961C102.212 255.38 79.4362 226.363 79.8725 202.181C80.076 190.864 85.3103 182.333 95.4345 176.813C92.215 203.709 104.823 238.828 127.72 266.56C129.142 267.997 129.014 268.36 129.016 268.36ZM183.046 383.638C182.98 384.665 178.081 385.478 173.752 386.195C169.519 386.897 164.721 387.693 161.355 388.965C157.205 389.819 153.609 390.809 150.132 391.767C136.282 395.579 127.131 398.094 107.437 385.154C106.216 384.199 105.02 383.404 103.863 382.635C102.058 381.437 100.353 380.304 98.9522 378.797C97.3859 369.31 99.732 359.319 101.861 350.46C125.983 367.809 145.878 379.517 180.499 373.024L180.59 372.995C181.637 372.532 182.388 372.444 182.825 372.733C183.85 373.411 183.485 376.168 183.163 378.6C182.898 380.607 182.647 382.505 183.046 383.638ZM39.0813 134.621C35.5239 139.466 28.9988 148.355 22.9808 164.559C22.3941 160.012 21.3521 155.376 20.3414 150.879C17.931 140.154 15.4392 129.065 18.9616 118.595C24.053 118.273 29.6271 121.754 35.0157 125.113C36.9567 126.323 38.9621 127.574 40.9305 128.625C41.716 128.947 41.8911 129.255 41.9545 129.459C42.2261 130.337 41.0431 131.95 39.0813 134.621ZM79.7306 223.107C80.1384 224.278 80.5416 225.438 80.9239 226.587C79.4949 226.612 77.959 227.043 76.4684 227.46C74.4896 228.014 72.6196 228.539 71.3316 228.026C66.9347 216.424 61.548 192.493 68.9969 175.663C71.3306 171.491 74.2132 166.712 75.8514 166.861C77.0164 166.96 77.8984 169.67 79.0142 173.102C79.7457 175.348 80.6533 178.137 81.9015 180.992C81.2949 183.319 80.2605 185.484 79.1656 187.773C77.482 191.293 75.7407 194.934 75.5807 199.306C74.3505 207.62 77.0855 215.492 79.7306 223.107ZM58.8253 239.438C64.1827 235.933 66.8704 234.176 68.4745 234.614C69.8732 234.996 70.7988 237.15 72.4795 241.063C74.5606 245.908 77.7063 253.228 84.3734 263.536C92.585 276.501 103.169 287.71 115.83 296.855C114.667 300.139 113.027 303.702 111.439 307.15C109.904 310.478 108.322 313.915 107.146 317.146C94.8175 304.375 67.372 267.738 56.9137 240.687L58.8263 239.438H58.8253ZM159.622 370.292C137.809 370.291 118.684 358.098 104.112 347.065C102.271 345.328 104.757 338.731 106.951 332.909C107.859 330.497 108.723 328.205 109.31 326.228C121.335 338.443 138.386 351.036 157.579 351.035C162.755 351.035 168.092 350.117 173.523 348.031C174.456 347.994 175.816 347.268 177.253 346.5C178.639 345.759 180.542 344.741 181.133 345.053C181.315 345.148 181.36 345.437 181.365 345.691C181.503 347.005 181.652 348.348 181.804 349.706C182.452 355.508 183.12 361.507 182.981 366.944C178.996 368.732 174.632 369.123 170.016 369.535C169.024 369.624 168.027 369.713 167.02 369.819C164.521 370.141 162.056 370.293 159.622 370.293V370.292ZM71.0978 164.764C69.1294 166.808 65.8351 170.229 63.1644 178.581C59.8275 192.899 60.7786 208.417 66.0944 226.078C68.0486 229.933 67.1429 230.333 63.771 231.821C61.6133 232.774 58.6872 234.066 55.2083 236.866C46.3295 217.457 44.6762 194.671 50.4339 170.928C52.6068 161.479 56.6392 153.795 62.4206 148.09C63.4559 147.848 64.0039 148.618 64.8083 149.869C65.2824 150.607 65.7726 151.37 66.4767 151.882C74.2483 161.491 73.9464 161.804 71.0978 164.764ZM171.934 92.2768C172.367 93.2335 169.181 97.0621 166.371 100.439C163.6 103.771 160.459 107.546 158.675 110.746L158.64 110.837C158.519 111.374 158.31 111.696 158.003 111.821C157.007 112.222 154.684 110.953 151.457 109.193C142.729 104.431 126.483 95.5695 100.04 98.2816C80.3542 100.274 62.8408 109.029 44.9459 125.826C43.0333 124.826 41.1226 123.723 39.2715 122.654C33.4287 119.28 27.3909 115.795 20.6887 115.254C22.6004 111.783 45.3264 106.582 73.8366 100.057C92.5803 95.7676 115.907 90.4288 139.606 84.17C148.025 83.2744 156.057 86.3419 163.821 89.3071C166.462 90.3162 168.958 91.2695 171.475 92.0769L171.554 92.0944C171.868 92.131 171.916 92.2367 171.934 92.2768ZM46.5567 132.757C48.5781 134.449 50.3081 135.867 51.774 137.07C57.0405 141.389 58.7686 144.606 56.9582 146.721C53.8541 150.348 47.3951 157.893 43.8624 181.224C41.1028 200.367 43.3693 218.783 50.8011 237.548C52.0077 240.071 49.5907 241.745 47.0317 243.517C45.9018 244.299 44.7406 245.103 43.9352 245.99C37.4678 225.651 32.1729 205.278 27.4931 187.273C21.8281 167.258 33.8952 148.5 46.5567 132.757ZM49.0939 246.289C50.4254 245.485 51.6831 244.726 52.356 243.809C52.6995 243.458 52.8964 243.385 52.956 243.385C52.9598 243.385 52.9626 243.385 52.9664 243.386C53.1169 243.414 53.326 243.979 53.4273 244.251C53.5399 244.556 53.6582 244.872 53.7926 245.064C58.2774 255.041 63.5411 263.523 69.1133 272.503C70.5006 274.738 71.9088 277.008 73.3341 279.346C82.775 294.476 93.2693 308.541 104.525 321.152C105.463 323.023 103.775 327.489 101.988 332.214C100.676 335.684 99.3213 339.267 98.6503 342.563C89.8254 335.531 83.2094 327.586 76.212 319.185C74.0912 316.64 71.8994 314.007 69.6527 311.417C68.1669 309.478 66.6073 307.691 65.0997 305.963C61.5944 301.949 58.284 298.156 56.4821 293.167C52.7525 276.928 49.2595 263.767 45.4721 251.704C44.31 249.177 46.6333 247.774 49.0939 246.289ZM124.312 282.09C122.434 284.81 120.491 287.622 119.299 290.648L119.277 290.736C119.184 291.619 118.896 292.141 118.422 292.287C116.031 293.029 109.212 286.196 105.136 282.115C103.647 280.625 102.361 279.338 101.539 278.638C90.5409 267.005 81.6318 252.649 73.5073 233.468C73.9568 232.603 75.682 232.355 77.5038 232.094C79.3832 231.826 81.4889 231.524 82.81 230.457C95.4866 255.282 110.629 269.443 129.079 273.724C128.166 276.51 126.292 279.224 124.312 282.091V282.09ZM80.2094 163.14C91.8213 154.734 117.897 150.968 132.781 158.288C129.198 159.671 125.68 161.003 122.187 162.327C115.102 165.01 108.41 167.544 101.415 170.401C94.8601 172.088 90.4188 173.734 86.0901 177.445C85.4542 175.908 84.8116 174.276 84.134 172.558C82.8573 169.315 81.5372 165.964 80.2094 163.14ZM64.6105 139.819C64.2887 140.171 63.931 140.346 63.5165 140.353H63.489C61.848 140.353 59.4547 137.923 56.9231 135.35C54.7512 133.145 52.5093 130.868 50.2087 129.48C59.8824 114.457 88.8393 101.907 112.443 102.581H112.445C126.309 102.904 142.138 107.837 154.826 115.785C154.998 117.55 153.903 119.089 152.746 120.716C151.933 121.858 151.093 123.039 150.62 124.385C149.23 126.582 148.188 129.303 147.18 131.937C146.253 134.358 145.375 136.652 144.312 138.31C130.725 132.085 116.768 128.604 103.923 128.239C88.6358 127.8 75.4388 131.686 64.6105 139.819ZM154.259 129.671C155.623 127.147 157.321 124.006 159.361 120.091L159.394 119.998C159.48 119.557 159.697 119.353 160.118 119.314C160.169 119.308 160.222 119.306 160.277 119.306C164.652 119.306 181.485 134.335 184.298 139.831C182.112 140.617 179.864 141.462 177.685 142.281C171.429 144.632 164.962 147.062 158.961 148.516C156.272 145.719 154.104 144.126 152.514 142.956C149.92 141.048 150.502 136.62 154.259 129.671ZM151.637 81.299C156.336 80.1441 161.126 78.9142 165.772 77.7218C174.319 75.5273 183.142 73.2621 191.593 71.4185C185.045 77.3735 181.802 81.5295 179.62 84.3237C177.095 87.5604 172.705 88.1217 166.45 86.0066C162.954 84.8256 158.245 83.2334 151.637 81.299ZM93.5238 374.176C71.5398 353.544 66.4171 343.146 58.9465 303.846L59.1604 304.119C71.0921 319.337 82.3643 333.714 96.9459 346.642C96.8181 350.415 96.0525 354.332 95.2434 358.474C94.2213 363.709 93.1661 369.112 93.5238 374.176ZM93.3298 379.523C94.9244 385.687 96.1812 393.722 96.7935 401.641C96.5607 401.655 96.3326 401.662 96.1055 401.662C82.4409 401.662 76.8299 377.058 73.0871 360.64C72.5968 358.488 72.1256 356.425 71.6685 354.549C78.8088 364.663 85.9103 372.849 93.3298 379.523ZM168.706 304.696C168.996 304.774 169.212 305.399 169.386 305.901C169.524 306.295 169.664 306.702 169.842 306.967C175.062 319.33 178.292 329.209 180.002 338.044C178.364 341.012 174.177 342.207 170.125 343.363C168.744 343.757 167.316 344.165 166.057 344.626C148.846 349.497 131.066 342.215 111.746 322.42C110.293 320.158 114.022 312.511 117.017 306.367C118.195 303.951 119.311 301.662 120.139 299.699C135.487 306.617 153.032 313.206 167.791 305.11C168.189 304.799 168.522 304.65 168.706 304.696ZM147.24 148.706C147.636 147.472 148.077 146.096 148.352 144.683C149.057 145.159 149.893 145.648 150.767 146.16C152.85 147.381 155.442 148.899 155.243 149.884C155.172 150.235 154.605 150.908 151.605 151.461L151.508 151.492C148.135 153.033 147 153.026 146.644 152.751C146.082 152.314 146.644 150.561 147.24 148.706ZM184.662 335.821C182.183 325.134 178.615 315.206 173.095 303.663C172.014 302.198 172.945 301.499 174.554 300.482C175.281 300.022 176.031 299.548 176.406 298.936C178.241 299.064 179.748 299.95 181.34 300.886C182.513 301.575 183.726 302.287 185.117 302.712C187.161 303.924 189.839 304.854 192.43 305.753C195.791 306.919 199.263 308.125 201.085 309.897C199.491 321.993 191.396 330.614 184.662 335.821ZM170.089 296.942C169.404 296.864 168.851 295.547 168.405 294.488C168.325 294.299 168.247 294.113 168.169 293.935C169.309 294.436 170.404 295.098 171.607 295.904C170.852 296.81 170.365 296.978 170.089 296.942ZM165.767 299.854C164.929 301.401 161.349 302.518 153.003 303.832C142.246 303.462 133.183 301.026 122.728 295.695C121.973 293.717 129.639 280.24 134.481 274.316C137.971 276.552 141.709 278.498 145.326 280.382C151.637 283.667 157.599 286.772 162.395 291.29C162.994 292.514 163.601 293.603 164.138 294.566C165.511 297.026 166.418 298.653 165.767 299.854ZM193.068 137.676C191.475 138.037 189.966 138.378 188.668 138.848C186.526 136.507 184.951 134.532 183.427 132.62C179.083 127.178 175.646 122.871 162.655 115.315C165.28 109.752 170.586 103.251 175.276 97.5038C176.078 96.5218 176.854 95.5703 177.588 94.659C190.699 99.0681 202.289 110.254 206.839 115.063C205.106 119.259 203.859 123.482 202.65 127.568C201.903 130.099 201.129 132.714 200.248 135.299C198.297 136.494 195.639 137.095 193.068 137.676ZM269.649 361.85C267.913 367.175 257.51 370.084 237.676 373.806C244.138 363.085 248.993 351.28 252.498 337.769C266.497 350.689 271.152 357.241 269.649 361.85ZM207.849 109.65C199.38 102.505 190.624 95.1181 180.5 90.7859C182.776 87.4225 185.624 84.3813 188.381 81.4378C191.094 78.5415 193.899 75.5474 196.128 72.2704C197.362 71.1714 198.639 70.8345 199.922 71.2736C203.443 72.4764 206.329 79.0923 206.691 82.9322C206.942 86.3855 207.901 89.5533 208.828 92.6172C210.588 98.4265 212.251 103.922 208.648 110.324L207.849 109.651V109.65ZM215.406 92.7848C215.015 93.5609 214.64 94.3081 214.308 95.0457C213.973 93.649 213.657 92.3109 213.354 91.0312C210.324 78.2002 208.655 71.133 203.426 68.2C196.993 64.5905 185.243 67.5104 159.497 73.9106C154.096 75.2532 147.976 76.7756 141.173 78.4175C127.163 81.9746 112.926 85.4 99.1585 88.7118C74.077 94.7454 48.1418 100.984 22.9458 108.18C0.250067 114.073 23.3878 192.426 38.699 244.273C42.9832 258.781 46.6835 271.311 48.5421 279.432C49.3872 283.1 50.2248 286.746 51.0585 290.377C56.8948 315.803 62.4083 339.819 69.4625 365.053C70.3246 367.853 71.1224 370.771 71.8956 373.593C75.5277 386.866 78.9593 399.404 89.2122 404.56C95.6162 407.781 104.013 407.704 114.843 404.336C123.71 402.442 132.482 400.379 140.966 398.383C154.537 395.191 168.57 391.891 182.981 389.298C196.115 387.44 208.346 384.911 221.295 382.232C225.524 381.357 229.773 380.478 234.113 379.61C237.776 378.505 241.752 377.808 245.961 377.07C256.35 375.248 267.092 373.364 273.001 364.961C279.111 355.162 275.058 343.322 271.484 332.876C270.649 330.437 269.86 328.13 269.193 325.865C269.593 325.145 271.209 325.011 272.772 324.882C274.153 324.768 275.575 324.651 276.545 324.139C278.032 325.894 278.881 329.262 279.702 332.524C280.254 334.713 280.823 336.975 281.588 338.736C281.987 340.813 282.389 342.773 282.768 344.627C286.759 364.106 288.252 371.394 260.102 379.369C242.323 384.029 224.283 387.929 206.837 391.7C189.801 395.384 172.186 399.192 154.706 403.725C152.847 404.175 151.023 404.622 149.224 405.063C137.819 407.858 127.047 410.498 114.544 412.147C104.291 414.48 91.4087 416.467 82.7249 411.08C76.987 407.521 73.4675 401.176 71.9581 391.649C60.0935 347.184 48.1229 300.679 33.1467 240.868C31.3571 232.697 29.6158 224.424 27.9312 216.424C25.6032 205.365 21.1638 193.878 18.6077 182.628C14.4806 164.461 11.9188 146.454 6.05602 128.447C3.49989 122.271 3.30683 117.631 5.4494 113.842C11.2658 103.557 34.9949 98.0957 82.2706 87.2156C92.5794 84.843 104.264 82.1545 117.07 79.1132C119.846 79.0137 126.934 77.0636 136.725 74.3689C160.452 67.8404 200.134 56.9228 212.632 64.5102C215.231 68.2463 215.9 72.679 216.548 76.9667C216.875 79.1316 217.213 81.3697 217.788 83.4752C218.437 86.7643 216.897 89.8248 215.407 92.784L215.406 92.7848ZM223.596 195.332C225.739 194.263 228.667 192.803 232.471 190.242C233.268 190.682 234.203 196.102 234.889 200.076C235.46 203.385 236.048 206.796 236.748 209.365C233.99 208.345 230.982 207.801 228.066 207.275C225.417 206.796 222.912 206.343 220.787 205.571C218.151 198.048 218.592 197.828 223.596 195.332ZM222.388 210.794C222.518 210.68 222.759 210.631 223.08 210.631C224.257 210.631 226.497 211.288 228.233 211.797C229.927 212.293 231.679 212.807 232.94 212.947C233.659 213.204 234.422 213.361 235.16 213.513C236.69 213.828 238.012 214.1 238.218 215.146C239.522 219.851 240.531 224.702 241.507 229.395C242.945 236.314 244.431 243.46 246.882 250.139C242.048 248.076 238.409 246.753 235.712 245.772C230.264 243.792 227.127 239.74 226.301 233.619C225.679 229.022 224.741 222.073 222.341 211.372C222.261 211.085 222.276 210.89 222.387 210.794H222.388ZM256.342 253.887C252.177 252.45 249.709 249.364 248.94 244.631C248.22 240.213 247.019 232.82 243.584 220.508C242.666 216.96 241.841 213.287 241.042 209.735C239.508 202.912 237.923 195.857 235.578 189.164C235.792 187.589 237.797 186.331 239.737 185.112C240.665 184.531 241.55 183.975 242.25 183.385C244.323 191.754 246.13 200.439 247.88 208.845C251.102 224.33 254.431 240.332 259.553 255.015C258.334 254.574 257.272 254.208 256.342 253.887ZM222.927 240.031C221.99 240.337 219.949 239.26 217.973 238.22C216.158 237.264 214.28 236.276 212.62 235.904C207.05 234.193 206.848 232.766 206.178 228.036C205.649 224.31 204.857 218.714 201.06 209.62C204.683 209.734 207.548 209.627 209.874 209.54C215.902 209.315 219.701 214.7 221.268 225.697C221.799 229.413 222.459 234.033 223.365 239.638C223.261 239.842 223.12 239.967 222.927 240.031ZM204.198 205.241C205.601 204.576 207.025 203.939 208.414 203.318C210.806 202.249 213.274 201.145 215.673 199.883C216.139 201.33 216.373 202.747 216.62 204.239C216.697 204.711 216.777 205.186 216.864 205.667C215.652 205.622 214.457 205.571 213.273 205.52C210.161 205.388 207.196 205.261 204.198 205.241ZM185.106 218.657C184.247 216.542 183.433 214.541 184.107 213.293L185.765 212.658C191.296 210.535 194.633 209.255 196.735 210.361C199.628 211.885 200.755 218.294 202.753 231.436C198.145 230.09 192.582 228.005 186.603 225.378C186.957 223.211 185.975 220.797 185.105 218.657H185.106ZM169.935 219.056C170.168 218.942 170.429 218.812 170.716 218.67C173.213 217.431 179.063 214.533 180.523 215.233C180.625 215.281 180.746 215.368 180.777 215.605L180.795 215.678C182.176 219.429 183.487 223.345 182.736 223.947C182.243 224.35 180.315 223.447 178.084 222.407C176.01 221.44 173.23 220.143 169.935 219.056ZM375.765 175.796C376.426 175.96 377.396 176.425 378.788 177.527C390.655 186.934 418.085 231.224 421.221 251.566C410.6 232.654 398.779 213.381 387.335 194.722C383.513 188.491 379.566 182.054 375.765 175.796ZM400.539 244.312C401.017 243.492 401.512 242.644 401.674 241.761L401.685 241.698L401.673 241.635C401.599 241.27 401.375 240.159 400.493 240.019C399.171 239.804 397.606 242.103 396.239 244.271C396.194 244.342 396.152 244.409 396.113 244.47C393.845 242.798 394.584 240.702 395.436 238.292C396.1 236.41 396.788 234.464 395.866 232.696L395.822 232.614L395.743 232.56C395.033 232.084 394.391 231.944 393.83 232.138C392.659 232.548 392.251 234.258 391.857 235.91C391.68 236.654 391.351 238.037 391.066 238.083C391.071 238.08 390.791 238.095 390.132 237.119C389.491 236.116 388.496 235.386 387.461 235.123C390.348 231.01 380.679 215.811 366.863 195.061C363.831 190.508 360.968 186.207 358.577 182.434L358.519 182.364C357.79 181.673 357.456 181.21 357.467 180.905C357.479 180.609 357.868 180.293 358.406 179.855L358.71 179.598C363.021 177.14 367.61 175.799 371.087 175.985C373.066 180.742 375.602 184.627 378.286 188.738C379.776 191.019 381.315 193.379 382.737 195.883C386.886 203.306 391.62 210.953 396.198 218.349C404.751 232.165 413.594 246.451 419.289 260.276C418.547 260.91 417.692 261.229 416.703 261.198C412.457 261.135 406.662 255.277 402.43 251C401.373 249.933 400.372 248.922 399.513 248.119C399.093 246.789 399.795 245.585 400.539 244.311V244.312Z" fill="black"/>
<path d="M99.3655 88.2081C98.3879 88.4054 96.2898 85.5362 98.6264 85.0508C100.238 84.9592 101.864 87.4443 99.3655 88.2081Z" fill="black"/>
<path d="M105.28 86.4414C104.249 86.5278 103.177 83.6428 105.631 84.411C106.3 84.8195 106.431 85.9648 105.28 86.4414Z" fill="black"/>
</g>
<defs>
<clipPath id="clip0_47_614">
<rect width="427" height="419" fill="white"/>
</clipPath>
</defs>
</svg>
