<svg width="406" height="400" viewBox="0 0 406 400" fill="none" xmlns="http://www.w3.org/2000/svg">
<g clip-path="url(#clip0_42_549)">
<path fill-rule="evenodd" clip-rule="evenodd" d="M291.94 38.54C331.381 57.7748 328.487 113.413 339.912 155.815C350.417 194.802 368.768 233.55 354.686 271.418C339.197 313.071 305.667 347.788 263.426 361.499C221.179 375.211 176.071 362.806 136.788 342.143C98.0406 321.761 66.3527 290.541 50.7265 249.614C34.2097 206.355 24.4215 154.286 50.4152 115.924C75.1799 79.3759 128.31 86.5708 170.325 73.1093C212.049 59.7409 252.587 19.3479 291.94 38.54Z" fill="white"/>
<path d="M98.0811 172.858C89.2083 157.472 93.4966 144.812 89.6616 149.087C81.66 155.775 85.885 154.187 90.1598 159.887C100.029 173.518 106.468 188.564 109.103 205.236C116.639 209.183 127.59 210.755 135.809 214.547C136.72 206.354 133.813 194.799 133.763 185.456C119.078 190.783 106.936 182.926 98.0811 172.858Z" fill="#FF5C33"/>
<path d="M255.077 130.78C243.303 151.114 228.362 169.704 215.107 188.94C211.49 193.446 184.749 138.296 184.179 145.771C147.68 217.935 167.287 216.735 136.737 170.313C137.535 233.31 152.844 219.696 109.945 209.091C110.711 213.335 110.027 219.307 111.596 223.224C119.367 229.005 126.521 235.019 133.999 241.351C140.009 245.28 138.136 245.469 132.941 248.801C126.331 252.678 121.013 256.782 114.517 261.099C113.186 262.061 111.546 262.568 114.699 263.042C120.732 264.423 125.635 265.563 131.679 266.895C146.671 270.984 154.405 267.215 140.97 279.255C124.278 294.364 109.36 310.236 94.2183 326.651C166.896 299.297 150.46 308.515 158.946 290.104C162.104 282.999 163.542 275.31 169.387 269.964C181.008 263.95 166.116 288.694 168.789 289.626C184.04 284.118 183.4 232.313 197.928 255.145C198.076 258.922 202.215 259.644 201.044 264.323C200.454 266.458 200.99 267.141 202.495 268.924C203.832 271.753 203.285 274.753 202.787 277.958C196.512 305.634 188.395 304.03 193.932 311.244C202.211 325.716 209.233 340.034 217.604 354.273C222.391 332.846 221.147 342.197 210.75 330.981C204.478 324.21 202.074 318.636 202.623 310.518C201.36 307.965 199.01 304.801 201.524 302.106C201.266 300.338 200.452 298.447 201.371 296.572C201.857 295.266 203.193 294.936 203.354 293.408C204.292 279.497 224.466 301.243 228.206 303.232C231.142 296.233 226.348 297.251 227.142 292.39C227.896 290.568 229.456 290.581 231.478 289.885C232.542 287.428 233.009 284.722 233.549 281.797C233.063 280.763 233.019 279.759 234.978 279.901C263.889 282.757 293.251 285.834 322.3 288.586C304.146 272.578 287.532 255.245 270.212 237.68C269.28 236.179 271.278 234.7 272.239 232.857C278.409 224.351 283.793 216.421 290.509 208.318C292.818 206.119 293.346 204.935 291.416 201.82C290.272 199.988 290.323 197.887 288.812 196.329C286.637 199.206 283.908 201.959 281.089 204.739C261.696 216.201 261.42 196.777 268.734 184.744C265.618 186.136 258.741 194.929 259.243 187.164C258.806 167.955 255.743 149.995 255.077 130.78Z" fill="#FFC73C"/>
<path d="M294.323 208.441C266.891 244.777 270.892 232.175 283.735 247.364C309.682 275.15 329.808 288.967 328.23 291.842C298.831 290.919 267.387 285.572 237.27 282.563C235.054 282.489 234.801 288.739 234.594 290.485C240.55 293.617 245.767 298.451 251.143 302.782C255.64 306.164 259.947 310.488 264.851 312.711C289.409 312.448 316.364 308.996 336.706 293.279C359.231 277.052 361.77 248.773 363.147 261.451C350.159 303.084 304.834 318.285 267.515 315.487C260.919 315.251 256.103 344.67 258.538 346.813C263.062 358.465 294.132 361.177 301.024 361.354C313.919 361.57 326.55 362.032 338.662 356.741C363.552 344.709 385.428 323.539 394.401 301.134C410.138 263.733 404.367 214.574 373.518 190.103C371.116 189.062 366.509 185.962 366.823 190.193C367.367 226.6 308.979 244.078 294.323 208.441Z" fill="#2D881A"/>
<path d="M111.248 227.004C112.492 251.989 100.038 284.627 73.0918 285.193C63.7208 286.181 56.1219 280.135 49.2114 274.601C32.3616 260.967 38.9997 251.307 30.9922 259.318C9.11385 278.993 -2.41401 309.594 5.41502 338.346C27.7738 412.709 133.04 409.019 170.294 350.919C173.373 345.291 179.172 337.9 177.73 333.72C173.343 323.551 149 310.83 143.98 317.182C136.779 323.501 132.737 332.14 125.543 338.717C97.6607 364.783 56.121 346.106 58.0783 317.01C59.2176 315.373 60.0981 316.103 60.1091 318.431C63.7801 347.386 99.2365 355.402 119.531 339.94C131.755 331.448 138.865 311.188 150.161 312.335C150.971 311.456 150.937 310.079 151.669 308.4C91.7746 330.474 74.424 341.653 92.9638 323.34C109.167 305.692 124.919 289.634 142.687 273.898C144.456 272.134 145.985 271.734 142.184 271.413C95.2019 261.638 99.8574 268.139 133.287 245.039C125.804 239.069 118.957 232.569 111.248 227.004Z" fill="#77A1DD"/>
<path d="M29.0536 225.282C50.191 312.074 104.753 284.367 108.263 237.057C109.361 213.443 105.581 188.759 93.4993 169.439C87.115 172.39 81.3557 168.366 81.2009 170.816C73.0065 195.175 50.4041 221.442 29.0536 225.282Z" fill="#FFC0A1"/>
<path d="M304.529 218.039C319.293 232.817 350.823 219.805 359.163 205.912C365.265 198.4 362.904 188.305 364.387 179.806C395.092 166.716 369.036 122.615 355.599 144.155C348.902 146.553 341.157 149.976 334.104 152.794C331.157 154.648 321.846 155.692 324.196 158.715C333.995 188.912 291.786 205.723 285.581 173.178C285.096 171.001 285.653 169.048 285.247 166.817C282.085 164.368 281.095 169.719 279.294 172.072C274.648 180.669 269.144 187.482 266.418 196.993C264.244 209.036 275.815 205.533 281.226 200.704C285.379 197.575 287.322 191.184 290.064 192.239C291.12 194.76 296.845 212.391 299.034 208.052C312.663 192.29 314.576 211.826 304.529 218.04V218.039Z" fill="#703D22"/>
<path d="M366.864 185.284C404.071 178.46 398.255 174.379 397.877 156.59C393.826 100.547 359.244 86.1597 313.421 106.763C306.176 109.522 291.631 118.573 293.112 122.388C305.517 135.556 324.098 139.768 341.654 141.815C359.005 144.41 348.747 140.867 359.437 136.089C383.473 128.555 389.578 177.044 367.259 180.683C365.826 181.221 366.97 183.447 366.864 185.284Z" fill="#77A1DD"/>
<path d="M259.005 142.759C279.067 128.076 264.421 90.4251 257.928 75.7034C257.549 74.806 257.339 74.3755 256.102 74.9819C243.353 79.8615 228.984 75.4962 216.798 70.3789C215.252 70.1818 212.167 66.7993 211.986 69.5787C210.41 76.3809 208.214 82.5031 205.031 88.8519C193.967 107.518 188.05 101.13 193.497 110.016C203.283 127.014 220.414 156.127 236.778 152.837C242.204 145.986 246.309 138.315 250.981 130.721C252.744 128.259 255.904 117.841 258.135 124.611C256.991 130.127 257.933 136.971 259.005 142.759Z" fill="#EC987E"/>
<path d="M257.152 3.28955C243.908 3.31154 229.4 11.9661 225.271 24.4286C225.167 24.8862 225.277 25.0266 226.134 25.3303C230.55 26.5618 234.969 29.4047 239.04 31.4237C244.731 29.0333 251.35 31.3814 256.486 34.6234C274.642 49.3097 261.097 57.9693 273.618 52.7607C282.111 49.7537 292.189 48.5171 299.626 44.8758C294.908 24.2713 279.449 3.38682 257.152 3.28955Z" fill="#703D22"/>
<path d="M94.895 126.98C88.0996 178.276 116.419 186.931 132.942 181.792C135.823 176.656 131.2 164.181 134.61 163.002C139.246 163.841 140.737 175.487 144.267 175.955C154.998 165.873 160.992 151.626 166.547 138.079C156.365 145.906 145.324 143.895 139.787 133.003C135.119 160.705 116.196 157.249 122.443 130.642C112.642 138.258 101.313 137.67 94.895 126.98Z" fill="#703D22"/>
<path d="M204.498 296.155C195.78 306.256 238.434 329.614 235.168 331.79C225.457 328.907 210.073 312.924 205.602 308.105C199.319 299.041 203.91 310.054 206.592 312.881C221.155 332.284 231.753 331.125 234.139 336.376C225.406 336.901 208.188 319.026 205.147 314.178C203.313 333.493 243.669 348.543 257.395 350.435C253.942 342.963 256.204 333.8 258.378 325.853C259.588 321.592 262.032 318.099 263.006 314.206C258.485 310.965 254.081 308.044 249.779 304.303C243.741 299.924 233.93 289.013 229.491 293.553C229.915 301 255.822 309.303 249.463 317.549C240.649 323.247 213.259 289.162 207.869 291.347C195.145 294.996 240.284 322.629 240.05 324.874C239.846 327.731 229.961 318.94 228.554 318.357C219.369 311.71 210.619 305.998 204.498 296.155Z" fill="#703D22"/>
<path d="M70.3606 149.21C63.8248 170.399 44.473 194.276 25.1795 197.474C21.8529 197.703 28.4318 223.511 28.628 222.592C54.1933 217.391 83.7789 175.631 80.3465 154.743C77.6229 152.226 74.0306 150.544 70.3606 149.21Z" fill="#FFC73C"/>
<path d="M198.186 260.185C197.686 269.006 185.041 297.559 183.682 293.157C187.279 280.931 198.689 268.052 195.418 254.54C193.585 256.771 193.826 264.15 191.615 267.645C189.425 272.173 178.93 295.873 178.309 290.199C182.583 278.741 191.419 268.23 192.561 255.361C192.702 247.257 187.683 255.177 187.15 258.741C183.878 267.827 181.515 276.31 176.759 284.842C171.136 294.953 162.387 295.442 168.602 281.986C172.429 273.107 173.832 265.998 166.279 277.265C160.843 289.218 156.802 300.653 151.94 312.778C161.464 314.878 170.655 319.405 177.363 326.979C187.014 308.529 202.323 286.685 200.65 270.137C200.076 269.665 199.965 269.782 199.556 271.651C198.602 275.557 197.146 279.199 195.18 283.047C192.226 287.363 190.645 293.765 186.538 296.12C185.263 293.127 191.255 286.717 192.303 283.666C196.275 276.141 201.122 263.982 198.186 260.184V260.185Z" fill="#FFC0A1"/>
<path d="M298.823 111.461C258.596 108.666 277.232 110.557 269.801 134.534C267.935 140.284 263.448 143.579 259.285 147.764C260.263 160.106 262.013 172.404 262.145 184.911C261.925 187.035 263.004 186.204 264.589 184.856C270.251 180.478 274.564 176.415 277.564 169.653C282.938 162.782 282.645 154.747 283.05 146.389C283.72 133.245 288.395 120.017 298.823 111.461Z" fill="#FFA0C1"/>
<path d="M208.008 37.1136C218.447 53.2225 209.384 65.6968 214.62 66.7711C227.832 73.0522 243.492 77.6468 255.755 72.2639C251.781 58.9792 240.673 44.8234 228.532 36.2441C221.973 32.8794 215.014 35.0811 208.008 37.1136Z" fill="#703D22"/>
<path d="M189.666 101.923C207.469 89.0366 216.119 56.1134 206.659 39.3972C205.552 37.2614 205.01 38.3306 202.621 39.4437C176.021 53.7323 180.47 80.3304 189.666 101.923Z" fill="#703D22"/>
<path d="M22.6878 185.416C23.0938 187.705 22.3376 192.12 23.932 194C33.9281 193.06 42.3458 186.256 49.2529 179.181C54.6679 174.671 73.9292 146.559 65.7483 147.88C44.6296 145.148 21.238 165.801 22.6878 185.416Z" fill="#FFC73C"/>
<path d="M288.04 173.347C293.834 166.513 301.052 175.356 299.845 182.049C300.393 184.579 295.643 186.023 299.401 186.919C317.108 191.871 329.175 169.067 319.784 155.982C305.995 138.794 284.166 155.412 288.04 173.347Z" fill="white"/>
<path d="M291.487 123.948C285.827 133.544 284.884 144.703 284.857 155.856C285.24 158.616 283.383 161.434 284.264 163.675C286.618 165.025 286.413 161.308 287.52 159.379C294.389 143.563 312.706 141.261 322.454 154.626C330.759 151.431 338.803 148.271 346.938 144.859C327.607 142.055 305.521 139.452 291.487 123.948Z" fill="#703D22"/>
<path d="M214.146 184.645C218.057 177.206 239.093 154.488 232.219 156.092C221.533 154.229 218.387 147.963 212.151 142.92C206.507 147.297 198.209 157.362 199.147 160.949C204.336 168.494 208.478 177.133 214.146 184.645Z" fill="#FFA0C1"/>
<path d="M122.981 125.121C131.887 112.142 118.389 95.4447 104.803 102.137C93.764 107.469 92.14 124.544 102.73 130.403C104.515 131.276 109.241 133.459 109.349 131.453C107.494 122.969 118.327 117.696 122.981 125.12V125.121Z" fill="white"/>
<path d="M167.918 131.931C176.026 118.973 164.034 102.799 150.459 108.449C137.902 113.913 137.236 135.08 151.03 139.134C150.952 129.745 161.944 125.105 167.918 131.93V131.931Z" fill="white"/>
<path d="M97.5364 104.709C110.374 91.5838 128.441 99.1362 128.64 116.725C131.927 115.358 136.032 116.207 139.325 118.129C142.615 109.98 147.91 104.569 157.138 104.219C156.774 103.178 156.598 102.713 155.411 103.005C146.104 104.534 138.41 95.4949 141.287 86.4216C130.654 95.9567 126.884 85.0878 123.935 90.3116C118.855 95.7926 111.57 98.0315 104.191 98.2125C102.452 98.2523 101.348 97.6628 99.3228 97.4276C98.268 99.1176 98.2942 102.201 97.5364 104.709Z" fill="#703D22"/>
<path d="M173.004 162.327C169.194 160.642 166.513 156.738 162.382 154.946C157.927 162.478 153.808 171.243 147.137 177.578C143.923 179.467 146.863 181.614 148.188 184.26C151.521 189.655 153.758 194.291 157.301 199.699C162.435 187.01 167.018 174.433 173.004 162.327Z" fill="#FF5C33"/>
<path d="M123.691 139.477C123.475 147.766 127.492 152.683 133.255 145.327C136.418 138.364 140.59 122.508 137.019 120.37C134.921 119.322 130.252 117.316 128.266 119.572C126.026 125.895 123.485 132.8 123.691 139.477Z" fill="#703D22"/>
<path d="M24.2129 225.483C11.7081 223.796 18.5229 250.27 26.5051 252.528C39.0843 254.95 34.6801 249.546 32.431 243.515C29.0231 236.902 28.146 223.728 24.2129 225.483Z" fill="#FFC0A1"/>
<path d="M269.037 97.4424C282.874 93.171 273.918 63.1506 263.308 66.3428C256.852 68.6883 261.585 76.9546 263.43 81.5822C265.702 87.2129 267.173 91.6468 269.037 97.4424Z" fill="#EC987E"/>
<path d="M181.398 111.491C182.9 119.348 192.524 142.196 202.079 129.337C197.611 121.961 192.726 114.131 188.611 106.377C184.828 104.954 181.166 109.042 181.398 111.491Z" fill="#EC987E"/>
<path d="M82.9129 116.897C82.6913 122.421 84.2747 133.517 91.8847 131.49C92.7102 121.764 93.573 111.714 95.0845 101.835C86.3876 97.6499 82.2912 109.885 82.9129 116.897Z" fill="#703D22"/>
<path d="M167.74 143.668C176.208 144.658 181.732 128.134 181.854 122.751C182.1 119.193 178.78 112.544 175.66 116.49C174.231 125.513 170.446 134.851 167.74 143.668Z" fill="#703D22"/>
<path d="M234.969 37.5948C239.395 32.2669 233.124 31.8753 229.147 29.5137C223.74 27.0312 222.557 26.5753 220.4 31.6292C225.841 31.2951 230.689 33.7877 234.969 37.5948Z" fill="#2D881A"/>
<path d="M83.2402 157.152C83.7122 165.675 79.1345 167.676 87.2655 167.689C88.8108 167.534 91.1707 167.88 91.7543 166.688C89.4232 163.095 86.8257 159.95 83.2402 157.152Z" fill="#FFC73C"/>
<path d="M308.233 207.092C308.578 201.301 300.893 210.485 298.856 211.24C301.985 220.515 308.353 211.546 308.233 207.092Z" fill="white"/>
<path d="M172.397 116.977C173.024 114.7 173.235 112.406 173.355 110.023C171.974 110.264 170.725 110.482 169.295 110.731C170.754 112.735 171.51 114.873 172.396 116.977H172.397Z" fill="#703D22"/>
<path d="M93.5432 240.199C80.6891 240.872 76.6866 258.121 92.5917 258.311C103.747 258.083 105.58 242.064 93.5432 240.199Z" fill="white"/>
<path d="M233.815 127.34C230.807 130.255 220.929 137.804 230.952 138.569C237.585 138.436 242.05 134.058 244.528 128.464C248.656 115.117 239.186 121.437 233.815 127.34Z" fill="white"/>
<path d="M405.639 249.785C403.665 223.505 392.755 201.399 374.895 187.451C384.44 185.762 391.783 183.219 397.961 179.467L398.024 179.416C401.642 175.615 401.401 170.469 401.166 165.493C401.099 164.061 401.029 162.579 401.057 161.15C400.448 147.52 398.856 133.14 391.404 120.325C384.872 107.89 375.633 99.7839 363.944 96.2331C343.426 90.0019 320.265 98.9271 304.427 107.528C303.228 108.322 303.213 108.323 302.404 108.389L302.179 108.407C292.631 106.643 282.504 106.778 272.079 108.809C271.39 107.792 271.119 105.757 270.856 103.787C270.691 102.544 270.533 101.366 270.274 100.426C270.801 99.9827 271.453 99.6909 272.142 99.383C273.037 98.9829 273.962 98.5685 274.745 97.7751C280.221 94.0695 279.729 80.5531 275.663 71.8055C272.399 64.785 267.428 61.6546 262.077 63.2025C260.058 63.4376 259.183 65.4905 258.544 66.9901C258.343 67.4604 258.15 67.9121 257.956 68.2276C257.216 66.8717 256.498 65.5201 255.786 64.1794C252.382 57.7697 249.167 51.7161 244.193 46.312C243.239 44.9536 241.987 43.8574 240.777 42.7968C239.039 41.2743 237.537 39.959 237.534 38.3604C237.531 37.1973 238.336 35.9125 239.994 34.434C245.666 33.3547 251.393 34.9508 256.132 38.9321C261.649 43.5673 264.992 50.8389 264.858 57.9101L264.853 58.1359L265.068 58.207C266.753 58.761 269.853 57.6521 273.777 56.248C276.776 55.1755 280.176 53.9592 283.403 53.3832C285.689 52.5238 288.247 51.9487 290.722 51.393C295.079 50.4152 299.584 49.4036 302.904 46.7925L303.043 46.6825L303.017 46.5074C300.68 30.418 290.511 14.1196 277.715 5.95141C268.463 0.0449576 258.3 -1.50292 248.32 1.47695C239.33 4.30457 227.729 10.3303 223.531 22.9442C222.791 24.5141 221.753 25.7456 220.749 26.9357C219.776 28.0911 218.771 29.2837 218.03 30.7859C201.557 34.2657 190.267 41.517 184.471 52.3395C177.706 64.9737 178.512 81.9571 186.868 102.816L186.901 102.876C187.202 103.315 187.165 103.462 187.154 103.486C187.077 103.667 186.407 103.773 185.819 103.867C183.502 104.234 179.222 104.915 179.16 112.286C178.609 112.246 178.112 112.333 177.698 112.405C177.197 112.493 176.874 112.542 176.646 112.431C176.716 111.038 176.799 109.784 176.879 108.583C177.017 106.507 177.148 104.547 177.177 102.302C177.533 85.502 168.526 70.9173 153.67 64.2395C138.48 57.4119 121.09 60.4797 108.188 72.2385C103.477 63.9654 96.1123 58.5242 87.4036 56.8985C82.3006 56.0738 77.9581 57.4593 75.4892 60.6963C73.0354 63.9138 72.8772 68.4974 75.0781 73.3153C75.5111 74.1662 75.8858 74.9021 75.8063 75.0721C75.7979 75.0907 75.7471 75.1541 75.4409 75.2277C72.2834 75.319 68.9263 77.3186 67.2668 80.1005C66.0107 82.2067 65.8873 84.4811 66.9412 86.5458C67.101 86.7708 67.1645 86.9603 67.1146 87.0634C67.0554 87.1878 66.8346 87.2546 66.7602 87.2597L66.6815 87.2732C61.192 89.0418 57.6573 93.0705 56.7286 98.615C55.5258 105.802 58.9176 114.218 64.7944 118.626C69.3137 122.016 74.6611 122.564 79.8917 120.185C80.9202 127.872 81.9649 134.464 91.483 136.114C91.4356 137.071 91.3993 137.909 91.3671 138.648C91.2123 142.241 90.2777 144.786 88.5632 146.284C87.3342 147.358 85.4877 148.972 82.7836 151.873C81.075 151.112 79.4654 150.076 77.7636 148.981C75.2726 147.377 72.6962 145.719 69.7349 144.946C61.7063 142.318 51.6248 143.966 42.0804 149.47C31.0059 155.858 23.0695 165.943 20.8509 176.458C19.1101 186.237 20.7494 195.925 22.3345 205.295C22.836 208.258 23.3537 211.321 23.7639 214.365C23.9441 215.716 24.2849 217.11 24.6148 218.459C24.9371 219.776 25.2441 221.027 25.4031 222.216C21.6265 221.971 19.2184 222.497 17.6367 223.917C15.3014 226.013 15.0078 229.936 14.8285 235.692C14.8641 243.818 19.3241 255.676 29.1138 257.222C12.5592 273.416 2.66799 292.208 0.496733 311.608C-1.47829 329.244 3.09259 347.218 13.3678 362.215C24.6986 378.753 42.0618 390.771 62.2578 396.054C69.9582 398.069 77.8896 399.07 85.9453 399.07C101.209 399.07 116.92 395.475 132.342 388.364C151.307 378.811 165.768 365.535 175.337 348.878C175.947 347.525 176.73 346.151 177.56 344.696C180.342 339.815 183.49 334.29 179.221 329.456C180.57 326.036 182.742 322.65 185.04 319.068C186.769 316.372 188.553 313.591 189.949 310.794C197.264 325.709 204.74 339.536 212.65 354.163L216.054 360.462C216.663 361.761 217.269 362.344 217.92 362.253C219.683 361.998 220.665 356.407 221.857 348.537C222.31 345.555 222.738 342.728 223.144 341.543C225.23 341.723 227.497 342.983 229.893 344.314C231.924 345.444 234.025 346.611 236.115 347.175C244.415 351.016 252.657 352.896 259.631 354.226C278.803 365.087 300.696 365.785 317.619 365.178C317.761 365.179 317.901 365.18 318.044 365.18C343.786 365.179 373.623 341.287 389.895 317.539C401.538 298.868 407.425 273.539 405.64 249.785H405.639ZM225.562 24.5242C229.443 12.812 243.318 3.61945 257.15 3.59577C279.559 3.69388 294.663 24.9285 299.272 44.7066C294.991 46.7629 289.947 48.0155 284.612 49.3418C280.893 50.2663 277.047 51.2221 273.5 52.4773C270.751 53.6217 268.911 54.251 268.232 53.8594C267.788 53.6031 267.688 52.8148 267.535 51.6222C267.113 48.3268 266.329 42.1928 256.65 34.3646C253.831 32.5859 249.05 30.1397 244.071 30.1397C242.398 30.1397 240.702 30.4163 239.052 31.087C237.946 30.5356 236.833 29.9342 235.655 29.2981C232.587 27.6411 229.416 25.9275 226.236 25.0419C225.505 24.783 225.514 24.7441 225.562 24.5251V24.5242ZM234.933 37.1542C230.429 33.2177 225.988 31.2917 221.399 31.2917C221.225 31.2917 221.051 31.2951 220.877 31.3002C221.743 29.3598 222.416 28.4633 223.227 28.1503C224.376 27.7071 226.004 28.4083 228.991 29.7768C229.953 30.3486 231.031 30.8003 232.075 31.2376C234.002 32.0445 235.821 32.8066 236.131 34.0728C236.329 34.8764 235.935 35.8855 234.933 37.1542ZM260.71 68.9728C261.176 67.8884 262.06 67.1229 263.397 66.6366C263.911 66.4818 264.42 66.4082 264.919 66.4082C269.227 66.4082 272.875 71.8757 274.591 77.5038C276.961 85.2804 276.27 94.643 269.235 97.0561C267.454 91.5201 265.993 87.115 263.715 81.4683C263.47 80.8567 263.177 80.1826 262.865 79.4653C261.37 76.0346 259.51 71.7649 260.71 68.9728ZM24.8652 198.072C25.009 197.792 25.1485 197.783 25.2297 197.776C44.9664 194.505 64.0628 170.295 70.5579 149.609C74.8066 151.179 77.8355 152.865 80.0617 154.897C81.6181 164.72 75.8994 179.829 65.1159 194.368C53.9703 209.393 40.3972 219.8 28.7619 222.252C27.9254 220.092 23.275 201.16 24.8652 198.072ZM83.5736 157.809C86.523 160.2 88.959 162.97 91.3925 166.694C90.9341 167.286 89.6552 167.309 88.5175 167.329C88.0608 167.337 87.6302 167.344 87.2665 167.382C84.6233 167.379 83.3639 167.156 82.9206 166.616C82.5155 166.123 82.6965 165.205 82.9705 163.816C83.2573 162.358 83.643 160.403 83.5736 157.808V157.809ZM83.2184 116.87C82.7785 111.917 84.6411 104.954 88.4186 102.34C89.431 101.639 90.5247 101.288 91.6919 101.288C92.6621 101.288 93.6822 101.531 94.7471 102.014C93.244 111.908 92.3686 122.166 91.5972 131.246C89.8632 131.657 88.3602 131.363 87.1244 130.373C83.7174 127.644 83.0797 120.372 83.2184 116.909L83.2192 116.889L83.2175 116.87H83.2184ZM98.1076 103.719C98.2624 103.014 98.3799 102.291 98.4941 101.584C98.7318 100.11 98.9576 98.7148 99.4854 97.7556C100.234 97.8537 100.85 97.9992 101.446 98.1396C102.325 98.346 103.14 98.538 104.199 98.5186C105.268 98.4915 106.415 98.4204 107.614 98.2826C104.282 99.1301 101.027 100.965 98.1067 103.719H98.1076ZM208.09 72.0169C204.751 84.4447 197.929 95.4118 189.798 101.448C177.287 71.8249 181.649 51.0572 202.751 39.7213C203.281 39.4743 203.713 39.2341 204.094 39.0226C204.67 38.7021 205.079 38.4745 205.383 38.4745C205.435 38.4745 205.483 38.4813 205.529 38.4949C205.786 38.5727 206.058 38.9034 206.392 39.5479C210.817 47.3668 211.451 59.5045 208.09 72.0169ZM272.022 117.847C271.89 115.084 271.803 113.258 272.875 112.209C274.903 110.225 281.674 110.579 298.044 111.714C288.914 119.523 283.488 131.796 282.745 146.374C282.701 147.269 282.665 148.161 282.629 149.047C282.337 156.431 282.061 163.406 277.324 169.465L277.285 169.529C274.391 176.051 270.369 179.999 264.391 184.622C263.942 185.003 262.758 186.019 262.515 185.897C262.513 185.896 262.364 185.768 262.452 184.909C262.362 176.412 261.514 167.889 260.694 159.645C260.311 155.79 259.915 151.804 259.602 147.88C260.38 147.101 261.177 146.345 261.949 145.612C265.352 142.381 268.567 139.33 270.094 134.625C272.46 126.99 272.197 121.487 272.022 117.847ZM132.991 145.166C130.862 147.875 128.807 149.045 127.203 148.471C125.133 147.727 123.875 144.199 123.998 139.486V139.468C123.801 133.078 126.1 126.598 128.322 120.331L128.536 119.732C130.324 117.789 134.525 119.465 136.862 120.634C140.104 122.574 136.192 138.099 132.991 145.166ZM232.289 156.39C232.784 156.275 233.125 156.298 233.224 156.456C234.067 157.774 227.895 165.668 222.936 172.009C219.216 176.767 215.691 181.274 214.105 184.081C211.04 179.959 208.383 175.456 205.812 171.098C203.783 167.66 201.687 164.105 199.432 160.821C198.641 157.402 206.685 147.629 212.148 143.312C213.711 144.596 215.099 145.971 216.442 147.302C220.442 151.266 224.22 155.008 232.166 156.394L232.228 156.405L232.289 156.39ZM146.025 179.236C146.137 178.733 146.552 178.277 147.292 177.843L147.348 177.8C152.663 172.753 156.335 166.233 159.885 159.927C160.781 158.334 161.631 156.825 162.507 155.337C164.474 156.244 166.133 157.652 167.74 159.017C169.322 160.359 170.82 161.631 172.591 162.475C168.105 171.583 164.324 181.158 160.665 190.421C159.551 193.243 158.401 196.156 157.237 199.04C155.392 196.185 153.925 193.583 152.375 190.837C151.158 188.679 149.9 186.448 148.463 184.123C148.126 183.452 147.698 182.825 147.283 182.218C146.537 181.127 145.833 180.096 146.026 179.236H146.025ZM285.279 173.235C287.002 182.269 291.71 188.379 298.537 190.442C305.422 192.521 313.543 190.115 319.23 184.313C325.72 177.689 327.637 168.324 324.488 158.62L324.438 158.526C324.16 158.168 324.069 157.85 324.162 157.554C324.515 156.426 327.328 155.546 329.81 154.769C331.581 154.214 333.254 153.691 334.218 153.078C336.693 152.089 339.3 151.007 341.822 149.96C346.512 148.012 351.36 145.998 355.702 144.442L355.802 144.407L355.857 144.316C358.671 139.809 362.201 137.919 366.077 138.86C372.125 140.324 377.634 148.624 378.358 157.362C379.18 167.278 374.044 175.356 364.266 179.524L364.113 179.589L364.085 179.753C363.617 182.435 363.527 185.325 363.44 188.119C363.249 194.275 363.051 200.639 358.9 205.755C353.712 214.397 339.609 222.4 326.792 223.973C320.418 224.756 311.51 224.355 305.017 218.091C309.486 215.123 311.625 209.436 311.109 205.533C310.85 203.583 309.955 202.284 308.589 201.874C306.918 201.374 303.857 202.005 298.801 207.852L298.759 207.914C298.58 208.268 298.369 208.429 298.181 208.429C296.283 208.318 292.573 198.159 291.176 194.335C290.808 193.325 290.517 192.528 290.346 192.121L290.296 192.001L290.174 191.954C288.38 191.261 286.96 193.26 285.318 195.573C284.125 197.251 282.774 199.152 281.021 200.474C277.426 203.684 271.547 205.985 268.535 204.297C266.652 203.243 266.041 200.803 266.713 197.078C268.594 190.513 271.783 185.28 275.161 179.741C276.626 177.337 278.141 174.852 279.538 172.258C280.051 171.587 280.501 170.682 280.934 169.807C281.677 168.31 282.445 166.761 283.463 166.528C283.91 166.425 284.402 166.577 284.966 166.99C285.133 167.99 285.107 168.957 285.081 169.893C285.051 170.968 285.021 172.078 285.279 173.235H285.279ZM285.164 155.857C285.19 145.253 285.987 134.121 291.542 124.463C305.089 139.151 326.029 142.161 344.522 144.82L345.799 145.004C337.438 148.493 329.396 151.627 322.563 154.256C317.945 148.045 311.288 144.929 304.268 145.708C296.938 146.518 290.572 151.584 287.254 159.227C286.888 159.864 286.667 160.657 286.453 161.423C286.18 162.397 285.899 163.404 285.388 163.613C285.164 163.704 284.879 163.655 284.512 163.461C284.128 162.364 284.429 161.076 284.746 159.715C285.04 158.45 285.345 157.142 285.164 155.857ZM318.679 179.307C314.03 185.95 306.856 188.684 299.473 186.621C298.464 186.381 298.286 186.142 298.256 186.05C298.186 185.835 298.573 185.384 298.914 184.986C299.573 184.219 300.389 183.269 300.158 182.045C300.878 177.876 298.436 172.783 294.907 171.118C292.59 170.025 290.235 170.584 288.221 172.688C286.377 162.72 292.527 153.947 299.398 150.675C306.527 147.28 314.06 149.335 319.536 156.16C324.108 162.532 323.756 172.05 318.679 179.307ZM302.097 209.104C303.903 207.508 306.635 205.093 307.553 205.543C307.849 205.687 307.979 206.217 307.927 207.075L307.927 207.102C308.004 209.956 305.411 214.495 302.888 214.944C301.058 215.275 299.901 213.258 299.237 211.4C299.924 211.025 300.942 210.125 302.097 209.104ZM232.017 300.848C233.569 302.029 235.129 303.121 236.64 304.18C240.138 306.629 243.443 308.945 246.417 312.133C247.901 314.678 247.56 315.339 247.345 315.505C245.973 316.552 238.587 312.13 236.411 309.935C235.741 309.376 235.086 308.899 234.453 308.439C231.672 306.413 229.966 305.171 232.018 300.848H232.017ZM195.659 135.99C198.619 136.396 201.353 135.113 203.78 132.188C204.36 133.167 205.347 134.22 206.384 135.326C208.139 137.198 209.953 139.132 209.692 140.649C209.579 141.308 209.072 141.861 208.141 142.341L208.074 142.389C203.953 146.195 200.43 151.032 197.597 156.77C193.725 152.093 191.155 148.2 189.266 145.338C186.914 141.776 185.734 139.996 184.352 140.097C182.649 140.232 181.216 143.395 177.752 151.038C176.612 153.554 175.205 156.657 173.512 160.258C171.536 157.22 168.379 155.406 165.577 153.796C165.059 153.498 164.549 153.205 164.056 152.911C163.584 152.104 164.291 150.966 164.977 149.864C165.363 149.243 165.731 148.651 165.868 148.126C177.378 147.502 180.928 137.204 184.361 127.243C184.504 126.827 184.648 126.41 184.792 125.995C186.931 130.631 191 135.359 195.659 135.99ZM121.958 131.392C119.928 140.653 120.786 148.01 124.293 151.167C125.797 152.522 127.689 152.897 129.617 152.226C133.246 150.959 137.811 145.489 139.934 133.934C142.57 138.689 146.323 141.731 150.835 142.751C155.602 143.832 160.895 142.491 165.848 138.977C160.68 151.569 154.744 165.632 144.169 175.626C142.748 175.292 141.603 172.751 140.392 170.065C138.865 166.678 137.286 163.175 134.664 162.7L134.586 162.687L134.511 162.713C132.558 163.387 132.895 166.95 133.286 171.075C133.639 174.824 134.04 179.065 132.733 181.537C125.59 183.72 115.026 183.527 106.65 176.464C99.3332 170.295 91.4331 156.865 95.0888 127.869C97.9283 132.239 101.755 134.977 106.2 135.808C111.229 136.748 116.797 135.181 121.958 131.392ZM133.461 185.889C133.518 189.827 134.06 194.172 134.584 198.379C135.268 203.869 135.974 209.539 135.548 214.092C131.733 212.382 127.329 211.112 123.066 209.882C118.269 208.497 113.309 207.067 109.382 205.036C107.722 194.631 104.516 184.647 99.806 175.191C110.503 186.341 121.814 189.94 133.461 185.889ZM107.958 237.034C107.105 248.534 103.147 259.394 96.8151 267.616C90.5704 275.722 82.5899 280.562 74.343 281.244C65.587 281.964 57.0449 277.977 49.6464 269.704C41.068 260.114 34.2666 245.25 29.4293 225.525C51.6688 221.302 73.7366 193.967 81.492 170.914L81.5073 170.836C81.5225 170.585 81.6071 170.49 81.6688 170.441C82.0181 170.16 83.034 170.32 84.2122 170.503C86.4579 170.853 89.8243 171.379 93.3811 169.828C106.988 191.75 108.822 218.463 107.958 237.034ZM367.176 184.915C367.165 184.38 367.077 183.838 366.991 183.308C366.783 182.025 366.69 181.225 367.308 180.986C373.277 180.013 377.783 175.734 379.994 168.937C383.273 158.859 380.783 145.849 374.323 139.319C371.487 136.451 368.103 134.993 364.351 134.993C362.735 134.993 361.05 135.264 359.311 135.81C355.001 137.736 354.029 139.458 353.317 140.715C352.356 142.416 351.997 143.052 341.689 141.511C325.941 139.675 306.225 135.824 293.378 122.225C293.252 121.847 293.311 121.38 293.553 120.836C295.378 116.73 306.947 109.557 313.547 107.042C337.472 96.2856 357.904 95.246 372.634 104.036C387.086 112.661 395.709 130.841 397.571 156.596C397.62 158.886 397.76 160.974 397.884 162.815C398.718 175.264 398.97 179.054 367.176 184.915V184.915ZM259.218 142.217C258.236 136.829 257.312 130.087 258.434 124.673L258.451 124.593L258.426 124.515C257.896 122.908 257.261 122.104 256.484 122.055C256.459 122.053 256.435 122.052 256.41 122.052C254.912 122.052 253.553 124.909 252.238 127.673C251.68 128.846 251.153 129.953 250.72 130.56C249.537 132.482 248.375 134.436 247.251 136.326C243.84 142.062 240.616 147.481 236.609 152.558C220.149 155.712 202.337 124.756 193.758 109.855C190.941 105.26 191.162 105.076 193.872 102.834C196.242 100.873 200.208 97.589 205.304 88.9877C208.474 82.666 210.692 76.5201 212.291 69.597C212.31 69.3052 212.375 68.9347 212.577 68.8307C212.63 68.8036 212.694 68.7909 212.766 68.7909C213.226 68.7909 214.039 69.2925 214.711 69.7069C215.443 70.1586 216.136 70.5858 216.715 70.6771C228.16 75.4781 242.983 80.3306 256.237 75.2556C256.675 75.0416 256.98 74.963 257.147 75.0264C257.327 75.0932 257.456 75.3723 257.649 75.8265C266 94.7605 277.234 128.434 259.218 142.217ZM214.752 66.4953L214.682 66.4716C212.926 66.1113 213.01 64.2792 213.346 60.5C213.829 55.0622 214.555 46.8771 208.487 37.2938L208.773 37.2109C215.654 35.2079 222.153 33.3167 228.356 36.4945C240.887 45.3495 251.468 59.2964 255.383 72.0913C245.285 76.3958 231.617 74.5138 214.752 66.4953ZM183.946 107.515C184.771 106.884 186.434 105.942 188.396 106.624C191.828 113.081 195.774 119.565 199.592 125.835C200.305 127.006 201.012 128.168 201.709 129.319C199.567 132.131 197.293 133.281 194.95 132.748C188.216 131.206 182.75 116.899 181.703 111.447C181.597 110.243 182.538 108.592 183.946 107.515ZM181.547 122.744C181.455 126.853 178.246 137.041 173.281 141.36C171.616 142.807 169.888 143.494 168.144 143.395C168.891 140.986 169.729 138.493 170.54 136.079C172.694 129.677 174.92 123.056 175.95 116.618C176.697 115.702 177.479 115.391 178.274 115.701C180.16 116.431 181.718 120.279 181.547 122.744ZM167.87 131.422C165.131 128.526 161.175 127.606 157.445 129.025C153.45 130.545 150.848 134.323 150.728 138.72C145.159 136.912 141.61 132.006 141.205 125.515C140.821 119.357 143.572 111.78 150.578 108.732C152.39 107.978 154.236 107.61 156.042 107.61C159.955 107.61 163.678 109.338 166.449 112.609C170.167 116.995 172.007 124.472 167.87 131.422ZM143.617 98.9685C146.597 102.414 151.02 104.037 155.485 103.302C156.284 103.106 156.451 103.237 156.711 103.932C148.562 104.381 142.821 108.886 139.173 117.689C136.87 116.406 134.45 115.745 132.216 115.745C131.059 115.745 129.952 115.922 128.938 116.283C128.704 108.183 124.533 101.558 117.982 98.9305C115.631 97.9882 113.178 97.6118 110.716 97.7818C115.309 96.8184 120.249 94.7385 124.159 90.5195L124.202 90.462C125.266 88.5758 126.314 88.9919 128.218 89.7456C130.819 90.7766 134.701 92.3144 140.724 87.313C139.756 91.4262 140.804 95.718 143.617 98.9685ZM104.939 102.412C106.951 101.421 109.052 100.938 111.12 100.938C115.039 100.938 118.838 102.671 121.684 105.959C125.52 110.39 127.362 117.815 122.982 124.568C120.866 121.543 117.393 120.479 114.013 121.86C110.894 123.132 108.015 126.682 109.041 131.475C109.019 131.707 108.914 131.798 108.823 131.85C108.49 132.047 107.243 132.269 102.878 130.136C98.3571 127.635 95.7519 122.738 95.9093 117.039C96.0843 110.718 99.6275 104.977 104.939 102.412ZM94.3369 165.501C93.096 163.541 91.785 161.608 90.4063 159.704C89.1976 158.093 88.0176 157.075 87.0686 156.257C86.0925 155.416 85.448 154.86 85.4531 154.217C85.4598 153.327 86.6533 152.001 89.8895 149.291C90.4942 148.616 90.7421 148.553 90.8148 148.553C90.8266 148.553 90.8334 148.555 90.8376 148.556C91.1624 148.661 91.3333 150.332 91.4982 151.947C91.8078 154.971 92.3052 159.829 94.3369 165.501ZM34.4104 251.977C33.5883 253.003 31.022 253.086 26.5882 252.234C21.4675 250.785 16.3553 238.032 17.9048 230.574C18.3785 228.293 19.676 225.713 23.1202 225.713C23.4501 225.713 23.8003 225.737 24.1716 225.787L24.2579 225.799L24.3374 225.764C24.718 225.593 25.0623 225.587 25.3904 225.744C26.9011 226.462 27.9474 230.342 29.0554 234.449C29.9402 237.733 30.8562 241.129 32.1444 243.623C32.4878 244.544 32.8778 245.443 33.255 246.312C34.3284 248.787 35.2562 250.923 34.4104 251.977ZM34.8587 256.716C34.8959 256.716 34.9323 256.718 34.9661 256.725C35.5134 256.821 35.9558 257.778 36.6257 259.225C38.0712 262.347 40.7618 268.158 49.0205 274.84C55.8464 280.308 63.5781 286.504 73.0988 285.499C82.0198 285.312 89.8294 281.69 96.3102 274.733C106.353 263.953 112.315 245.524 111.583 227.626C116.079 230.912 120.362 234.57 124.51 238.112C127.189 240.399 129.955 242.761 132.774 245.021C126.449 249.38 121.264 252.611 117.084 255.216C110.125 259.553 106.949 261.533 107.276 263.257C107.636 265.16 112.225 266.008 123.311 268.059C128.313 268.984 134.538 270.135 142.158 271.718C143.571 271.837 144.067 271.961 144.216 272.053C144.126 272.202 143.778 272.502 143.493 272.748C143.202 273 142.839 273.314 142.485 273.669C126.457 287.862 111.115 303.117 92.7484 323.123C86.8123 328.985 85.0403 331.319 85.7237 332.366C86.7379 333.918 92.6376 331.671 111.15 324.328C121.049 320.401 134.562 315.041 151.135 308.923C150.97 309.39 150.853 309.828 150.746 310.229C150.548 310.969 150.389 311.565 150.032 312.015C143.238 311.438 137.927 318.403 132.302 325.769C128.366 330.926 124.294 336.258 119.346 339.695C108.715 347.795 93.0165 349.652 80.2842 344.314C68.9898 339.581 61.9321 330.375 60.4156 318.429C60.4088 316.963 60.0637 316.049 59.4437 315.856C59.0927 315.749 58.5285 315.828 57.8273 316.835L57.7791 316.904L57.7732 316.99C56.9197 329.679 64.3673 341.349 77.2096 347.443C93.1036 354.986 112.159 351.649 125.75 338.942C129.293 335.702 132.107 331.925 134.829 328.271C137.633 324.508 140.531 320.616 144.221 317.371C145.284 316.026 147.415 315.523 150.387 315.913C159.145 317.065 174.126 326.139 177.44 333.819C178.494 336.871 175.336 342 172.548 346.526C171.628 348.02 170.759 349.43 170.036 350.752C150.601 381.065 110.164 398.474 71.6947 393.093C38.8553 388.496 14.8048 368.51 5.71129 338.265C-1.70413 311.036 8.30039 280.137 31.2089 259.533C32.9835 257.759 34.1668 256.716 34.8587 256.716ZM152.358 312.558C153.853 308.823 155.287 305.112 156.676 301.519C159.851 293.304 162.85 285.545 166.534 277.435C170.476 271.555 171.285 271.756 171.315 271.771C171.643 271.996 171.344 274.849 168.324 281.856C165.77 287.386 165.462 291.304 167.5 292.34C169.585 293.399 173.718 290.94 177.026 284.991C180.71 278.383 182.94 271.871 185.302 264.977C185.985 262.981 186.692 260.917 187.453 258.787C187.834 256.239 190.307 252.142 191.445 252.142C191.458 252.142 191.47 252.143 191.482 252.143C191.677 252.16 192.306 252.439 192.256 255.335C191.532 263.489 187.644 270.787 183.884 277.844C181.766 281.82 179.575 285.931 178.023 290.092L177.997 290.16L178.006 290.233C178.034 290.489 178.119 291.271 178.709 291.369C178.738 291.373 178.767 291.375 178.798 291.375C180.552 291.374 184.606 283.42 190.553 270.632C191.126 269.399 191.588 268.404 191.875 267.808C193.042 265.964 193.526 263.172 193.995 260.471C194.348 258.439 194.684 256.502 195.279 255.326C197.046 263.98 192.841 272.419 188.771 280.588C186.622 284.9 184.594 288.973 183.389 293.07L183.362 293.159L183.39 293.247C183.597 293.917 184.037 293.937 184.224 293.915C187.131 293.561 197.225 269.962 198.395 261.188C199.975 265.244 196.356 275.332 192.014 283.566C191.657 284.605 190.672 286.099 189.63 287.68C187.631 290.712 185.366 294.15 186.257 296.239L186.391 296.556L186.691 296.385C189.454 294.8 191.112 291.43 192.715 288.17C193.553 286.464 194.422 284.699 195.454 283.187C197.545 279.091 198.944 275.449 199.856 271.716C199.948 271.297 200.131 270.46 200.265 270.231C200.287 270.244 200.317 270.264 200.359 270.296C201.596 283.235 192.521 299.273 183.745 314.784C181.451 318.839 179.28 322.675 177.297 326.445C171.152 319.662 162.545 314.869 152.358 312.558ZM194.351 302.138C196.469 298.189 200.013 291.582 203.091 278.006L203.153 277.603C203.637 274.51 204.093 271.59 202.772 268.793L202.73 268.726C201.273 267.002 200.783 266.421 201.342 264.397C202.043 261.595 200.926 260.126 199.846 258.706C199.048 257.658 198.294 256.667 198.236 255.133L198.231 255.051L198.187 254.981C195.656 251.003 193.433 249.059 191.408 249.059C191.273 249.059 191.138 249.068 191.005 249.085C187.176 249.582 184.8 257.03 182.051 265.655C178.891 275.568 175.312 286.794 168.833 289.284C168.829 289.278 168.826 289.272 168.823 289.265C168.46 288.478 169.755 285.134 171.007 281.899C173.13 276.42 175.325 270.754 173.527 269.142C172.736 268.431 171.336 268.611 169.247 269.693L169.181 269.739C164.85 273.699 162.955 278.803 160.95 284.206C160.242 286.111 159.51 288.082 158.668 289.976C157.175 293.213 156.457 295.579 155.879 297.481C154.49 302.047 143.967 307.941 124.309 315.16C116.685 317.961 107.259 321.423 95.3189 325.912C109.426 310.63 124.576 294.51 141.176 279.484C146.87 274.381 148.564 272.292 148.147 270.887C147.75 269.548 145.478 269.193 141.714 268.606C139.01 268.185 135.646 267.66 131.744 266.597C126.983 265.547 122.851 264.599 118.476 263.594L114.746 262.741C113.683 262.581 113.335 262.436 113.223 262.366C113.341 262.231 113.701 262.003 113.972 261.83C114.205 261.682 114.456 261.522 114.687 261.354C116.967 259.84 119.116 258.34 121.195 256.892C125.112 254.159 128.813 251.578 133.106 249.059C133.689 248.686 134.229 248.352 134.721 248.048C136.788 246.771 138.036 246.001 138.049 244.947C138.061 243.973 137.082 243 134.198 241.118C126.447 234.556 119.414 228.664 111.85 223.031C110.946 220.716 110.825 217.644 110.708 214.672C110.635 212.829 110.566 211.079 110.324 209.502C120.268 211.989 127.046 214.631 131.554 216.388C136.055 218.142 138.313 219.022 139.488 218.108C140.777 217.107 140.415 214.155 139.621 207.687C138.761 200.67 137.331 189.017 137.058 171.363C143.183 180.747 147.181 188.136 150.124 193.575C153.593 199.986 155.36 203.253 157.197 203.253C157.225 203.253 157.254 203.252 157.284 203.251C159.321 203.135 160.89 199.242 164.68 189.835C168.491 180.377 174.249 166.081 184.452 145.91L184.485 145.795C184.51 145.452 184.59 145.38 184.587 145.38C185.798 145.143 191.987 155.731 196.974 164.243C205.566 178.913 211.854 189.312 214.493 189.507C214.828 189.538 215.13 189.403 215.36 189.115C219.693 182.828 224.287 176.496 228.731 170.373C237.71 158 246.988 145.214 254.811 131.849C255.158 140.683 256.003 149.376 256.824 157.792C257.751 167.314 258.709 177.161 258.938 187.146C258.814 189.051 259.109 190.116 259.861 190.497C261.164 191.158 263.289 189.37 265.536 187.48C266.374 186.775 267.181 186.096 267.882 185.606C263.906 192.796 262.365 202.645 266.373 206.703C268.391 208.745 272.61 210.109 281.246 205.005L281.305 204.959C284.043 202.258 286.679 199.602 288.831 196.81C289.483 197.601 289.785 198.527 290.104 199.501C290.373 200.324 290.651 201.175 291.156 201.983C292.964 204.901 292.598 205.908 290.274 208.123C285.138 214.321 280.825 220.352 276.26 226.737C274.862 228.691 273.449 230.669 271.968 232.717C271.684 233.262 271.3 233.781 270.929 234.283C270.077 235.435 269.198 236.627 269.953 237.843L269.995 237.897C272.48 240.416 274.951 242.932 277.414 245.44C292.166 260.462 306.112 274.663 321.392 288.194C303.533 286.497 285.307 284.656 267.673 282.874C256.749 281.77 245.847 280.669 235.001 279.597C234.056 279.529 233.45 279.705 233.151 280.14C232.875 280.541 232.901 281.097 233.231 281.837L233.174 282.146C232.681 284.827 232.215 287.361 231.251 289.639C230.86 289.769 230.489 289.874 230.136 289.974C228.725 290.37 227.507 290.714 226.86 292.274L226.842 292.341C226.488 294.506 227.187 295.574 227.862 296.609C228.711 297.909 229.515 299.139 228.058 302.787C227.175 302.216 225.653 300.899 223.781 299.278C218.135 294.392 209.604 287.009 205.429 288.746C204.018 289.335 203.218 290.897 203.05 293.377C202.97 294.136 202.567 294.551 202.101 295.032C201.716 295.429 201.318 295.838 201.096 296.439C200.346 297.969 200.669 299.465 200.982 300.912C201.064 301.291 201.142 301.652 201.2 302.01C199.037 304.46 200.552 307.278 201.77 309.55C201.961 309.902 202.145 310.247 202.313 310.581C201.789 318.575 204.02 324.168 210.526 331.19C213.59 334.496 215.901 336.053 217.431 337.083C219.596 338.542 219.832 343.017 218.139 350.508C217.933 351.414 217.713 352.391 217.476 353.448C213.089 345.948 208.997 338.297 205.035 330.89C201.572 324.417 197.992 317.723 194.176 311.058C191.462 307.524 192.132 306.276 194.352 302.138H194.351ZM233.759 336.693C233.893 336.693 234.027 336.689 234.159 336.682L234.603 336.654L234.419 336.249C233.496 334.218 231.402 333.102 228.503 331.557C223.518 328.902 215.986 324.887 206.816 312.671C205.115 310.879 202.939 306.209 202.76 305.014C203.062 305.259 203.779 306.011 205.378 308.313C209.871 313.156 225.29 329.177 235.081 332.084L235.219 332.124L235.338 332.045C235.538 331.912 235.646 331.718 235.653 331.486C235.688 330.257 232.476 327.776 226.316 323.133C217.057 316.154 204.377 306.595 203.658 299.862C203.529 298.652 203.794 297.608 204.469 296.684C210.031 305.441 217.697 310.941 225.806 316.757C226.658 317.368 227.515 317.983 228.375 318.606L228.437 318.64C228.806 318.793 230 319.707 231.265 320.676C235.397 323.841 238.657 326.219 239.877 325.667C240.076 325.577 240.323 325.37 240.356 324.906C240.437 324.122 238.117 322.341 230.919 317.04C220.639 309.47 205.104 298.029 205.945 293.348C206.09 292.546 206.746 291.988 207.985 291.631C210.065 290.793 216.342 296.377 222.99 302.291C231.606 309.954 241.211 318.5 247.108 318.498C248.049 318.498 248.897 318.28 249.63 317.806L249.706 317.737C250.575 316.61 250.916 315.408 250.72 314.163C250.135 310.442 244.851 306.81 239.741 303.299C235.008 300.047 230.118 296.685 229.808 293.671C233.046 290.606 239.586 296.186 244.849 300.679C246.562 302.14 248.18 303.521 249.579 304.534C252.991 307.501 256.395 309.904 260 312.449C260.881 313.071 261.767 313.696 262.658 314.333C262.16 316.214 261.33 317.994 260.451 319.874C259.582 321.734 258.684 323.657 258.083 325.773C255.705 334.464 253.833 342.863 256.891 350.051C249.665 348.932 236.491 344.614 225.586 338.572C216.135 333.336 205.117 325.068 205.398 315.091C209.369 320.591 225.089 336.693 233.76 336.693H233.759ZM262.412 322.056C264.045 317.955 265.78 315.792 267.426 315.792C267.448 315.792 267.47 315.792 267.492 315.794C287.605 317.301 307.884 313.612 324.59 305.405C344.034 295.855 357.467 280.687 363.44 261.542L363.459 261.482L363.452 261.418C363.183 258.938 362.895 258.07 362.31 257.975C361.562 257.863 360.998 259.007 359.32 262.668C355.99 269.94 349.791 283.476 336.519 293.037C314.659 309.926 285.2 312.183 264.915 312.404C261.532 310.855 258.376 308.253 255.323 305.736C254.02 304.66 252.672 303.549 251.335 302.544C250.177 301.611 249.026 300.654 247.873 299.696C243.78 296.294 239.549 292.779 234.923 290.312C234.941 290.127 234.961 289.91 234.984 289.667C235.17 287.627 235.605 282.868 237.212 282.868H237.24C247.556 283.899 258.215 285.228 268.523 286.512C288.365 288.984 308.882 291.54 328.221 292.148L328.409 292.154L328.499 291.989C329.366 290.409 325.712 287.018 316.624 278.82C308.335 271.343 296.984 261.104 283.969 247.166C281.236 243.933 278.893 241.946 277.182 240.495C274.131 237.905 275.722 232.689 281.956 224.845C284.963 221.063 289.06 215.909 294.246 209.051C301.871 226.88 319.445 230.199 333.444 227.325C350.407 223.841 367.425 209.967 367.129 190.171C367.065 189.303 367.214 188.74 367.574 188.499C368.419 187.932 370.517 188.975 372.048 189.737C372.521 189.974 372.968 190.197 373.359 190.368C402.124 213.215 411.05 260.776 394.117 301.021C385.364 322.876 364.065 344.121 338.541 356.461C326.994 361.503 315.164 361.297 302.641 361.075L301.031 361.047C291.431 360.801 263.07 357.638 258.823 346.702L258.796 346.632L258.741 346.583C257.288 345.306 258.815 331.098 262.412 322.056ZM49.034 178.966C43.3585 184.78 34.6092 192.614 24.0684 193.679C23.1718 192.473 23.1566 190.221 23.1431 188.226C23.1363 187.164 23.1287 186.161 22.9925 185.378C22.3548 176.669 26.6017 167.307 34.6472 159.691C43.6816 151.139 55.2957 146.833 65.7096 148.183L65.7536 148.189L65.7976 148.183C66.9733 147.99 67.2144 148.52 67.293 148.693C69.1556 152.785 53.9982 174.829 49.0332 178.966H49.034ZM169.824 110.95L173.029 110.391C172.932 112.191 172.765 114.091 172.326 116.005C172.306 115.955 172.285 115.905 172.264 115.855C171.596 114.226 170.907 112.547 169.824 110.95Z" fill="black"/>
<path d="M92.5917 258.311C76.6866 258.121 80.6891 240.872 93.5432 240.199C105.58 242.064 103.747 258.084 92.5917 258.311ZM91.432 254.309C99.7762 254.554 101.53 245.79 94.7545 243.407C86.0449 243.134 79.4872 253.99 91.432 254.309Z" fill="black"/>
<path d="M95.0811 233.276C93.1433 233.446 88.108 232.618 90.2049 229.416C100.521 230.94 108.464 224.171 100.563 216.008C92.6045 212.434 82.2616 210.877 86.1753 200.195C90.5635 197.119 83.5905 207.058 92.6612 209.584C113.567 213.707 107.55 233.613 95.0819 233.276H95.0811Z" fill="black"/>
<path d="M78.161 216.232C77.6036 212.825 82.0298 213.007 82.122 216.431C81.7794 219.593 78.4993 219.286 78.161 216.232Z" fill="black"/>
<path d="M98.7544 206.207C98.7189 202.699 102.508 203.44 102.463 206.636C102.044 209.818 98.8948 209.588 98.7544 206.207Z" fill="black"/>
<path d="M230.952 138.569C220.929 137.804 230.807 130.255 233.815 127.34C239.185 121.437 248.656 115.117 244.528 128.464C242.05 134.058 237.584 138.436 230.952 138.569ZM228.922 135.097C235.253 137.863 245.876 126.918 242.59 123.248C237.57 126.594 233.627 130.861 228.922 135.097Z" fill="black"/>
<path d="M220.628 114.803C224.94 98.7343 211.978 95.087 217.516 94.6709C227.121 103.992 223.747 107.621 223.304 117.57C225.955 125.787 232.574 117.425 237.173 116.519C242.452 121.942 219.008 129.568 220.628 114.803Z" fill="black"/>
<path d="M211.403 106.401C213.576 106.089 215.567 109.944 212.659 110.529C210.253 111.161 207.163 106.615 211.403 106.401Z" fill="black"/>
<path d="M230.744 96.1261C232.844 95.7539 234.146 99.7852 231.091 99.7928C228.806 99.901 227.199 95.9391 230.744 96.1261Z" fill="black"/>
<path d="M125.079 154.48C118.168 153.451 109.901 165.144 118.895 168.114C126.631 169.595 135.722 156.138 125.079 154.48Z" fill="white"/>
<path d="M125.079 154.48C135.722 156.137 126.631 169.594 118.895 168.114C109.901 165.144 118.168 153.451 125.079 154.48ZM124.376 156.875C118.169 156.553 113.347 165.818 121.655 165.298C125.646 164.915 131.238 157.357 124.376 156.875Z" fill="black"/>
</g>
<defs>
<clipPath id="clip0_42_549">
<rect width="406" height="399.179" fill="white"/>
</clipPath>
</defs>
</svg>
