<svg width="300" height="387" viewBox="0 0 300 387" fill="none" xmlns="http://www.w3.org/2000/svg">
<path fill-rule="evenodd" clip-rule="evenodd" d="M148.441 48.0175C177.238 51.7553 200.461 67.5382 223.602 85.0866C252.512 107.01 288.967 124.772 296.478 160.278C305.089 200.98 293.121 246.186 263.959 275.845C234.63 305.675 190.253 311.879 148.441 310.84C107.852 309.831 67.0058 299.19 38.5226 270.243C10.232 241.492 -2.10393 200.551 0.291476 160.278C2.55359 122.246 20.5111 85.6695 50.8691 62.6657C78.123 42.0139 114.536 43.6165 148.441 48.0175Z" fill="white"/>
<g clip-path="url(#clip0_47_598)">
<path d="M53.8667 177.644C62.8294 313.361 237.525 280.429 228.699 158.614C210.798 40.3409 54.9165 68.3308 53.8667 177.644Z" fill="#FFC73C"/>
<path d="M214.897 364.502C211.947 332.627 194.789 302.24 185.06 271.567C183.409 269.082 183.925 264.114 180.624 262.979C176.608 265.431 171.461 265.63 166.3 268.301C163.263 270.015 159.071 269.367 156.688 271.989C158.168 278.589 159.816 284.898 161.552 292.296C163.22 309.491 205.02 418.598 214.897 364.502Z" fill="#FFC73C"/>
<path d="M213.694 23.1646C203.254 32.0456 151.609 76.5049 164.403 75.4158C183.117 79.0944 198.751 90.0321 212.406 103.301C217.016 98.8705 223.983 92.2071 225.025 84.9883C223.227 64.7203 218.178 43.4977 213.694 23.1646Z" fill="#2D881A"/>
<path d="M134.411 45.6745C151.668 42.334 170.405 36.5753 188.734 33.5769C196.735 28.5403 203.443 21.3222 211.334 15.4549C235.13 0.118121 179.942 13.3765 174.996 16.3653C158.775 22.6327 145.971 32.1706 134.411 45.6745Z" fill="#2D881A"/>
<path d="M178.973 42.9385C163.486 45.6327 142.777 48.6891 127.484 55.4805C124.372 60.2023 118.209 76.8407 123.667 76.4866C133.207 73.53 142.173 74.1192 151.933 73.0349C161.65 64.0476 168.647 52.3524 178.973 42.9385Z" fill="#2D881A"/>
<path d="M229.573 77.9942C260.017 22.7567 213.143 -11.7083 220.399 31.8631C224.342 47.6893 227.683 61.6899 229.573 77.9942Z" fill="#2D881A"/>
<path d="M48.6261 177.849C47.8947 135.88 74.4169 93.8267 114.996 79.3029C116.627 78.8803 117.613 78.477 117.192 75.7297C116.968 28.0909 188.35 -7.30697 226.113 1.4131C265.826 20.9349 241.235 86.9645 219.097 108.024C216.735 110.678 218.652 111.318 220.892 115.065C254.542 168.835 231.139 226.749 188.11 260.055C199.737 295.659 217.484 327.923 222.205 364.828C223.198 374.158 220.343 384.319 210.252 386.102C176.714 391.265 153.948 287.419 151.515 273.128C91.099 277.756 49.0018 236.748 48.6261 177.849ZM53.8667 177.643C62.8294 313.36 237.525 280.429 228.699 158.613C210.798 40.3407 54.9165 68.3306 53.8667 177.643ZM214.897 364.502C211.947 332.626 194.789 302.239 185.06 271.566C183.409 269.081 183.925 264.114 180.624 262.979C176.608 265.431 171.461 265.63 166.3 268.301C163.263 270.014 159.071 269.366 156.688 271.989C158.168 278.589 159.816 284.898 161.552 292.296C163.22 309.491 205.02 418.598 214.897 364.502ZM213.694 23.1646C203.254 32.0456 151.609 76.5049 164.403 75.4158C183.117 79.0944 198.751 90.0322 212.406 103.301C217.016 98.8706 223.983 92.2071 225.025 84.9883C223.227 64.7204 218.178 43.4977 213.694 23.1646ZM134.41 45.6743C151.668 42.3338 170.405 36.5751 188.734 33.5767C196.735 28.5401 203.443 21.322 211.334 15.4547C235.13 0.117929 179.942 13.3763 174.996 16.3651C158.775 22.6325 145.971 32.1704 134.41 45.6743ZM178.973 42.9383C163.486 45.6325 142.777 48.6889 127.484 55.4803C124.372 60.2022 118.209 76.8406 123.667 76.4864C133.207 73.5298 142.173 74.119 151.933 73.0347C161.65 64.0474 168.647 52.3522 178.973 42.9383ZM229.573 77.9941C260.016 22.7565 213.143 -11.7085 220.399 31.8629C224.342 47.6891 227.683 61.6897 229.573 77.9941Z" fill="black"/>
<path d="M138.638 88.9392C240.781 93.8961 241.377 244.963 145.255 254.847C33.9333 256.761 32.6826 91.2382 138.638 88.9392Z" fill="#2D881A"/>
<path d="M191.046 146.832C194.831 146.629 203.914 146.444 204.54 142.495C202.664 138.748 201.459 130.918 197.145 129.694C191.112 133.564 184.002 132.581 176.965 129.8C150.297 109.383 141.119 132.194 124.907 113.527C114.988 100.452 126.232 93.6725 107.182 102.797C96.8169 108.264 112.273 125.922 119.67 127.818C132.06 131.909 143.979 124.859 157.247 128.319C171.811 129.049 176.808 145.962 191.046 146.832Z" fill="#77A1DD"/>
<path d="M138.944 95.0344C135.992 95.354 129.247 95.0046 125.272 96.914C123.91 102.393 127.943 109.657 133.252 112.615C140.145 116.136 147.221 110.842 155.191 111.629C169.503 110.609 177.857 129.107 193.162 122.588C182.165 105.125 160.522 95.651 138.944 95.0344Z" fill="#77A1DD"/>
<path d="M138.638 88.9392C240.781 93.8961 241.377 244.963 145.255 254.847C33.9333 256.761 32.6826 91.2382 138.638 88.9392ZM207.566 153.23C174.374 163.905 176.09 137.455 153.579 136.073C86.4043 144.71 106.813 98.7444 94.0261 111.307C48.9188 149.428 59.387 222.923 114.233 244.016C171.082 265.236 220.596 205.634 207.566 153.23ZM191.046 146.832C194.831 146.629 203.914 146.444 204.54 142.494C202.665 138.748 201.459 130.918 197.145 129.694C191.113 133.564 184.002 132.581 176.965 129.8C150.297 109.383 141.119 132.193 124.907 113.527C114.988 100.452 126.232 93.6723 107.182 102.797C96.8169 108.264 112.273 125.922 119.67 127.818C132.06 131.909 143.979 124.859 157.247 128.319C171.811 129.048 176.808 145.961 191.046 146.832ZM138.944 95.0343C135.992 95.3539 129.247 95.0045 125.272 96.9139C123.91 102.393 127.943 109.657 133.252 112.615C140.145 116.135 147.221 110.842 155.191 111.629C169.503 110.609 177.857 129.107 193.162 122.588C182.165 105.125 160.522 95.6509 138.944 95.0343Z" fill="black"/>
<path d="M179.061 185.208C178.177 180.69 176.97 177.433 174.575 174.066C173.197 169.981 163.612 166.875 166.236 163.247C168.479 160.113 171.889 156.307 169.469 153.891C155.589 158.689 171.007 167.231 147.934 156.319C146.322 151.679 149.606 145.411 149.007 140.634C144.082 134.59 144.462 150.788 142.987 153.156C125.411 131.256 99.8335 149.984 114.719 172.575C110.099 173.723 102.388 175.669 108.675 178.878C113.542 179.901 116.585 175.617 119.974 177.456C123.904 181.607 126.693 187.049 127.375 192.009C126.97 193.369 121.477 194.061 121.22 195.853C121.866 201.464 126.789 196.694 128.699 197.011C130.695 202.134 133.06 207.376 135.352 211.906C133.564 215.209 128.005 219.072 133.398 220.642C142.241 212.245 139.093 220.843 148.548 221.86C165.137 224.694 179.09 210.214 179.467 194.603C180.187 190.02 186.286 191.867 187.485 188.724C187.752 182.296 179.431 189.521 179.061 185.208Z" fill="#FFA0C1"/>
<path d="M114.719 172.575C99.8335 149.985 125.411 131.255 142.987 153.157C144.462 150.789 144.082 134.59 149.007 140.634C149.606 145.411 146.322 151.679 147.934 156.319C171.007 167.232 155.589 158.689 169.469 153.891C171.889 156.306 168.479 160.113 166.236 163.248C163.612 166.875 173.197 169.981 174.575 174.067C176.97 177.433 178.176 180.69 179.061 185.209C179.431 189.521 187.752 182.296 187.485 188.726C186.285 191.868 180.187 190.021 179.467 194.604C179.09 210.215 165.137 224.695 148.548 221.86C139.093 220.844 142.241 212.247 133.398 220.642C128.005 219.074 133.565 215.21 135.352 211.907C133.06 207.377 130.695 202.135 128.699 197.012C126.789 196.694 121.866 201.465 121.22 195.854C121.477 194.062 126.97 193.37 127.375 192.009C126.693 187.05 123.904 181.608 119.974 177.457C116.584 175.618 113.542 179.902 108.675 178.879C102.388 175.669 110.099 173.724 114.719 172.575ZM172.406 189.256C173.114 171.824 154.053 167.385 141.124 160.256C134.689 154.385 126.241 145.564 119.029 153.776C107.604 167.807 130.515 172.769 132.191 185.802C142.425 237.179 173.964 209.167 172.406 189.256Z" fill="black"/>
<path d="M90.4748 210.516C89.0427 224.015 109.575 239.352 114.892 221.847C117.877 207.33 92.2948 191.516 90.4748 210.516Z" fill="#77A1DD"/>
<path d="M96.7073 186.133C97.1306 175.385 82.6152 172.976 82.4548 184.971C83.0007 193.673 96.4589 195.727 96.7073 186.133Z" fill="#77A1DD"/>
<path d="M90.4748 210.516C92.2948 191.516 117.877 207.33 114.892 221.847C109.575 239.351 89.0427 224.015 90.4748 210.516ZM95.3284 211.28C94.5946 220.204 106.231 229.753 109.795 218.717C110.792 212.778 95.8041 199.99 95.3284 211.28Z" fill="black"/>
<path d="M96.7073 186.133C96.4589 195.728 83.0007 193.673 82.4548 184.971C82.6152 172.976 97.1306 175.384 96.7073 186.133ZM89.6306 181.661C87.5308 181.643 84.9368 186.678 88.9549 187.66C91.678 187.935 94.0882 182.304 89.6306 181.661Z" fill="black"/>
</g>
<defs>
<clipPath id="clip0_47_598">
<rect width="198.637" height="386.378" fill="white" transform="translate(48.6116)"/>
</clipPath>
</defs>
</svg>
