<svg width="574" height="97" viewBox="0 0 574 97" fill="none" xmlns="http://www.w3.org/2000/svg">
<path d="M4.00286 43.5423V7.04954H10.0739V0.978539H28.8873V7.04954H35.025V25.7963H28.8873V31.8006H10.741V43.5423H4.00286ZM10.741 25.1291H28.2202V7.64997H10.741V25.1291ZM49.1643 31.8006V25.7963H43.0933V0.978539H49.8315V25.1291H67.3106V0.978539H74.1155V25.7963H67.9778V31.8006H49.1643ZM88.2548 31.8006V25.7963H82.1837V-11.0968H88.9219V0.978539H107.068V7.04954H113.206V25.7963H107.068V31.8006H88.2548ZM88.9219 25.1291H106.401V7.64997H88.9219V25.1291ZM119.971 31.8006V-11.0968H126.709V31.8006H119.971ZM134.76 31.8006V0.978539H141.499V31.8006H134.76ZM134.76 -4.35861V-11.0968H141.499V-4.35861H134.76ZM154.318 31.8006V25.7963H148.247V7.04954H154.318V0.978539H173.131V7.04954H179.269V13.6543H172.464V7.64997H154.985V25.1291H172.464V19.0581H179.269V25.7963H173.131V31.8006H154.318ZM206.764 31.8006V25.7963H200.693V7.04954H206.764V0.978539H225.577V7.04954H231.715V13.6543H224.91V7.64997H207.431V25.1291H224.91V19.0581H231.715V25.7963H225.577V31.8006H206.764ZM238.48 31.8006V-11.0968H245.219V31.8006H238.48ZM258.038 31.8006V25.7963H251.967V7.04954H258.038V0.978539H276.851V7.04954H282.989V25.1291H289.06V31.8006H282.322V25.7963H276.851V31.8006H258.038ZM258.705 25.1291H276.184V7.64997H258.705V25.1291ZM295.096 31.8006V25.1291H319.314V19.7253H301.167V13.6543H295.096V7.04954H301.167V0.978539H326.119V7.64997H301.835V12.9871H319.981V19.0581H326.119V25.7963H319.981V31.8006H295.096ZM332.884 31.8006V25.1291H357.101V19.7253H338.955V13.6543H332.884V7.04954H338.955V0.978539H363.906V7.64997H339.622V12.9871H357.768V19.0581H363.906V25.7963H357.768V31.8006H332.884ZM385.33 31.8006V0.978539H391.401V-5.02575H397.405V-11.0968H404.21V-5.02575H410.215V0.978539H416.352V31.8006H409.547V19.7253H392.068V31.8006H385.33ZM392.068 12.9871H409.547V1.64568H403.543V-4.35861H398.073V1.64568H392.068V12.9871ZM424.421 43.5423V7.04954H430.492V0.978539H449.305V7.04954H455.443V25.7963H449.305V31.8006H431.159V43.5423H424.421ZM431.159 25.1291H448.638V7.64997H431.159V25.1291ZM463.511 43.5423V7.04954H469.582V0.978539H488.395V7.04954H494.533V25.7963H488.395V31.8006H470.249V43.5423H463.511ZM470.249 25.1291H487.728V7.64997H470.249V25.1291ZM526.098 38.1384V32.0674H520.027V13.9211H513.956V7.3164H520.027V-10.8299H526.098V-16.9009H532.836V-10.8299H538.84V-4.15847H532.169V-10.1628H526.765V7.91683H520.694V13.254H526.765V31.4003H532.169V25.3293H538.84V32.0674H532.836V38.1384H526.098ZM550.907 38.1384V32.0674H544.903V25.3293H551.574V31.4003H557.045V13.254H563.049V7.91683H557.045V-10.1628H551.574V-4.15847H544.903V-10.8299H550.907V-16.9009H557.712V-10.8299H563.716V7.3164H569.787V13.9211H563.716V32.0674H557.712V38.1384H550.907Z" fill="white" fill-opacity="0.31"/>
<path d="M2.62604 90.1938V86.2352H6.19276V82.6685H9.75948V79.1409H13.3262V75.5742H16.8929V72.4386H13.3262V68.9111H9.75948V65.3444H6.19276V61.8169H2.62604V57.8582H6.58471V61.4249H10.1514V64.9525H13.7181V68.5192H17.2457V72.0859H20.8516V75.9662H17.2457V79.5329H13.7181V83.0604H10.1514V86.6271H6.58471V90.1938H2.62604ZM26.1275 90.1938V86.2352H29.6943V82.6685H33.261V79.1409H36.8277V75.5742H40.3944V72.4386H36.8277V68.9111H33.261V65.3444H29.6943V61.8169H26.1275V57.8582H30.0862V61.4249H33.6529V64.9525H37.2196V68.5192H40.7472V72.0859H44.3531V75.9662H40.7472V79.5329H37.2196V83.0604H33.6529V86.6271H30.0862V90.1938H26.1275ZM49.629 90.1938V86.2352H53.1958V82.6685H56.7625V79.1409H60.3292V75.5742H63.8959V72.4386H60.3292V68.9111H56.7625V65.3444H53.1958V61.8169H49.629V57.8582H53.5877V61.4249H57.1544V64.9525H60.7211V68.5192H64.2487V72.0859H67.8546V75.9662H64.2487V79.5329H60.7211V83.0604H57.1544V86.6271H53.5877V90.1938H49.629ZM80.7028 86V82.0413H84.6614V86H80.7028ZM89.3914 86V82.0413H93.3501V86H89.3914ZM98.0801 86V82.0413H102.039V86H98.0801ZM106.769 86V82.0413H110.727V86H106.769Z" fill="white" fill-opacity="0.31"/>
</svg>
