<svg width="52" height="52" viewBox="0 0 52 52" fill="none" xmlns="http://www.w3.org/2000/svg">
<rect width="52" height="52" rx="26" fill="white"/>
<path fill-rule="evenodd" clip-rule="evenodd" d="M26.0189 3C13.29 3 3 13.5416 3 26.5831C3 37.0079 9.59319 45.8323 18.7398 48.9554C19.8834 49.1902 20.3022 48.448 20.3022 47.8236C20.3022 47.2768 20.2645 45.4029 20.2645 43.4503C13.8611 44.8561 12.5278 40.639 12.5278 40.639C11.4987 37.9058 9.97396 37.2033 9.97396 37.2033C7.87825 35.7586 10.1266 35.7586 10.1266 35.7586C12.4513 35.9149 13.6712 38.1793 13.6712 38.1793C15.729 41.7712 19.0446 40.7563 20.3785 40.1315C20.5688 38.6086 21.1791 37.5544 21.8269 36.9689C16.7197 36.4221 11.3465 34.3919 11.3465 25.3333C11.3465 22.7562 12.2605 20.648 13.7089 19.0083C13.4805 18.4228 12.6799 16.0015 13.938 12.7609C13.938 12.7609 15.8817 12.1362 20.2641 15.1817C22.1404 14.6655 24.0753 14.4029 26.019 14.4006C27.9627 14.4006 29.9439 14.6744 31.7736 15.1817C36.1566 12.1362 38.1001 12.7609 38.1001 12.7609C39.3581 16.0016 38.5571 18.4228 38.3287 19.0083C39.8151 20.648 40.6917 22.7564 40.6917 25.3333C40.6917 34.3919 35.3183 36.3829 30.173 36.9689C31.0116 37.7106 31.7354 39.1159 31.7354 41.3418C31.7354 44.5043 31.6977 47.0424 31.6977 47.8229C31.6977 48.4477 32.117 49.1901 33.2601 48.9557C42.4066 45.8315 48.9999 37.0076 48.9999 26.5828C49.0375 13.5416 38.7096 3 26.0189 3Z" fill="black"/>
</svg>
