<svg width="637" height="559" viewBox="0 0 637 559" fill="none" xmlns="http://www.w3.org/2000/svg">
<path d="M225.868 280.318C223.721 323.487 219.643 363.394 212.338 405.503C209.798 410.701 203.918 406.833 198.582 408.062C180.212 408.899 163.355 407.995 144.997 407.378C102.295 405.793 33.7465 411.439 21.5373 399.363C18.4959 373.533 24.0503 346.902 25.7804 320.806C29.6198 278.719 30.6422 234.887 51.45 197.345C66.7553 170.888 95.6715 154.106 126.255 152.619C194.806 144.133 227.39 223.696 225.868 280.318Z" fill="#77A1DD"/>
<path d="M92.3578 297.685C35.5875 314.414 36.0447 355.301 30.9269 396.963C29.2817 400.322 66.5609 402.703 62.4711 399.337C61.7142 392.199 62.5272 383.856 60.9559 376.666C58.7221 374.977 47.8186 378.028 49.16 372.79C50.86 368.614 60.1483 373.748 61.2447 370.436C62.3972 358.426 55.4946 323.564 64.3135 327.695C193.437 339.125 162.742 324.453 162.343 371.513C162.827 373.365 164.368 371.509 167.331 372.883C171.604 377.269 164.639 376.667 161.916 377.147C159.16 402.665 156.473 401.351 166.673 401.476C172.62 401.043 178.429 402.85 183.486 400.913C185.741 391.49 186.181 381.89 184.981 372.032C184.002 337.478 169.895 310.048 138.628 299.791C133.496 307.157 129.989 318.496 119.608 320.559C104.039 323.155 94.5574 311.099 92.3578 297.687V297.685Z" fill="#2D881A"/>
<path d="M63.8864 332.786C65.0772 354.873 63.7509 380.302 66.331 401.051C95.5483 401.315 123.415 399.934 152.45 400.819C157.79 403.027 155.731 383.908 157.008 381.327C157.735 368.458 160.631 354.477 160.305 341.564C128.125 338.603 96.2327 336.012 63.8864 332.786Z" fill="#95908D"/>
<path d="M85.6893 259.72C99.8421 215.458 155.809 217.343 153.129 266.953C152.048 272.262 153.886 274.421 159.151 270.111C171.097 262.697 170.842 241.189 157.501 242.847C156.404 242.846 155.528 242.672 155.094 240.65C155.367 235.935 158.813 229.427 153.905 225.931C141.333 216.382 138.686 236.567 136.837 216.825C136.01 214.094 134.723 212.286 132.472 210.631C119.877 203.797 100.531 211.413 96.6899 224.492C94.5492 228.573 98.0436 232.677 95.1268 237C80.7303 233.658 79.649 251.018 85.6906 259.72H85.6893Z" fill="black"/>
<path d="M138.954 287.077C133.03 292.545 125.327 289.173 121.403 282.781C115.81 308.019 102.862 305.037 108.07 283.586C103.33 287.415 94.5273 283.065 95.1637 286.114C94.2289 305.946 104.53 322.528 123.72 313.824C131.536 306.842 135.445 296.763 138.954 287.077Z" fill="#703D22"/>
<path d="M143.279 264.728C134.456 215.14 84.9474 261.413 98.4063 261.061C111.639 260.604 111.434 245.883 115.67 247.923C118.938 254.826 121.429 256.248 126.334 249.546C132.098 254.222 129.903 269.353 143.279 264.728Z" fill="black"/>
<path d="M92.251 260.791C98.0915 241.391 125.672 228.709 139.262 244.535C145.573 249.714 146.974 274.288 150.168 268.51C152.189 239.141 131.592 222.805 106.612 236.813C100.659 238.675 81.6596 260.891 92.251 260.791Z" fill="#FFA0C1"/>
<path d="M107.061 262.899C116.572 276.149 111.602 267.038 121.566 273.944C123.381 270.085 126.173 267.38 130.36 266.007C128.052 263.258 127.514 259.921 126.006 256.956C121.415 260.147 117.748 258.261 114.314 254.853C112.326 258.031 109.886 260.617 107.061 262.899Z" fill="#703D22"/>
<path d="M80.8534 275.028C80.0815 282.518 84.6586 288.177 92.1278 286.623C93.3378 282.509 90.0856 278.64 90.1815 274.046C89.738 270.501 92.5371 268.797 92.741 265.333C86.0533 259.013 80.0418 268.475 80.8534 275.028Z" fill="#FFA0C1"/>
<path d="M144.439 296.261C155.327 296.821 157.92 272.885 147.061 272.861C144.525 280.156 143.082 286.756 140.702 294.818C140.543 296.251 142.026 296.159 144.439 296.261Z" fill="#FFA0C1"/>
<path d="M131.972 285.215C141.125 284.005 141.38 270.792 131.527 269.808C121.549 271.955 121.756 284.321 131.972 285.215Z" fill="white"/>
<path d="M99.9899 280.313C113.531 280.265 110.198 265.98 99.2974 266.08C92.7876 268.165 90.8275 280.909 99.9899 280.313Z" fill="white"/>
<path d="M109.518 293.086C111.429 306.47 120.635 278.649 118.777 276.079C110.475 268.793 110.666 288.393 109.518 293.086Z" fill="#703D22"/>
<path d="M140.959 270.8C141.533 271.897 142.017 272.822 142.614 273.965C143.444 272.188 144.821 268.823 140.959 270.8Z" fill="#703D22"/>
<mask id="mask0_21_185" style="mask-type:luminance" maskUnits="userSpaceOnUse" x="20" y="151" width="207" height="258">
<path d="M20.1836 151.516H226.384V408.865H20.1836V151.516Z" fill="white"/>
</mask>
<g mask="url(#mask0_21_185)">
<path d="M185.507 171.051C168.664 155.727 148.706 149.367 126.233 152.153C95.0227 153.67 66.2119 170.896 51.042 197.117C32.8349 229.97 29.7114 267.923 26.6933 304.628C26.2567 309.928 25.805 315.407 25.3164 320.776C24.7853 328.769 23.8792 336.959 23.0046 344.881C21.0158 362.862 18.9599 381.457 21.076 399.416L21.0951 399.579L21.2101 399.693C30.0303 408.419 67.3794 408.044 103.497 407.679C118.49 407.529 132.652 407.386 144.981 407.845C147.921 407.944 150.821 408.049 153.696 408.155C163.577 408.517 173.099 408.865 182.836 408.865C188.029 408.865 193.284 408.765 198.686 408.517C200.567 408.082 202.531 408.311 204.431 408.532C207.81 408.922 211.002 409.293 212.757 405.707L212.797 405.582C219.784 365.302 224.086 325.506 226.332 280.34L226.334 280.33C227.277 245.283 215.017 197.902 185.507 171.051ZM110.61 288.671C111.167 283.688 112.009 276.157 114.807 275.07C115.772 274.695 116.986 275.14 118.424 276.39C119.254 277.824 116.241 289.699 113.004 294.629C111.94 296.248 111.368 296.264 111.219 296.234C111.032 296.192 110.394 295.842 109.993 293.108C110.227 292.099 110.405 290.507 110.61 288.673V288.671ZM121.383 273.254C117.51 270.64 115.914 270.507 114.844 270.416C113.501 270.304 112.933 270.256 107.695 262.982C110.431 260.724 112.632 258.296 114.397 255.586C117.224 258.28 121.004 260.686 125.821 257.639C126.244 258.54 126.598 259.486 126.943 260.405C127.622 262.22 128.324 264.09 129.588 265.783C125.921 267.143 123.229 269.595 121.383 273.255V273.254ZM99.3726 266.546H99.4082C102.915 266.546 105.926 268.12 107.48 270.771C108.606 272.692 108.709 274.839 107.755 276.516C106.541 278.649 103.781 279.833 99.9872 279.847L99.9584 279.848C95.7673 280.132 94.6408 277.512 94.3424 275.932C93.6923 272.492 95.7043 267.769 99.3726 266.546ZM131.96 284.746C126.838 284.277 124.823 280.947 124.653 278.23C124.456 275.069 126.515 271.394 131.553 270.279C136.219 270.778 138.36 274.188 138.411 277.36C138.46 280.489 136.462 284.125 131.96 284.746ZM81.316 274.97C80.8028 270.829 83.0776 265.811 86.1833 264.234C86.8622 263.889 87.5575 263.719 88.2611 263.719C89.5847 263.719 90.9384 264.325 92.2592 265.524C92.1319 266.895 91.5748 267.965 90.9863 269.095C90.2362 270.538 89.4601 272.029 89.7161 274.035C89.6723 276.14 90.295 278.064 90.8959 279.926C91.5967 282.096 92.2606 284.151 91.7541 286.222C88.7675 286.774 86.1806 286.152 84.2561 284.412C81.9881 282.359 80.9177 278.957 81.3174 275.077L81.3229 275.024L81.316 274.972V274.97ZM96.6118 230.185C96.3846 228.282 96.1697 226.485 97.1361 224.623C98.8401 218.821 103.958 213.649 110.825 210.787C118.246 207.694 126.258 207.789 132.195 211.006C134.37 212.605 135.584 214.319 136.377 216.915C136.958 223.097 137.606 225.519 138.845 226.163C139.769 226.643 140.799 226.054 141.993 225.37C144.496 223.937 147.925 221.972 153.634 226.311C156.989 228.701 156.136 232.667 155.312 236.504C154.999 237.96 154.703 239.334 154.629 240.622L154.625 240.686L154.639 240.748C155.144 243.099 156.317 243.309 157.536 243.309H157.558C163.441 242.587 165.738 246.504 166.584 248.908C168.822 255.266 166.27 265.143 158.857 269.749C155.844 272.215 154.558 272.079 154.062 271.779C153.247 271.286 153.073 269.561 153.593 266.979C154.948 241.896 141.779 230.442 129.001 228.086C127.216 227.757 125.375 227.591 123.504 227.591C109.018 227.591 92.6767 237.534 85.5496 258.653C82.1332 253.058 81.6938 244.994 84.6818 240.574C86.7924 237.452 90.3703 236.373 95.02 237.454L95.332 237.526L95.5114 237.261C97.1648 234.811 96.8842 232.459 96.6118 230.185ZM89.597 258.732C88.7812 253.531 102.131 238.704 106.752 237.258L106.84 237.22C117.877 231.031 128.509 230.515 136.778 235.762C145.862 241.528 150.693 253.712 149.71 268.373C149.44 268.835 149.265 268.916 149.216 268.917C148.438 268.817 147.269 264.206 146.417 260.839C144.844 254.631 142.887 246.907 139.615 244.231C135.482 239.416 129.848 236.908 123.389 236.908C121.531 236.908 119.607 237.115 117.629 237.534C105.885 240.027 95.3608 249.369 91.9074 260.32C89.8324 260.23 89.6572 259.113 89.597 258.732ZM123.463 313.428C116.504 316.565 110.258 316.479 105.401 313.176C98.7991 308.686 95.0556 298.325 95.6291 286.135L95.6332 286.076L95.6195 286.019C95.5812 285.833 95.5921 285.704 95.6496 285.638C95.7974 285.472 96.2245 285.415 96.7788 285.415C97.3879 285.415 98.1503 285.483 98.8621 285.546C101.386 285.771 104.727 286.067 107.351 284.625C105.736 292.019 106.205 297.935 108.629 300.223C109.579 301.117 110.748 301.383 112.013 300.995C114.946 300.093 118.959 295.13 121.612 283.95C124.031 287.4 127.459 289.706 130.954 290.189C133.438 290.536 135.829 289.947 137.945 288.484C134.313 298.376 130.555 307.065 123.463 313.428ZM126.627 249.182L126.248 248.874L125.959 249.269C123.788 252.235 122.149 253.549 120.752 253.424C119.311 253.287 117.918 251.581 116.092 247.723L116.021 247.574L115.873 247.501C113.813 246.511 112.632 248.659 111.259 251.143C109.115 255.018 106.182 260.325 98.3939 260.595C96.6241 260.66 96.5927 259.846 96.5708 259.584C96.2984 255.997 108.435 244.006 120.929 242.417C128.865 241.411 139.066 244.421 142.75 264.414C134.677 267.032 132.806 261.965 130.821 256.61C129.774 253.782 128.691 250.855 126.627 249.182ZM143.541 286.374C144.737 281.948 145.866 277.761 147.39 273.336C149.444 273.444 151.095 274.529 152.178 276.491C154.374 280.473 153.902 287.334 151.124 291.787C149.925 293.711 147.822 295.953 144.462 295.796L143.815 295.77C142.595 295.726 141.541 295.689 141.254 295.355C141.223 295.319 141.128 295.209 141.15 294.951C142.043 291.923 142.804 289.103 143.542 286.375L143.541 286.374ZM64.9786 359.818C64.902 350.967 64.8212 341.82 64.3805 333.304C84.7064 335.327 105.184 337.132 124.991 338.876C136.404 339.882 148.201 340.92 159.849 341.991C160.001 349.624 159.035 357.724 158.099 365.561C157.48 370.751 156.84 376.117 156.548 381.213C156.151 382.145 156.076 384.296 155.988 387.668C155.862 392.512 155.691 399.146 153.832 400.358C153.492 400.578 153.11 400.586 152.627 400.388L152.464 400.352C135.662 399.838 118.933 400.092 102.758 400.334C91.0369 400.511 78.9221 400.693 66.743 400.589C65.225 388.095 65.1005 373.722 64.9786 359.818ZM173.371 401.156C171.842 401.048 170.278 400.937 168.707 400.937C168.03 400.937 167.354 400.958 166.678 401.008L165.285 400.997C162.627 400.981 161.021 400.973 160.372 400.221C159.485 399.193 159.895 396.262 160.709 390.424C161.173 387.099 161.749 382.979 162.341 377.552C162.792 377.493 163.334 377.452 163.901 377.409C166.181 377.236 168.54 377.055 169.057 375.681C169.368 374.857 168.912 373.837 167.664 372.557L167.527 372.46C165.998 371.749 164.828 371.839 163.975 371.903C163.096 371.971 162.952 371.961 162.81 371.451C162.896 361.963 164.228 354.947 165.203 349.82C166.314 343.969 166.985 340.436 165.056 337.951C161.983 333.989 152.469 333.402 127.041 331.835C112.232 330.921 91.9553 329.672 64.4352 327.237C63.3512 326.749 62.4095 326.772 61.6348 327.311C58.3101 329.614 59.1984 341.106 60.1401 353.273C60.6616 360.019 61.1557 366.393 60.7875 370.333C60.3536 371.469 58.2225 371.188 55.9736 370.888C53.0623 370.505 49.765 370.065 48.7097 372.675C48.4592 373.653 48.5755 374.463 49.0587 375.081C50.2263 376.58 53.2115 376.563 56.0941 376.543C57.8954 376.53 59.7569 376.519 60.5425 376.951C61.4404 381.185 61.5212 385.865 61.5992 390.393C61.6539 393.546 61.7046 396.523 62.0085 399.386L62.029 399.577L62.1754 399.697C62.2275 399.74 62.2617 399.774 62.2836 399.8C60.7998 401.108 43.3839 400.552 34.7183 398.527C31.4867 397.772 31.3416 397.182 31.3457 397.169L31.3895 397.02C31.8193 393.522 32.2094 390.031 32.5981 386.558C36.7906 349.042 40.7518 313.6 91.9882 298.281C93.4486 306.477 97.4604 313.443 103.048 317.452C107.805 320.865 113.398 322.065 119.7 321.015C127.773 319.411 131.861 312.227 135.467 305.889C136.592 303.911 137.658 302.037 138.813 300.342C175.244 312.475 183.778 346.009 184.52 372.088C185.715 381.9 185.234 391.477 183.091 400.562C180.106 401.632 176.833 401.399 173.373 401.156H173.371ZM151.2 299.48C151.178 299.331 151.614 298.895 152 298.51C152.458 298.051 153.03 297.48 153.672 296.66C157.618 291.214 157.706 285.087 157.789 279.16L157.807 278.063C166.621 272.554 172.859 262.06 172.672 253.012C172.536 246.486 169.164 241.197 162.915 237.72L162.766 237.668C160.526 237.293 160.567 236.261 160.888 233.758C161.246 230.975 161.737 227.162 157.82 223.055C154.266 218.087 147.8 217.869 141.85 218.381C140.405 212.895 138.426 208.634 133.672 205.683C124.931 201.373 113.855 202.321 104.765 208.156C96.4325 213.505 91.7596 221.698 91.917 230.66C91.0643 231.382 89.9446 231.66 88.6594 231.979C86.0177 232.637 82.7272 233.455 80.5413 238.85C77.8832 245.163 78.3267 253.411 81.661 259.934C79.512 264.471 75.1142 275.375 78.057 283.429C79.2588 286.716 81.5638 289.143 84.9104 290.646L85.0089 290.677C86.6049 290.995 91.4585 291.958 91.7993 292.488C91.6036 292.931 89.1645 293.802 86.8061 294.646C76.6034 298.298 55.3728 305.894 42.2998 328.722C36.5853 339.229 33.1141 349.916 31.046 363.373C29.6129 373.12 28.3865 382.968 26.9479 396.278C26.4237 397.068 26.0131 397.354 25.8269 397.28C24.9961 396.943 24.5909 392.984 25.007 390.823C25.1685 374.805 26.8343 359.9 28.5973 344.121C29.6006 335.156 30.6353 325.887 31.3567 316.475C31.807 311.758 32.2231 307.02 32.6378 302.274C35.7723 266.479 39.0135 229.465 58.5113 197.926C74.1342 173.264 114.444 152.534 152.339 162.051C174.908 167.718 213.677 189.434 219.746 271.164C220.214 299.598 216.714 328.099 213.329 355.66C212.095 365.707 210.819 376.096 209.747 386.365C209.15 389.846 208.89 392.499 208.682 394.631C208.244 399.096 204.764 401.23 198.242 401.036C195.676 400.961 192.509 400.865 188.523 400.856C191.75 378.683 194.562 325.865 154.262 301.428C153.065 300.801 151.256 299.853 151.2 299.48Z" fill="black"/>
</g>
<path d="M100.034 366.845C100.283 384.641 123.654 383.978 123.052 365.037C121.193 350.97 100.465 349.835 100.034 366.845Z" fill="#FFC73C"/>
<path d="M100.034 366.845C100.465 349.835 121.193 350.97 123.052 365.037C123.654 383.978 100.283 384.641 100.034 366.845ZM103.965 366.714C103.907 377.515 118.5 376.01 118.916 366.203C117.747 356.386 103.692 357.92 103.965 366.714Z" fill="black"/>
<path d="M103.239 297.792C104.871 288.619 107.588 314.495 117.403 300.872C118.486 299.817 118.293 298.623 120.304 298.514C122.054 299.209 121.151 301.675 119.976 303.514C113.398 314.254 103.686 306.605 103.239 297.794V297.792Z" fill="black"/>
<path d="M241.144 354.346C242.166 335.974 241.427 317.393 243.884 299.083C248.486 267.113 259.879 225.665 277.009 204.619C294.08 181.735 328.926 177.678 353.603 180.845C366.182 182.633 379.316 186.695 389.263 194.907C405.802 209.144 416.538 229.698 419.811 251.16C422.67 266.248 422.106 281.022 422.351 296.187C422.8 310.356 424.111 323.923 424.574 338.003C425.299 350.081 424.959 362.011 425.038 374.112C425.948 386.396 423.372 398.334 420.409 410.11C420.061 410.742 419.787 411.442 418.952 411.521C418.397 411.295 417.952 410.71 417.322 410.861C414.388 412.383 411.016 411.314 407.723 411.435C357.984 409.733 308.468 408.104 258.783 405.805C240.689 404.452 240.489 407.847 240.055 395.775C239.798 381.738 240.251 368.265 241.144 354.346Z" fill="#77A1DD"/>
<path d="M332.623 316.846C332 316.954 332.049 316.952 331.715 317.53C329.611 320.939 326.826 322.994 323.325 324.871C320.141 326.531 317.107 325.855 313.8 324.805C305.371 321.922 300.71 320.14 292.624 323.254C286.783 326.051 285.263 333.079 283.244 338.728C275.821 360.122 278.422 398.333 295.231 399.004C313.067 397.516 335.414 360.126 342.62 347.946C344.091 344.766 347.984 340.743 345.641 337.616C343.558 334.523 340.727 332.386 338.174 329.87C337.022 328.821 336.169 327.332 335.234 328.659C310.88 357.646 303.716 372.6 302.955 364.038C302.944 362.395 303.671 361.563 304.733 360.26C312.22 352.04 306.703 352.508 308.852 345.88C312.673 343.933 310.612 354.031 314.124 348.115C338.378 316.513 335.336 325.778 332.623 316.846Z" fill="#FF5C33"/>
<path d="M290.379 312.589C287.391 312.813 284.366 313.935 281.355 312.636C275.091 310.282 272.038 301.959 274.763 295.938C279.428 287.534 281.055 296.533 289.395 284.808C296.154 275.891 302.076 266.964 302.852 255.33C302.872 254.542 302.742 254.367 302.236 254.089C294.205 251.491 287.26 254.607 281.392 259.58C268.036 270.516 262.634 291.283 263.735 306.766C264.23 313.955 266.208 320.739 267.513 327.655C268.91 334.956 268.747 342.459 267.747 349.789C266.982 355.476 265.566 361.03 265.934 366.833C266.186 375.247 270.353 386.646 278.52 387.731C273.471 364.956 275.44 346.229 284.448 326.746C285.724 324.202 287.428 322.428 289.465 320.319C290.016 317.868 290.508 315.21 290.379 312.589Z" fill="#FFC73C"/>
<path d="M306.423 256.407C304.324 270.26 299.272 278.431 291.555 288.255C289.363 290.839 285.595 295.206 282.967 295.588C278.111 293.705 276.622 298.39 276.67 301.853C277.313 308.438 282.257 310.523 287.777 308.864C290.12 308.252 293.983 303.947 294.853 308.248C294.822 310.867 291.894 319.058 294.232 318.066C307.497 313.92 315.084 325.757 322.818 320.487C327.019 318.548 329.78 314.625 330.303 309.824C330.834 298.005 329.468 301.872 326.437 302.69C322.301 304.108 316.189 302.408 314.565 298.213C314.474 294.707 319.016 299.271 320.919 298.888C323.745 298.924 326.207 297.722 328.407 295.776C329.09 294.759 328.321 293.737 327.896 292.442C326.862 288.914 322.885 285.681 326.463 282.88C330.282 279.48 333.808 275.453 337.33 271.693C347.383 260.349 332.59 263.954 326.859 266.716C323.2 268.034 319.184 273.02 318.029 272.58C316.959 272.165 316.441 270.519 315.96 269.442C314.34 263.973 311.276 259.521 306.423 256.407Z" fill="#EC987E"/>
<path d="M346.708 350.841C336.48 365.646 328.091 382.749 314.262 394.705C300.705 405.859 296.99 402.603 316.37 403.76C329.262 404.242 342.123 404.835 355.055 405.163C355.07 404.568 354.779 404.169 354.542 403.984C349.265 397.968 354.235 393.565 358.945 390.908C355.774 386.886 355.696 381.7 354.109 376.962C351.693 368.197 349.226 359.525 346.708 350.842V350.841Z" fill="#FF5C33"/>
<path d="M366.948 313.398C366.709 309.633 361.562 300.989 361.126 297.985C360.054 296.566 358.112 301.885 357.524 302.357C356.239 304.673 359.688 295.292 356.109 295.434C353.764 298.335 352.85 302.353 350.527 305.254C347.376 309.82 340.155 317.054 335.426 312.936C333.605 310.997 333.155 310.735 334.069 313.407C335.136 316.954 335.982 320.556 337.942 323.766C339.358 325.33 341.944 330.735 344.343 332.175C346.911 333.716 348.454 332.009 348.901 331.584C366.002 315.406 359.616 325.482 366.948 313.398Z" fill="#EC987E"/>
<path d="M382.861 403.565C391.025 404.22 420.076 401.563 402.551 393.935C401.792 393.662 401.023 392.809 400.277 393.568C397.228 397.131 366.428 397.69 366.393 397.146C364.645 396.945 365.674 392.708 362.951 393.617C354.996 395.962 352.679 400.006 361.432 402.57C368.522 404.231 375.664 404.112 382.861 403.565Z" fill="white"/>
<path d="M359.244 285.509C354.505 292.843 346.361 295.851 339.038 299.566C337.245 300.508 335.067 300.842 333.514 301.919C332.988 304.674 333.731 307.536 335.564 309.687C340.333 315.493 349.404 302.881 350.98 299.608C352.548 297.047 354.814 290.005 358.17 293.059C358.981 293.839 359.2 295.07 359.754 295.826C360.262 296.393 360.956 296.46 361.494 297.096C362.589 297.976 360.719 299.935 361.746 300.797C365.93 302.577 361.878 310.137 360.215 313.04C359.896 313.328 363.034 312.802 364.53 311.852C371.267 304.322 364.619 291.673 359.244 285.509Z" fill="white"/>
<path d="M361.123 390.167C362.489 389.779 364.408 390.294 364.346 388.634C363.739 383.947 364.413 380.486 363.633 376.843C359.094 366.033 354.168 355.539 349.922 344.493C347.385 346.935 350.291 349.302 350.599 352.159C354.068 365.112 358.688 377.099 361.124 390.167H361.123Z" fill="#FF5C33"/>
<path d="M375.627 393.732C380.681 393.617 385.922 392.861 390.973 392.243C397.01 391.223 398.154 393.113 397.288 386.427C397.121 385.587 396.75 385.572 395.487 385.721C385.799 387.125 378.062 388.916 368.769 390.457C367.834 390.705 367.854 391.29 367.887 392.15C367.455 395.036 374.207 393.263 375.627 393.732Z" fill="#FFC73C"/>
<path d="M354.619 283.521C346.544 285.364 339.328 290.009 333.645 296.047C329.309 301.661 340.188 295.516 341.416 294.982C343.848 294.031 361.83 284.269 354.619 283.521Z" fill="#703D22"/>
<path d="M396.49 377.779C396.436 376.063 396.174 375.666 394.626 375.88C385.311 377.425 376.08 377.942 367.16 380.533C366.62 381.133 367.067 383.596 368.37 383.106C372.37 382.447 376.309 381.794 380.373 381.133C389.038 379.31 397.578 380.028 396.49 377.779Z" fill="#FFC73C"/>
<path d="M399.44 381.318C392.396 381.242 380.451 381.653 373.317 382.416C370.603 383.159 368.131 385.11 367.639 387.053C366.588 391.212 375.396 388.515 376.8 388.66C382.052 387.316 399.616 382.716 399.44 381.318Z" fill="#FFA0C1"/>
<path d="M368.151 299.49C372.607 294.64 374.814 287.534 373.514 285.509C371.295 282.053 362.576 283.846 362.691 286.06C363.318 287.777 365.985 285.633 367.62 286.578C370.741 287.441 369.275 290.858 367.856 293.7C367.474 295.153 367.371 297.691 368.151 299.49Z" fill="white"/>
<path d="M378.108 373.205C378.135 373.756 378.221 374.49 378.918 374.527C381.152 374.134 383.644 374.005 385.622 373.115C385.863 368.737 377.932 368.134 378.108 373.205Z" fill="#FF5C33"/>
<mask id="mask1_21_185" style="mask-type:luminance" maskUnits="userSpaceOnUse" x="239" y="179" width="187" height="234">
<path d="M239.519 179.453H425.691V412.15H239.519V179.453Z" fill="white"/>
</mask>
<g mask="url(#mask1_21_185)">
<path d="M425.503 374.111C425.48 370.681 425.491 367.266 425.503 363.858C425.529 355.395 425.559 346.644 425.039 337.988C424.809 331.021 424.366 324.063 423.936 317.334C423.497 310.449 423.042 303.33 422.816 296.18C422.769 293.285 422.752 290.402 422.734 287.532C422.659 275.08 422.588 263.322 420.271 251.09C416.913 229.068 405.721 208.462 389.56 194.55C380.759 187.283 368.684 182.518 353.662 180.384C328.763 177.187 293.642 181.544 276.649 204.326C259.078 225.91 247.77 268.826 243.424 299.021C241.836 310.847 241.575 322.964 241.324 334.682C241.186 341.128 241.044 347.795 240.68 354.318C239.7 369.61 239.353 382.785 239.59 395.79C239.935 405.371 240.206 405.653 249.24 405.852C251.709 405.905 254.782 405.972 258.761 406.27C304.019 408.365 349.969 409.931 394.407 411.446L407.74 411.9C408.754 411.863 409.805 411.942 410.821 412.02C411.661 412.084 412.511 412.15 413.357 412.15C414.764 412.15 416.159 411.971 417.476 411.305C417.675 411.284 417.868 411.404 418.163 411.602C418.352 411.728 418.547 411.86 418.777 411.953L418.883 411.997L418.998 411.986C419.989 411.89 420.387 411.14 420.706 410.54L420.817 410.335L420.861 410.224C423.723 398.851 426.438 386.692 425.503 374.111ZM366.948 294.379C366.464 293.668 363.911 288.099 363.748 287.782C364.775 287.617 367.375 286.771 368.647 288.436C369.795 289.939 367.616 293.305 366.948 294.379ZM369.122 293.7C370.065 291.786 371.194 290.005 370.503 288.45C369.994 287.304 369.06 286.51 367.8 286.145C366.91 285.663 365.857 285.893 364.931 286.098C363.755 286.356 363.346 286.378 363.158 285.97C363.195 285.516 363.866 285.253 364.161 285.157C366.111 284.531 369.732 283.831 371.852 285.509C376.379 289.092 367.553 298.516 367.857 297.985C367.919 297.688 368.94 294.345 369.122 293.7ZM341.231 294.556C341.05 294.636 340.664 294.831 340.149 295.095C334.926 297.772 333.406 298.098 333.096 297.958C333.094 297.944 333.037 297.595 333.985 296.366C339.97 290.007 347.114 285.73 354.646 283.993C355.366 284.076 355.812 284.267 355.845 284.506C356.124 286.564 343.879 293.519 341.231 294.556ZM338.34 323.523C336.729 320.884 335.86 317.89 335.021 314.997C334.855 314.421 334.688 313.847 334.509 313.257C334.38 312.881 334.29 312.591 334.226 312.367C334.555 312.688 334.933 313.088 335.121 313.287C336.337 314.347 337.79 314.784 339.416 314.575C343.952 314.003 348.775 308.613 350.89 305.544C352.081 304.059 352.913 302.286 353.718 300.571C354.478 298.954 355.26 297.284 356.332 295.903C356.678 295.93 356.752 296.071 356.778 296.122C357.33 297.181 355.913 302.088 353.409 305.394C353.038 305.977 352.6 306.532 352.175 307.069C351.573 307.832 350.95 308.623 350.477 309.541C350.477 309.541 349.257 310.985 350.207 311.341C351.347 311.767 352.828 309.838 353.381 309.026C355.355 306.673 356.75 304.702 357.897 302.647C358.133 302.4 358.326 301.937 358.625 301.191C358.858 300.615 360.151 297.983 360.177 298.006C363.158 300.401 358.369 306.231 355.85 309.474C355.523 309.894 350.707 313.977 350.708 315.58C350.856 316.36 351.469 316.047 351.52 316.047C354.267 316.047 361.334 304.224 361.371 304.151C361.824 303.564 362.158 303.433 362.273 303.459C362.367 303.473 362.821 307.776 360.414 310.464C359.113 312.107 357.817 313.55 356.176 315.176C355.9 315.513 355.53 315.842 355.137 316.19C354.056 317.149 352.715 318.042 353.54 319.708C353.675 320.013 356.324 318.098 358.237 316.846C359.801 315.824 362.6 313.583 365.437 312.591C366.165 312.337 366.69 313.3 366.076 313.768C364.857 314.701 361.165 318.548 347.491 332.175C345.983 330.444 344.275 328.962 342.619 327.523C341.071 326.181 339.61 324.912 338.34 323.523ZM361.087 312.406C362.861 309.308 364.515 305.259 363.916 303.48C363.539 302.353 364.502 300.698 363.217 300.134C362.884 299.82 362.808 299.338 362.719 298.781C362.608 298.084 362.482 297.294 361.848 296.795C361.513 296.398 361.132 296.189 360.798 296.006C360.526 295.856 360.291 295.728 360.129 295.551C359.933 295.284 359.773 294.921 359.604 294.537C359.338 293.933 359.037 293.248 358.482 292.713C357.706 292.008 356.907 291.724 356.105 291.879C354.159 292.247 352.734 295.13 351.589 297.446C351.227 298.177 350.886 298.871 350.56 299.405C349.341 301.94 343.545 310.152 338.99 310.701C337.769 310.845 336.767 310.42 335.919 309.386C334.219 307.39 333.5 304.78 333.935 302.197C334.732 301.686 335.694 301.355 336.71 301.004C337.561 300.711 338.44 300.405 339.247 299.983C340.389 299.404 341.55 298.842 342.714 298.279C348.856 295.306 355.202 292.237 359.289 286.281C364.416 292.416 369.509 304.307 363.58 311.377C363.692 311.144 361.086 312.407 361.086 312.407L361.087 312.406ZM349.769 345.387C352.401 352.176 355.323 358.855 358.154 365.322C359.825 369.144 361.555 373.096 363.177 376.94C363.582 378.829 363.587 380.716 363.589 382.712C363.592 384.559 363.596 386.469 363.882 388.652C363.907 389.301 363.595 389.415 362.345 389.519C362.063 389.544 361.776 389.567 361.492 389.612C359.936 381.46 357.501 373.57 355.144 365.934C353.752 361.425 352.314 356.763 351.061 352.108C350.949 351.067 350.531 350.123 350.128 349.209C349.487 347.762 348.963 346.577 349.769 345.387ZM267.492 354.447C267.743 352.946 268 351.392 268.207 349.851C269.336 341.587 269.258 334.299 267.97 327.569C267.566 325.429 267.091 323.266 266.631 321.177C265.603 316.502 264.54 311.671 264.199 306.734C263.149 291.952 268.174 271.004 281.693 259.935C286.696 255.693 291.582 253.6 296.464 253.6C298.311 253.6 300.159 253.9 302.012 254.497C302.365 254.692 302.402 254.711 302.39 255.299C301.605 267.035 295.357 276.173 289.017 284.538C284.64 290.691 282.269 290.969 280.178 291.213C278.27 291.438 276.622 291.63 274.34 295.747C272.945 298.828 272.962 302.721 274.385 306.158C275.743 309.437 278.224 311.956 281.17 313.063C283.491 314.065 285.796 313.707 288.026 313.361C288.653 313.263 289.298 313.163 289.931 313.098C289.978 315.501 289.515 317.961 289.04 320.091C287.05 322.151 285.33 323.95 284.025 326.552C274.981 346.116 273.089 364.834 277.917 387.156C270.353 385.563 266.628 374.449 266.398 366.804C266.133 362.62 266.824 358.466 267.492 354.447ZM326.058 289.596C326.599 290.566 327.156 291.572 327.454 292.589C327.56 292.908 327.684 293.213 327.806 293.505C328.176 294.4 328.373 294.944 328.051 295.47C325.752 297.488 323.41 298.486 320.924 298.423L320.875 298.421L320.827 298.432C320.248 298.549 319.141 297.965 318.16 297.451C316.818 296.747 315.549 296.085 314.728 296.598C314.284 296.874 314.079 297.407 314.099 298.224L314.131 298.38C315.868 302.866 322.253 304.617 326.559 303.138C327.259 302.951 327.873 302.612 328.369 302.341C328.767 302.122 329.31 301.823 329.46 301.912C330.173 302.357 329.921 307.961 329.84 309.772C329.332 314.431 326.701 318.181 322.557 320.102C319.006 322.518 315.55 321.152 311.174 319.423C307.88 318.122 304.277 316.7 300.019 316.7C298.164 316.7 296.185 316.97 294.051 317.637C293.954 317.678 293.904 317.682 293.898 317.689C293.497 317.246 294.211 314.072 294.595 312.362C294.962 310.731 295.308 309.19 295.32 308.253L295.322 308.204L295.311 308.154C295.083 307.032 294.645 306.342 293.971 306.046C292.785 305.525 291.293 306.429 289.848 307.302C289.075 307.769 288.275 308.253 287.644 308.419C284.751 309.289 282.12 309.068 280.23 307.801C278.472 306.621 277.402 304.548 277.135 301.846C277.108 299.799 277.635 297.225 279.198 296.137C280.122 295.492 281.334 295.454 282.8 296.021L282.914 296.066L283.036 296.048C285.564 295.681 288.795 292.231 291.92 288.543C299.895 278.393 304.658 270.329 306.772 257.196C311.002 260.105 313.943 264.267 315.537 269.633C315.612 269.8 315.687 269.981 315.765 270.168C316.217 271.249 316.777 272.592 317.865 273.014C318.624 273.306 319.596 272.532 321.539 270.889C323.154 269.523 325.163 267.821 327.061 267.135C331.348 265.069 338.696 263.31 340.058 265.115C340.485 265.68 340.652 267.245 336.992 271.375C336.221 272.197 335.451 273.032 334.677 273.87C331.947 276.83 329.123 279.889 326.179 282.513C323.354 284.724 324.729 287.2 326.061 289.595L326.058 289.596ZM368.923 385.665C369.676 384.965 370.755 384.176 371.654 384.087C372.9 383.963 374.188 383.834 375.059 383.591C377.849 383.292 380.707 382.764 383.47 382.253C386.135 381.761 393.695 381.155 396.469 381.357C397.177 381.409 397.388 382.348 396.772 382.7C398.377 381.782 393.198 383.258 389.709 384.371C387.486 385.081 381.097 386.073 379.007 386.601C378.439 386.566 377.385 386.82 375.632 387.236C373.756 387.683 370.773 388.306 369.079 387.747C368.906 386.927 369.099 386.486 368.923 385.665ZM396.103 378.198C395.762 378.806 392.801 379.088 389.938 379.361C387.167 379.625 383.72 379.953 380.298 380.674C376.822 381.239 373.437 381.798 370.029 382.36L368.206 382.67C368.064 382.722 367.897 382.758 367.697 382.466C367.383 382.003 367.347 381.227 367.457 380.933C373.387 379.227 379.337 378.451 385.632 377.629C388.598 377.243 391.665 376.843 394.69 376.34C395.266 376.262 395.613 376.281 395.752 376.399C395.96 376.573 396.005 377.202 396.025 377.794L396.07 377.981C396.142 378.129 396.114 378.179 396.103 378.198ZM368.844 390.916C372.745 390.27 376.423 389.57 379.98 388.891C384.875 387.96 389.936 386.997 395.541 386.184C395.944 386.136 396.212 386.109 396.394 386.109C396.75 386.109 396.772 386.216 396.827 386.486C397.131 388.824 397.218 390.286 396.773 390.833C396.437 391.245 395.593 391.307 394.318 391.4C393.41 391.467 392.282 391.549 390.916 391.781L388.538 392.077C384.294 392.611 379.908 393.165 375.688 393.265C375.15 393.122 374.244 393.191 373.116 393.272C371.439 393.395 369.144 393.563 368.496 392.863C368.406 392.766 368.291 392.592 368.353 392.132C368.316 391.208 368.35 391.051 368.843 390.916H368.844ZM378.572 373.186C378.52 371.673 379.266 370.914 379.901 370.543C381.016 369.89 382.674 369.935 383.84 370.65C384.327 370.949 385.112 371.612 385.159 372.805C383.819 373.348 382.221 373.572 380.673 373.79C380.072 373.874 379.475 373.959 378.895 374.059C378.769 374.042 378.611 373.948 378.572 373.186ZM283.68 338.884C283.972 338.072 284.252 337.229 284.537 336.377C286.239 331.267 287.999 325.983 292.791 323.688C295.743 322.551 298.214 322.075 300.59 322.075C304.394 322.075 307.959 323.295 312.885 324.985L313.659 325.249C316.918 326.283 320.126 327.066 323.544 325.281C326.597 323.643 329.748 321.6 332.119 317.761L332.19 317.637C332.237 317.553 332.286 317.468 332.316 317.42C332.709 318.63 333.106 319.496 333.403 320.147C334.067 321.598 332.751 324.294 329.455 328.233C326.452 331.824 321.426 337.835 313.724 347.875C312.811 349.412 312.464 349.523 312.488 349.544C312.327 349.427 312.134 348.682 312.008 348.189C311.71 347.038 311.373 345.735 310.407 345.298C309.899 345.069 309.305 345.125 308.641 345.463L308.47 345.551L308.41 345.735C307.553 348.378 307.862 349.946 308.134 351.33C308.542 353.399 308.864 355.034 304.373 359.966L304.261 360.103C303.226 361.372 302.477 362.288 302.491 364.079C302.594 365.224 302.835 366.575 303.804 366.853C305.608 367.377 308.442 363.639 315.283 354.61C320.104 348.246 326.708 339.53 335.613 328.928C335.757 328.725 335.893 328.609 335.998 328.602C336.261 328.554 336.74 329.077 337.16 329.516C337.383 329.748 337.616 329.991 337.849 330.202C338.563 330.905 339.298 331.58 340.033 332.253C341.877 333.942 343.782 335.689 345.267 337.895C346.834 339.986 345.217 342.626 343.651 345.178C343.099 346.079 342.579 346.927 342.22 347.708C322.85 380.45 307.027 397.552 295.249 398.538C291.671 398.394 288.591 396.467 286.098 392.804C278.088 381.044 278.218 354.634 283.68 338.884ZM305.489 401.647C307.393 400.408 310.58 398.337 314.565 395.057C324.648 386.34 331.912 374.808 338.939 363.656C341.395 359.758 343.927 355.736 346.536 351.917C349.164 360.994 351.498 369.237 353.67 377.11C354.176 378.623 354.534 380.216 354.88 381.757C355.575 384.855 356.295 388.053 358.257 390.767C354.465 392.994 352.326 395.409 351.893 397.951C351.542 400.017 352.315 402.15 354.256 404.352C354.293 404.379 354.416 404.486 354.502 404.682C345.582 404.452 336.556 404.09 327.821 403.741C324.011 403.59 320.2 403.436 316.398 403.295C312.108 403.038 308.9 402.997 306.775 402.971C305.463 402.954 304.288 402.938 303.686 402.869C304.068 402.572 304.763 402.12 305.489 401.647ZM361.562 402.124C358.176 401.132 356.312 399.867 356.31 398.563C356.309 397.02 358.905 395.295 363.099 394.059C363.306 393.99 363.487 393.955 363.641 393.955C363.769 393.955 363.879 393.98 363.971 394.028C364.345 394.225 364.532 394.877 364.714 395.51C364.964 396.38 365.244 397.359 366.154 397.577L366.301 397.624C367.96 398.177 397.496 397.535 400.61 393.894C400.874 393.625 401.074 393.68 401.721 394.043C401.946 394.169 402.172 394.292 402.367 394.362C407.285 396.502 407.747 397.922 407.582 398.577C406.712 402.058 389.222 403.608 382.9 403.102L382.863 403.098L382.827 403.101C376.446 403.587 368.927 403.847 361.564 402.124H361.562ZM403.702 406.207L404.045 406.107C409.063 404.485 412.35 401.024 412.226 397.494C412.092 393.674 408.152 390.508 401.401 388.785C400.695 386.662 400.53 384.217 400.357 381.631C400.187 379.12 400.012 376.521 399.316 374.197C399.103 372.941 398.598 372.053 397.816 371.558C396.364 370.642 394.331 371.217 392.366 371.775C390.194 372.391 388.815 372.708 388.29 371.819C387.883 368.918 385.847 367.825 384.356 367.025C383.064 366.333 382.631 366.029 382.863 365.348C383.592 363.239 385.154 362.295 386.807 361.295C387.609 360.809 388.44 360.306 389.195 359.656L389.286 359.549C389.945 358.488 389.649 357.633 389.155 357.187C388.361 356.474 386.979 356.543 385.92 357.346C382.343 359.125 379.838 361.311 379.237 366.127C378.74 366.781 378.238 367.271 377.752 367.745C376.369 369.094 375.176 370.258 375.455 374.088L375.471 374.182C375.51 374.315 375.478 374.389 375.44 374.448C375.012 375.115 372.696 375.464 370.834 375.747C369.716 375.915 368.661 376.076 367.92 376.288C367.409 376.363 367.107 375.604 366.997 375.255C365.662 371.823 364.06 368.547 362.511 365.376C361.457 363.223 360.369 360.995 359.358 358.712C358.47 356.691 357.674 354.673 356.902 352.721C355.7 349.677 354.457 346.529 352.83 343.326C351.869 341.997 351.848 341.175 351.826 340.224C351.799 339.057 351.767 337.737 349.877 335.562C350.093 333.69 358.333 324.68 361.043 321.71C361.725 321.129 362.856 320.432 364.052 319.693C367.233 317.731 370.838 315.506 370.762 312.936C370.725 311.704 369.866 310.607 368.14 309.593C369.268 307.554 369.334 305.452 369.397 303.417C369.432 302.278 369.465 301.2 369.678 300.153C372.349 297.424 375.356 292.813 375.179 288.628C375.094 286.633 374.286 284.972 372.78 283.693C370.154 281.452 367.132 280.693 364.271 281.55L364.161 281.599C360.998 283.53 360.282 282.883 359.2 281.905C357.804 280.644 355.893 278.914 348.866 281.607C342.947 283.845 337.402 287.523 331.934 292.849C331.195 291.253 330.568 290.087 330.095 289.21C329.187 287.525 329.559 285.915 331.212 284.379C333.167 282.562 336.443 279.521 341.536 273.295C345.006 268.267 345.459 263.875 342.78 261.248C339.116 257.653 329.866 258.013 319.158 265.561C312.089 251.15 301.178 245.252 289.153 249.374C270.295 255.84 254.244 285.927 261.36 318.764C263.033 326.37 264.93 334.989 264.174 343.829C263.979 346.138 263.688 348.456 263.383 350.91C261.925 362.594 260.418 374.675 268.953 385.655C272.136 389.62 274.126 390.555 279.671 391.795C280.139 392.528 280.58 393.287 281.007 394.022C282.094 395.895 283.216 397.831 284.866 399.432C285.237 399.973 286.022 400.558 286.782 401.125C287.235 401.462 287.88 401.943 288.14 402.236C287.919 402.276 287.455 402.312 286.489 402.238C281.488 402.146 276.414 402.001 271.507 401.862C266.275 401.713 260.867 401.559 255.529 401.468L254.08 401.444C251.178 401.399 248.438 401.357 245.094 401.015C244.373 400.851 244.344 400.846 244.325 399.645C244.462 385.025 245.221 370.671 245.955 356.787C246.59 344.766 247.246 332.337 247.491 319.869C248.293 294.203 258.417 244.193 275.336 217.054C282.365 205.781 290.302 198.49 300.298 194.12C316.608 187.606 335.705 185.569 354.064 188.383C378.113 192.08 393.956 200.223 408.772 232.596C415.945 250.227 416.164 269.497 416.375 288.133C416.403 290.646 416.433 293.153 416.476 295.66C416.757 303.144 417.216 310.742 417.659 318.09C418.267 328.176 418.896 338.605 419.074 348.9C419.199 354.094 419.243 359.343 419.285 364.417C419.334 370.342 419.386 376.469 419.566 382.551C419.559 388.323 418.642 393.747 417.671 399.489C417.5 400.507 417.328 401.529 417.162 402.542C416.921 403.768 416.876 404.724 416.842 405.423C416.806 406.153 416.783 406.637 416.579 406.821C416.16 407.2 414.512 407.107 411.234 406.923C409.17 406.807 406.424 406.653 402.725 406.537C403.042 406.393 403.368 406.301 403.702 406.207Z" fill="black"/>
</g>
<path d="M356.692 258.881C356.834 257.728 357.724 256.519 358.465 255.434C370.458 236.591 356.394 232.774 357.142 218.342C357.193 214.899 359.883 206.915 362.587 205.748C366.918 206.111 362.185 212.549 361.863 214.349C361.004 216.56 360.551 218.951 360.664 221.248C360.928 225.483 363.164 228.979 364.81 232.947C368.483 241.066 366.733 248.954 362.299 256.221C360.919 258.39 357.251 264.391 356.692 258.881Z" fill="black"/>
<path d="M357.96 246.059C358.169 253.167 353.834 259.334 352.055 266.072C350.798 270.003 351.454 274.146 351.73 278.182C350.697 281.866 348.12 277.275 348.072 275.43C344.81 257.846 363.958 246.73 347.962 232.881C344.935 226.131 359.234 235.986 357.96 246.059Z" fill="black"/>
<path d="M346.024 250.243C349.398 239.095 338.15 234.091 340.106 223.956C340.236 222.27 340.912 218.712 342.924 219.327C346.067 220.823 339.673 226.539 346.643 234.761C347.383 235.898 347.95 236.923 348.526 238.157C353.306 247.699 347.089 258.165 346.023 250.243H346.024Z" fill="black"/>
<path d="M313.676 277.998C312.774 288.407 302.38 284.526 303.457 280.012C305.625 278.242 307.518 284.886 310.475 278.453C310.951 277.119 310.591 276.032 310.761 274.506C312.525 271.781 314.013 275.891 313.676 277.998Z" fill="black"/>
<mask id="mask2_21_185" style="mask-type:luminance" maskUnits="userSpaceOnUse" x="440" y="144" width="191" height="263">
<path d="M440.794 144.614H630.906V406.563H440.794V144.614Z" fill="white"/>
</mask>
<g mask="url(#mask2_21_185)">
<path d="M539.429 404.784C429.591 401.766 443.534 406.453 441.377 394.925C439.643 340.89 441.276 285.463 453.197 232.215C462.814 188.66 494.183 138.007 544.359 145.323C653.478 170.398 627.932 319.848 629.094 400.355C630.062 410.607 603.96 404.801 598.626 405.926C578.738 405.489 559.38 405.341 539.429 404.784Z" fill="#77A1DD"/>
</g>
<path d="M624.025 401.574C623.321 307.414 633.6 312.243 605.239 303.262C601.696 308.671 597.343 328.1 593.224 323.771C590.544 322.688 582.544 311.19 583.114 315.923C583.229 332.385 584.046 348.004 582.013 364.383C592.39 376.298 606.125 387.946 618.014 399.2C619.452 401.751 620.454 402.386 624.027 401.574H624.025Z" fill="#FFA0C1"/>
<path d="M481.827 321.437C481.109 418.69 474.915 396.63 496.751 399.481C496.611 389.383 494.77 374.705 496.784 365.744C498.722 364.742 501.647 365.983 503.659 364.69C504.08 361.389 503.653 357.783 503.738 353.859C502.06 350.916 497.768 350.775 494.531 348.043C492.369 345.691 495.032 343.4 496.458 340.483C497.994 336.674 500.497 339.976 503.324 342.022C512.652 348.438 512.842 346.753 511.648 357.638C509.571 370.222 516.632 361.137 520.188 367.974C519.862 378.427 520.545 388.415 519.937 399.026C520.159 400.595 521.134 399.886 523.801 400.051C525.414 399.712 528.817 400.98 529.517 399.175C528.602 393.044 529.248 386.514 530.074 380.212C530.967 369.873 534.729 360.556 536.168 350.383C530.794 335.692 519.42 322.797 504.402 316.632C493.682 336.039 497.682 339.371 481.827 321.437Z" fill="white"/>
<path d="M452.158 315.491C450.364 318.367 446.052 319.866 446.303 324.217C445.686 336.495 445.075 348.671 444.751 361.129C445.91 373.113 440.075 402.72 450.339 399.06C460.975 397.757 479.006 402.253 477.564 396.823C477.59 373.126 477.836 350.853 478.638 327.025C480.101 314.708 470.815 334.09 466.569 332.552C460.627 327.919 455.869 322.316 452.158 315.491Z" fill="white"/>
<path d="M564.115 294.009C567.047 304.185 580.984 304.004 589.167 300.945C595.799 297.137 595.449 290.857 597.906 284.167C604.027 284.521 612.251 281.725 608.872 273.688C607.888 271.981 606.429 271.238 604.311 270.873C587.968 272.081 573.817 259.506 568.859 246.097C566.53 249.703 564.975 254.037 562.874 258.521C559.726 269.848 547.874 266.491 548.329 275.868C555.298 286.678 561.907 271.869 563.773 289.826C566.067 290.435 568.547 290.007 570.988 288.936C579.2 284.948 573.059 297.288 564.115 294.009Z" fill="#703D22"/>
<path d="M506.056 253.119C473.731 288.377 461.444 261.809 456.935 273.685C453.738 283.349 459.484 281.374 466.466 283.179C464.398 304.219 476.489 320.041 495.987 307.609C499.657 303.259 502.022 301.109 495.104 300.086C489.599 298.291 485.438 284.249 492.843 283.987C496.28 284.501 500.156 289.732 504.371 287.358C507.233 285.946 507.137 281.82 509.161 279.944C512.549 279.151 525.425 281.752 524.489 276.71C502.401 263.885 504.478 284.227 506.056 253.119Z" fill="#FFC0A1"/>
<path d="M588.405 232.839C539.656 239.3 616.434 290.113 609.283 250.938C607.206 240.582 598.772 234.383 588.405 232.839Z" fill="#FFC73C"/>
<path d="M487.988 242.517C462.549 242.236 458.66 269.578 467.998 268.009C481.992 268.543 498.57 257.896 503.272 247.999C500.227 244.149 492.862 242.614 487.988 242.517Z" fill="#FF5C33"/>
<path d="M570.855 386.906C569.399 388.824 571.453 395.699 567.883 396.308C560.351 395.782 546.749 397.812 544.923 394.917C544.197 388.226 543.468 382.037 543.843 375.497C540.544 372.547 540.084 372.353 544.601 369.407C541.549 369.176 537.904 366.283 543.613 363.836C544.784 363.199 545.945 363.571 545.258 361.202C544.754 328.144 552.566 346.214 548.44 333.668C538.42 347.882 529.014 400.836 534.029 400.248C548.172 400.284 561.94 401.284 574.915 400.444C574.968 395.569 575.542 390.657 570.855 386.907V386.906Z" fill="#FFA0C1"/>
<path d="M579.689 313.824C576.267 318.445 573.786 322.727 569.73 327.796C565.35 330.328 563.035 310.581 559.556 317.315C553.306 325.059 553.09 324.834 555.759 333.094C555.426 342.808 566.119 335.09 569.478 340.748C569.615 356.776 567.84 350.911 578.983 360.937C579.456 359.158 580.146 315.876 579.689 313.824Z" fill="#FFA0C1"/>
<path d="M587.116 374.783C585.326 380.299 575.406 389.095 579.488 391.614C582.997 394.395 584.767 399.474 589.2 401.221C597.856 400.844 607.895 402.677 615.423 401.124C606.033 393.1 596.176 383.974 587.116 374.783Z" fill="#FFA0C1"/>
<path d="M543.884 366.375C549.764 368.121 557.085 365.989 563.764 365.208C569.637 368.566 546.016 369.526 545.001 372.183C548.098 374.32 567.762 367.559 563.209 372.771C558.877 374.356 551.308 373.844 547.243 377.577C549.724 377.929 572.359 374.018 559.188 379.257C556.59 380.51 549.731 380.953 550.584 384.123C556.467 382.778 564.85 383.074 570.206 380.989C574.872 369.711 581.668 365.222 570.684 357.697C570.169 357.412 568.998 356.7 569.251 359.342C567.072 364.134 547.822 362.875 543.884 366.375Z" fill="#703D22"/>
<path d="M499.22 399.488C504.185 399.652 511.265 400.151 516.558 399.785C517.426 393.085 517.435 383.695 516.056 377.242C510.742 377.317 505.082 376.836 499.349 377.128C498.076 383.807 500.449 392.014 499.22 399.488Z" fill="#FFC73C"/>
<path d="M604.188 220.262C604.515 206.153 584.247 207.786 582.407 219.41C581.92 227.279 590.342 228.526 596.628 230.533C600.716 229.509 604.05 224.728 604.188 220.262Z" fill="#FFC73C"/>
<path d="M548.061 362.549C571.486 357.815 566.138 362.983 566.582 342.941C540.966 339.018 550.706 345.847 548.061 362.549Z" fill="#2D881A"/>
<path d="M478.192 315.661C462.466 309.487 471.766 299.746 455.182 312.758C454.519 315.657 460.304 320.154 462.475 322.742C464.354 324.012 465.745 327.112 467.909 326.688C471.618 323.116 474.811 319.971 478.192 315.661Z" fill="white"/>
<path d="M601.273 301.903C596.89 298.303 594.937 303.873 591.405 305.995C588.672 308.163 585.632 306.955 582.951 309.039C586.095 311.821 589.712 315.687 593.545 318.733C596.666 314.958 598.572 306.98 601.273 301.903Z" fill="#FFA0C1"/>
<path d="M547.036 385.411C547.744 386.795 545.774 392.225 548.926 392.27C553.394 391.089 566.846 393.88 567.021 390.663C570.273 377.277 553.495 390.155 547.036 385.411Z" fill="#2D881A"/>
<path d="M579.17 308.538C573.375 306.398 568.595 307.262 564.13 312.603C564.627 315.25 567.153 319.691 569.226 321.983C571.964 317.964 575.736 312.852 579.17 308.538Z" fill="#FFA0C1"/>
<path d="M484.659 316.673C493.527 328.381 493.708 330.091 497.78 320.056C499.245 316.554 502.828 313.53 497.348 312.455C493.963 315.658 489.562 316.106 484.659 316.673Z" fill="white"/>
<path d="M579.281 366.696C578.276 372.698 572.032 378.887 572.774 384.64C573.38 385.315 574.054 385.894 575.351 386.827C575.886 386.51 575.465 386.827 576.29 385.714C582.366 374.056 587.274 373.122 579.281 366.696Z" fill="#FFA0C1"/>
<path d="M554.813 297.306C551.667 301.6 544.052 305.833 546.235 312.434C548.985 321.888 551.543 340.608 554.267 338.416C552.529 329.366 548.705 319.167 547.736 309.317C549.014 305.025 558.658 301.408 554.813 297.304V297.306Z" fill="white"/>
<path d="M506.338 357.676C505.87 358.814 505.926 368.629 508.659 363.461C507.643 358.348 512.576 350.218 506.165 347.639C503.331 346.832 499.884 340.353 497.888 343.737C495.296 349.46 509.048 345.509 506.338 357.676Z" fill="#77A1DD"/>
<path d="M510.867 373.483C513.76 373.997 518.658 374.316 516.605 369.655C512.782 368.429 510.191 368.392 510.867 373.483Z" fill="white"/>
<path d="M498.695 369.155C497.883 372.698 499.557 374.885 503.659 373.111C505.07 369.452 503.24 368.765 498.695 369.155Z" fill="white"/>
<path d="M583.145 400.958C581.193 398.774 579.618 397.013 577.801 394.98C577.869 399.988 576.444 401.544 583.145 400.958Z" fill="#FFA0C1"/>
<path d="M508.53 371.286H508.611C509.048 368.136 505.076 368.233 506.202 373.168C507.077 373.912 508.903 374.238 508.53 371.286Z" fill="#77A1DD"/>
<path d="M550.487 380.09C546.965 379.414 545.745 380.578 547.259 383.062C547.772 382.368 548.789 381.324 550.487 380.09Z" fill="black"/>
<mask id="mask3_21_185" style="mask-type:luminance" maskUnits="userSpaceOnUse" x="440" y="144" width="191" height="263">
<path d="M440.794 144.614H630.906V406.563H440.794V144.614Z" fill="white"/>
</mask>
<g mask="url(#mask3_21_185)">
<path d="M539.429 404.784C429.591 401.766 443.534 406.453 441.377 394.925C439.643 340.89 441.276 285.463 453.197 232.215C462.814 188.66 494.183 138.007 544.359 145.323C653.478 170.398 627.932 319.848 629.094 400.355C630.062 410.607 603.96 404.801 598.626 405.926C578.738 405.489 559.38 405.341 539.429 404.784ZM508.573 267.317C528.765 266.898 540.054 285.528 514.011 284.699C508.844 283.558 509.992 290.246 505.014 292.198C499.868 296.232 491.858 283.338 492.294 291.062C493.318 301.234 511.078 291.244 499.969 309.796C525.454 321.387 528.596 326.93 538.925 344.689C540.791 339.443 543.961 334.063 547.158 328.788C546.702 320.134 539.334 310.313 545.955 303.364C552.344 295.207 556.446 288.049 558.764 301.256C550.468 309.922 548.649 309.165 552.565 319.8C555.755 315.681 558.42 311.704 562.845 308.076C563.772 306.499 566.972 306.357 566.66 304.247C561.021 300.066 559.852 294.439 559.797 286.826C559.727 285.791 559.527 285.557 558.383 285.479C552.953 285.635 548.048 283.331 545.515 278.376C540.853 265.706 554.04 265.125 558.327 258.535C563.813 247.214 568.267 234.03 581.455 229.365C584.406 229.021 580.995 227.032 580.083 224.58C578.234 220.456 578.65 216.105 581.099 212.179C597.525 191.315 619.973 219.355 601.889 233.058C615.186 242.184 616.74 256.48 610.691 269.137C613.868 271.984 614.748 277.595 612.684 282.036C605.658 295.431 601.1 283.295 598.987 296.785C605.398 298.014 612.289 299.332 618.277 303.249C620.923 304.218 623.994 308.764 624.947 306.451C623.258 266.392 623.4 222.766 599.291 188.865C565.327 142.131 512.459 138.328 479.804 183.477C456.18 217.648 451.419 260.249 447.872 300.446C447.376 315.607 443.986 317.348 454.314 308.139C464.507 300.472 465.576 306.431 462.84 294.163C462.304 291.94 462.891 289.16 461.979 287.24C453.946 286.156 450.946 279.305 454.087 272.03C456.502 265.474 460.62 268.434 459.863 260.295C464.744 226.855 520.374 229.935 508.573 267.317ZM624.026 401.574C623.321 307.414 633.6 312.243 605.239 303.262C601.696 308.671 597.343 328.1 593.225 323.771C590.545 322.688 582.544 311.19 583.114 315.923C583.229 332.384 584.046 348.003 582.013 364.383C592.39 376.297 606.125 387.946 618.014 399.2C619.453 401.751 620.454 402.385 624.027 401.574H624.026ZM481.828 321.437C481.109 418.69 474.915 396.63 496.751 399.481C496.611 389.383 494.77 374.705 496.784 365.743C498.722 364.742 501.647 365.983 503.659 364.69C504.081 361.389 503.654 357.783 503.738 353.859C502.06 350.916 497.768 350.775 494.531 348.043C492.37 345.691 495.032 343.4 496.458 340.483C497.994 336.674 500.497 339.976 503.324 342.022C512.652 348.438 512.842 346.753 511.648 357.638C509.571 370.222 516.632 361.137 520.188 367.974C519.862 378.426 520.545 388.415 519.938 399.026C520.159 400.595 521.134 399.886 523.802 400.051C525.414 399.712 528.817 400.98 529.517 399.175C528.602 393.044 529.248 386.514 530.075 380.212C530.967 369.873 534.73 360.556 536.168 350.383C530.795 335.692 519.42 322.796 504.402 316.632C493.682 336.038 497.682 339.37 481.828 321.437ZM452.158 315.491C450.364 318.367 446.052 319.866 446.303 324.217C445.686 336.495 445.075 348.671 444.751 361.129C445.91 373.113 440.075 402.72 450.339 399.06C460.975 397.757 479.007 402.253 477.564 396.823C477.59 373.126 477.836 350.853 478.638 327.025C480.102 314.707 470.815 334.09 466.569 332.551C460.627 327.919 455.869 322.316 452.158 315.491ZM564.115 294.009C567.047 304.185 580.984 304.004 589.168 300.945C595.799 297.137 595.449 290.857 597.906 284.166C604.027 284.521 612.252 281.725 608.872 273.688C607.888 271.981 606.429 271.238 604.311 270.872C587.969 272.081 573.817 259.506 568.859 246.097C566.53 249.703 564.975 254.037 562.874 258.521C559.726 269.848 547.874 266.491 548.33 275.868C555.298 286.678 561.908 271.868 563.773 289.826C566.067 290.435 568.547 290.007 570.988 288.936C579.2 284.947 573.059 297.288 564.115 294.009ZM506.056 253.119C473.731 288.377 461.444 261.809 456.935 273.685C453.738 283.349 459.484 281.374 466.466 283.179C464.398 304.219 476.489 320.041 495.987 307.609C499.657 303.259 502.022 301.109 495.104 300.086C489.599 298.291 485.438 284.249 492.843 283.987C496.28 284.501 500.156 289.732 504.371 287.357C507.233 285.946 507.137 281.82 509.161 279.944C512.549 279.151 525.425 281.752 524.489 276.71C502.401 263.885 504.478 284.227 506.056 253.119ZM588.405 232.839C539.656 239.3 616.434 290.113 609.283 250.938C607.206 240.582 598.772 234.383 588.405 232.839ZM487.988 242.517C462.549 242.236 458.66 269.578 467.998 268.009C481.992 268.543 498.57 257.896 503.272 247.999C500.228 244.149 492.862 242.614 487.988 242.517ZM570.855 386.906C569.399 388.824 571.453 395.699 567.884 396.308C560.351 395.782 546.749 397.812 544.923 394.917C544.197 388.225 543.468 382.037 543.843 375.497C540.544 372.547 540.084 372.353 544.601 369.407C541.549 369.176 537.904 366.283 543.613 363.836C544.785 363.199 545.945 363.571 545.258 361.202C544.754 328.144 552.566 346.214 548.44 333.668C538.42 347.882 529.014 400.836 534.029 400.248C548.172 400.284 561.94 401.284 574.915 400.444C574.968 395.569 575.542 390.657 570.855 386.907V386.906ZM579.689 313.824C576.267 318.445 573.786 322.727 569.73 327.796C565.35 330.328 563.035 310.581 559.556 317.315C553.306 325.058 553.09 324.834 555.759 333.094C555.427 342.808 566.119 335.09 569.478 340.747C569.615 356.776 567.84 350.911 578.983 360.937C579.456 359.157 580.146 315.876 579.689 313.824ZM587.116 374.783C585.326 380.299 575.406 389.095 579.488 391.614C582.997 394.395 584.767 399.474 589.2 401.221C597.856 400.844 607.895 402.677 615.423 401.124C606.033 393.1 596.176 383.974 587.116 374.783ZM543.884 366.375C549.764 368.121 557.085 365.989 563.764 365.208C569.637 368.566 546.016 369.526 545.001 372.183C548.098 374.32 567.762 367.559 563.209 372.771C558.877 374.356 551.308 373.844 547.243 377.577C549.724 377.929 572.359 374.018 559.188 379.257C556.59 380.51 549.731 380.953 550.584 384.123C556.467 382.778 564.85 383.074 570.206 380.989C574.872 369.711 581.668 365.221 570.684 357.697C570.169 357.412 568.998 356.699 569.251 359.342C567.072 364.134 547.822 362.875 543.884 366.375ZM499.22 399.488C504.185 399.652 511.265 400.151 516.558 399.785C517.426 393.085 517.436 383.695 516.056 377.241C510.742 377.317 505.083 376.836 499.349 377.128C498.076 383.807 500.449 392.014 499.22 399.488ZM604.188 220.262C604.515 206.153 584.247 207.786 582.407 219.41C581.92 227.279 590.342 228.525 596.629 230.533C600.716 229.509 604.05 224.728 604.188 220.262ZM548.061 362.548C571.486 357.815 566.138 362.983 566.582 342.941C540.966 339.018 550.706 345.847 548.061 362.548ZM478.192 315.661C462.467 309.487 471.766 299.746 455.182 312.758C454.52 315.657 460.304 320.153 462.475 322.742C464.354 324.012 465.745 327.112 467.909 326.687C471.618 323.116 474.811 319.971 478.192 315.661ZM601.273 301.902C596.89 298.303 594.937 303.873 591.406 305.995C588.672 308.162 585.632 306.955 582.951 309.039C586.095 311.821 589.712 315.687 593.545 318.733C596.666 314.958 598.572 306.98 601.273 301.902ZM547.036 385.411C547.744 386.795 545.774 392.225 548.926 392.27C553.394 391.089 566.846 393.88 567.021 390.663C570.273 377.277 553.495 390.155 547.036 385.411ZM579.17 308.538C573.375 306.398 568.595 307.262 564.13 312.603C564.627 315.25 567.153 319.69 569.226 321.983C571.964 317.964 575.736 312.852 579.17 308.538ZM484.659 316.673C493.528 328.381 493.708 330.091 497.78 320.056C499.245 316.554 502.828 313.53 497.348 312.455C493.963 315.658 489.562 316.106 484.659 316.673ZM579.281 366.696C578.276 372.698 572.032 378.887 572.774 384.64C573.38 385.315 574.054 385.894 575.351 386.827C575.887 386.51 575.465 386.827 576.29 385.714C582.366 374.056 587.275 373.121 579.281 366.696ZM554.813 297.306C551.667 301.6 544.052 305.833 546.235 312.434C548.985 321.888 551.543 340.608 554.267 338.416C552.529 329.366 548.705 319.167 547.736 309.317C549.014 305.025 558.658 301.408 554.813 297.304V297.306ZM506.338 357.676C505.87 358.814 505.926 368.629 508.659 363.461C507.644 358.348 512.576 350.218 506.165 347.639C503.331 346.832 499.884 340.353 497.888 343.737C495.296 349.46 509.048 345.509 506.338 357.676ZM510.867 373.483C513.76 373.997 518.658 374.316 516.605 369.655C512.782 368.429 510.191 368.392 510.867 373.483ZM498.695 369.155C497.883 372.698 499.557 374.885 503.659 373.111C505.07 369.452 503.24 368.765 498.695 369.155ZM583.145 400.958C581.193 398.774 579.618 397.013 577.802 394.98C577.869 399.988 576.444 401.544 583.145 400.958ZM508.53 371.286H508.611C509.048 368.136 505.076 368.233 506.202 373.168C507.077 373.912 508.903 374.238 508.53 371.286ZM550.487 380.09C546.965 379.414 545.745 380.578 547.259 383.062C547.773 382.368 548.789 381.324 550.487 380.09Z" fill="black"/>
</g>
<path d="M565.169 267.464C564.834 264.592 569.343 264.143 568.669 267.987C568.004 269.938 565.531 270.457 565.169 267.464Z" fill="black"/>
<path d="M497.875 274.262C494.878 274.968 489.472 265.833 494.34 267.49C494.976 268.224 495.951 270.311 497.723 270.268C506.395 263.007 503.738 273.476 497.875 274.262Z" fill="black"/>
<path d="M582.131 372.046C582.081 374.955 578.193 374.775 579.334 370.394C580.094 369.126 581.838 369.987 582.131 372.046Z" fill="black"/>
<path d="M396.294 133.868L393.856 103.129L389.319 103.489L389.724 108.593L383.996 109.047L383.546 103.376L388.707 102.966L388.297 97.8054L393.969 97.3556L394.378 102.517L399.596 102.103L402.079 133.409L396.294 133.868ZM430.529 125.503L429.765 115.861L419.499 116.675L419.05 111.004L429.315 110.19L428.451 99.3005L434.236 98.8417L435.1 109.731L445.422 108.912L445.872 114.584L435.55 115.402L436.314 125.044L430.529 125.503ZM475.938 127.551L473.5 96.8118L468.963 97.1717L469.368 102.276L463.64 102.73L463.19 97.0588L468.351 96.6495L467.942 91.4884L473.613 91.0386L474.023 96.1997L479.24 95.7858L481.723 127.092L475.938 127.551ZM501.377 108.298L500.923 102.57L522.588 100.851L523.042 106.58L501.377 108.298ZM502.074 117.089L501.625 111.417L523.29 109.699L523.74 115.37L502.074 117.089ZM554.769 110.969L553.914 100.193L564.236 99.3744L563.467 89.6761L548.608 90.8547L549.417 101.063L543.689 101.518L542.834 90.7419L547.995 90.3325L547.586 85.1715L563.58 83.903L563.989 89.064L569.207 88.6502L570.061 99.426L564.844 99.8398L565.249 104.944L560.144 105.349L560.554 110.51L554.769 110.969ZM555.583 121.234L555.133 115.563L560.918 115.104L561.368 120.775L555.583 121.234Z" fill="black" fill-opacity="0.4"/>
<path d="M21.0395 120.718L21.374 117.427L18.0828 117.092L19.0937 107.145L15.766 106.807L16.1376 103.15L19.4654 103.488L20.1381 96.8695L23.795 97.2411L23.1223 103.86L33.1422 104.878L32.7705 108.535L22.7506 107.517L21.7769 117.098L31.431 118.079L31.7693 114.751L35.4627 115.127L35.0873 118.82L31.7596 118.482L31.4251 121.773L21.0395 120.718ZM41.3895 122.786L41.724 119.495L38.3962 119.157L39.4406 108.881L42.7684 109.219L43.1066 105.891L53.4191 106.939L53.0808 110.267L56.4452 110.609L56.0772 114.229L52.3472 113.85L52.6817 110.559L43.1006 109.585L42.8033 112.511L49.4589 113.187L49.0835 116.881L42.4279 116.204L42.1269 119.166L51.7079 120.14L52.0499 116.776L55.7799 117.155L55.4045 120.848L52.0402 120.506L51.7019 123.834L41.3895 122.786ZM62.8166 124.964L63.1511 121.673L59.8233 121.334L60.8677 111.059L64.1955 111.397L64.5337 108.069L74.8461 109.117L74.5079 112.445L77.8723 112.787L76.865 122.697L80.1928 123.035L79.8212 126.692L76.1277 126.317L76.4622 123.025L73.4635 122.721L73.129 126.012L62.8166 124.964ZM63.554 121.344L73.135 122.318L74.1088 112.737L64.5277 111.763L63.554 121.344ZM83.1301 127.028L84.8472 110.134L95.1962 111.185L94.8579 114.513L97.7835 114.81L98.1217 111.483L105.179 112.2L104.841 115.528L108.132 115.862L106.754 129.429L103.097 129.058L104.442 115.82L98.1157 115.177L96.7703 128.415L93.1134 128.043L94.4588 114.805L88.169 114.166L86.8235 127.404L83.1301 127.028ZM111.164 129.878L112.881 112.983L116.574 113.358L115.229 126.596L121.519 127.235L122.864 113.997L126.521 114.369L125.176 127.607L131.502 128.25L132.848 115.012L136.504 115.384L135.122 128.987L131.831 128.653L131.496 131.944L124.438 131.227L124.773 127.936L121.847 127.638L121.513 130.929L111.164 129.878ZM141.418 132.952L141.753 129.661L138.425 129.323L139.469 119.047L142.797 119.385L143.135 116.058L153.448 117.106L153.11 120.434L156.474 120.775L155.43 131.051L152.065 130.709L151.731 134.001L141.418 132.952ZM142.156 129.333L151.737 130.307L152.71 120.725L143.129 119.752L142.156 129.333ZM159.518 134.792L160.897 121.225L164.224 121.563L164.563 118.235L174.875 119.283L174.537 122.611L177.901 122.953L177.533 126.573L173.803 126.194L174.138 122.903L164.557 121.929L163.211 135.167L159.518 134.792ZM180.23 136.897L182.62 113.383L186.314 113.759L184.972 126.96L187.898 127.257L188.228 124.003L194.884 124.679L195.222 121.351L198.952 121.731L198.58 125.387L195.216 125.046L194.882 128.337L188.226 127.66L187.925 130.622L194.581 131.299L194.242 134.627L197.607 134.968L197.235 138.625L193.505 138.246L193.84 134.955L187.184 134.279L187.522 130.951L184.597 130.654L183.924 137.273L180.23 136.897Z" fill="black" fill-opacity="0.3"/>
<path d="M410.62 458.978V456.277H420.424V454.089H413.078V451.631H410.62V448.958H413.078V446.5H423.179V449.201H413.348V451.361H420.695V453.819H423.179V456.547H420.695V458.978H410.62ZM428.376 463.866V461.435H425.918V458.734H428.646V461.165H435.749V456.547H428.376V454.089H425.918V446.5H428.646V453.819H435.749V446.5H438.477V461.435H436.019V463.866H428.376ZM441.743 458.978V446.5H451.817V448.958H454.302V458.978H451.547V449.201H444.471V458.978H441.743ZM459.208 458.978V456.547H456.751V448.958H459.208V446.5H466.825V448.958H469.309V451.631H466.554V449.201H459.478V451.361H464.394V454.089H459.478V456.277H466.554V453.792H469.309V456.52H466.825V458.978H459.208ZM472.576 458.978V448.958H475.033V446.5H482.65V448.958H485.134V451.631H482.38V449.201H475.303V458.978H472.576ZM490.331 463.866V461.435H487.873V458.734H490.601V461.165H497.704V456.547H490.331V454.089H487.873V448.958H490.331V446.5H497.974V448.958H500.432V461.435H497.974V463.866H490.331ZM490.601 453.819H497.704V449.201H490.601V453.819ZM506.156 463.866V461.435H503.698V458.734H506.426V461.165H513.529V456.547H506.156V454.089H503.698V446.5H506.426V453.819H513.529V446.5H516.257V461.435H513.799V463.866H506.156ZM519.523 458.653V455.926H522.251V458.653H519.523ZM525.51 458.653V455.926H528.238V458.653H525.51ZM531.498 458.653V455.926H534.225V458.653H531.498Z" fill="black" fill-opacity="0.8"/>
</svg>
