<svg width="1440" height="10" viewBox="0 0 1440 10" fill="none" xmlns="http://www.w3.org/2000/svg">
<path d="M0 5H15M25 5H40M50 5H65M75 5H90M100 5H115M125 5H140M150 5H165M175 5H190M200 5H215M225 5H240M250 5H265M275 5H290M300 5H315M325 5H340M350 5H365M375 5H390M400 5H415M425 5H440M450 5H465M475 5H490M500 5H515M525 5H540M550 5H565M575 5H590M600 5H615M625 5H640M650 5H665M675 5H690M700 5H715M725 5H740M750 5H765M775 5H790M800 5H815M825 5H840M850 5H865M875 5H890M900 5H915M925 5H940M950 5H965M975 5H990M1000 5H1015M1025 5H1040M1050 5H1065M1075 5H1090M1100 5H1115M1125 5H1140M1150 5H1165M1175 5H1190M1200 5H1215M1225 5H1240M1250 5H1265M1275 5H1290M1300 5H1315M1325 5H1340M1350 5H1365M1375 5H1390M1400 5H1415M1425 5H1440M1450 5H1465M1475 5H1490" stroke="url(#paint0_linear_18_157)" stroke-width="10"/>
<defs>
<linearGradient id="paint0_linear_18_157" x1="-44.5" y1="5" x2="1490" y2="5.5" gradientUnits="userSpaceOnUse">
<stop/>
<stop offset="0.292284" stop-color="#333333" stop-opacity="0.13"/>
<stop offset="0.646142" stop-color="#4D4D4D" stop-opacity="0"/>
<stop offset="1" stop-color="#2D881A"/>
</linearGradient>
</defs>
</svg>
