<svg width="100%" height="100%" viewBox="0 0 745 839" preserveAspectRatio="xMidYMid meet" fill="none" xmlns="http://www.w3.org/2000/svg">
<mask id="mask0_7_42" style="mask-type:luminance" maskUnits="userSpaceOnUse" x="565" y="111" width="220" height="216">
<path d="M565.906 111.168H784.465V326.354H565.906V111.168Z" fill="white"/>
</mask>
<g mask="url(#mask0_7_42)">
<path d="M783.65 198.43C771.2 194.678 745.186 205.798 711.968 210.846C702.002 189.28 695.092 163.56 686.139 140.031C681.668 128.963 673.654 91 665.711 125.023C657.748 149.097 650.242 173.622 643.139 197.198C642.363 201.825 602.337 194.786 572.49 193.725C548.947 189.527 594.026 225.542 621.412 256.933C628.975 260.043 600.404 297.869 590.364 322.117C588.482 338.171 638.184 303.781 653.203 298.558C663.165 295.4 674.509 282.619 685.005 287.957C712.674 297.508 740.762 314.066 768.082 320.122C767.323 307.104 747.037 284.807 732.704 255.766C744.425 242.911 758.11 230.066 769.948 217.811C772.754 213.048 788.136 204.94 783.65 198.43Z" fill="#FFC73C"/>
<path d="M572.49 193.725C602.337 194.786 642.363 201.825 643.139 197.198C650.242 173.622 657.748 149.099 665.711 125.023C673.654 91 681.668 128.963 686.139 140.031C695.092 163.56 702.002 189.28 711.968 210.846C745.186 205.8 771.2 194.678 783.652 198.432C788.136 204.941 772.754 213.048 769.948 217.813C758.11 230.066 744.425 242.913 732.704 255.767C747.037 284.807 767.323 307.105 768.082 320.122C740.762 314.067 712.674 297.508 685.005 287.959C674.51 282.619 663.165 295.4 653.203 298.56C638.184 303.781 588.482 338.171 590.364 322.118C600.404 297.869 628.975 260.043 621.412 256.935C594.026 225.544 548.947 189.527 572.49 193.725ZM577.998 201.201C646.074 282.533 640.594 239.708 603.48 314.677C628.855 304.267 652.814 285.933 678.637 278.646C705.122 288.233 729.724 300.483 756.364 309.289C711.329 229.384 715.113 268.286 767.033 207.499C746.902 209.203 707.167 225.493 704.765 213.807C693.678 185.665 685.507 157.293 674.254 129.091C664.869 153.672 658.912 181.797 648.821 206.508C625.814 207.308 601.512 202.522 577.996 201.201H577.998Z" fill="black"/>
</g>
<path d="M190.378 781.717C715.58 752.525 686.762 761.303 689.335 750.812C714.522 618.354 740.229 488.031 764.946 355.528C765.565 352.635 763.979 353.093 759.832 353.362C729.624 354.776 700.993 355.117 670.732 356.126C590.327 359.784 593.397 352.424 590.347 363.979C572.448 422.335 555.28 477.805 536.45 535.118C534.27 540.421 529.484 539.019 524.095 539.353C513.585 540.47 505.44 541.26 494.482 541.281C365.217 555.82 380.972 523.33 372.57 563.958C363.984 604.751 354.327 643.155 346.121 683.92C344.656 690.799 335.483 689.426 329.332 691.158C282.6 699.639 237.002 706.048 190.474 714.505C189.217 736.299 189.962 759.596 190.378 781.716V781.717Z" fill="#77A1DD"/>
<path d="M115.177 166.438C73.1695 180.619 59.4029 204.716 60.6177 241.919C59.0481 293.222 75.9592 326.451 93.6132 364.797C114.293 412.285 139.061 468.228 169.364 489.633C193.886 506.34 237.746 497.336 252.09 480.453C250.777 470.427 247.297 459.779 249.173 448.32C250.8 434.363 252.565 421.844 259.361 409.165C260.114 406.544 263.983 404.847 261.845 401.979C257.837 398.647 253.794 392.579 252.469 386.613C246.374 358.216 267.66 333.441 283.757 312.4C297.06 294.606 318.165 281.401 333.218 269.029C321.669 263.768 310.042 255.753 296.553 254.967C280.001 257.659 274.697 259.88 282.465 241.261C300.827 210.584 347.458 265.269 345.067 246.544C339.945 242.291 331.288 240.484 327.304 233.45C322.858 220.117 330.61 218.053 340.51 221.828C343.123 222.851 345.811 224.658 344.151 219.467C340.973 204.316 341.223 187.536 329.634 176.702C311.792 163.9 283.065 160.768 270.688 181.932C251.709 210.701 249.452 244.813 243.838 277.889C229.185 385.722 256.657 405.199 236.233 420.377C205.26 449.921 187.574 416.095 169.31 398.322C155.128 390.326 139.239 385.017 125.581 376.639C122.116 362.151 136.432 352.127 128.028 348.412C77.0115 310.988 120.937 325.668 85.7947 310.794C82.1084 307.348 86.3995 305.702 90.6976 304.012C88.705 301.397 77.8732 294.118 90.1191 294.197C94.7109 294.578 103.232 298.268 106.903 296.919C109.774 286.029 108.593 276.358 105.815 265.241C100.068 231.594 103.267 198.514 115.177 166.438Z" fill="#FFA0C1"/>
<path d="M403.956 496.071C423.962 495.171 449.879 502.098 451.873 497.368C460.927 467.865 481.743 437.621 474.71 405.317C441.04 328.586 370.067 383.549 332.732 416.674C328.871 419.558 328.261 423.394 323.22 425.044C322.127 424.045 321.552 422.405 319.381 423.333C302.421 424.87 283.351 424.929 265.685 424.915C257.812 425.326 257.937 424.693 257.568 426.591C263.027 424.875 260.744 424.789 257.937 424.693C255.133 440.271 252.639 452.889 255.164 467.054C260.163 492.36 287.052 505.489 311.143 499.93C331.804 492.844 344.812 475.301 359.83 460.15C374.666 445.172 386.887 428.088 407.27 419.657C424.789 415.798 425.445 439.909 420.531 451.702C415.814 466.276 409.556 481.181 403.956 496.071Z" fill="#FF5C33"/>
<path d="M320.907 502.907C298.742 514.858 268.803 507.319 255.736 485.522C240.917 545.63 192.72 654.541 205.011 661.212C214.87 670.691 229.641 669.831 243.177 669.54C248.514 668.225 249.386 664.02 252.889 659.312C280.551 608.719 299.504 556.189 320.907 502.907Z" fill="#FF5C33"/>
<path d="M282.661 401.032C313.297 399.074 342.308 374.869 358.709 350.868C351.515 330.93 319.278 352.293 308.616 357.11C298.918 362.862 294.573 357.984 306.543 352.883C318.577 345.628 329.963 340.417 343.149 335.808C345.38 329.867 347.65 322.8 353.579 318.378C362.41 313.37 340.875 262.118 331.4 277.328C298.273 293.143 213.326 393.577 282.661 401.03V401.032Z" fill="#2D881A"/>
<path d="M222.235 385.103C214.331 305.265 229.771 330.459 202.438 309.163C174.811 291.1 151.181 268.968 123.137 253.708C116.32 239.664 109.542 313.232 109.836 315.186C142.324 343.52 185.232 361.177 222.235 385.103Z" fill="#FFC73C"/>
<path d="M222.768 275.091C231.847 197.67 248.949 229.353 201.638 198.238C190.521 193.367 180.145 180.31 175.029 186.333C139.889 215.627 118.292 217.764 128.874 228.07C140.709 248.979 152.707 267.618 173.334 280.992C179.719 285.16 187.504 295.889 193.688 293.645C201.404 288.016 215.73 269.038 222.768 275.091Z" fill="white"/>
<path d="M120.005 123.471C163.331 141.94 206.738 169.558 246.815 190.301C252.034 181.172 258.679 173.531 267.562 167.947C278.917 147.129 293.365 127.437 308.149 108.712C262.329 85.1498 214.567 57.3736 168.244 38.5416C153.782 67.5849 134.696 94.0799 120.005 123.471Z" fill="#95908D"/>
<path d="M444.803 213.793C430.769 222.73 402.22 242.209 391.334 231.251C386.824 232.693 380.369 245.039 384.316 248.251C386.024 249.776 392.856 250.01 388.74 253.476C380.93 259.817 373.336 266.776 363.843 271.983C377.317 284.244 374.171 302.045 381.103 293.405C385.744 290.256 389.826 285.178 395.581 284.012C399.097 286.499 420.355 291.28 414.296 282.511C406.578 272.535 412.375 251.221 423.349 268.342C424.609 269.959 425.742 274.176 428.073 272.549C439.258 255.883 439.636 273.776 448.722 280.079C459.821 290.231 461.478 279.78 456.668 269.845C452.866 260.546 445.49 255.129 442.959 244.911C442.473 234.473 447.606 224.859 444.803 213.793Z" fill="#EC987E"/>
<path d="M381.731 254.168C371.39 248.007 386.499 220.456 395.096 227.35C409.519 233.074 434.917 215.523 443.623 208.609C430.671 202.161 415.114 196.319 400.483 191.762C397.558 191.893 396.461 195.199 393.554 197.647C330.571 271.773 345.939 246.199 361.906 269.754C367.421 263.067 375.702 260.144 381.731 254.168Z" fill="#703D22"/>
<path d="M236.098 211.737C237.503 207.313 247.073 195.744 240.636 193.66C220.755 181.497 201.662 170.88 180.962 159.629C160.689 148.697 140.279 138.11 119.53 128.082C117.327 127.395 117.415 128.783 115.612 132.211C114.66 136.079 109.327 138.788 115.529 140.734C126.235 146.355 135.554 152.2 145.955 158.353C176.305 175.416 205.817 194.295 236.098 211.737Z" fill="#95908D"/>
<path d="M269.26 174.654C217.037 202.72 216.944 389.125 237.53 411.108C239.985 409.285 239.881 406.856 239.721 403.106C238.059 385.863 235.582 367.638 234.895 349.681C234.473 287.394 245.49 206.529 269.26 174.654Z" fill="#77A1DD"/>
<path d="M400.818 501.365C398.469 536.161 388.44 534.773 416.083 533.99C418.686 530.468 417.981 520.919 425.686 519.775C434.408 518.991 433.41 529.722 437.663 535.646C455.24 539.47 476.98 533.155 495.201 530.224C510.619 528.521 496.186 520.14 489.081 519.565C480.777 518.193 471.71 522.007 463.619 517.481C457.225 515.254 456.853 506.284 450.337 505.594C433.389 505.103 418.025 501.577 400.818 501.365Z" fill="black"/>
<path d="M248.95 674.24C237.905 680.336 222.41 677.283 210.404 673.406C206.35 672.92 202.727 665.407 200.395 668.374C193.143 701.509 185.2 706.038 204.293 703.652C208 701.406 207.392 695.943 211.295 692.061C217.995 684.449 224.343 687.849 223.092 697.796C224.008 699.043 223.78 698.812 226.539 698.641C251.375 695.527 274.023 687.288 299.041 683.11C306.555 668.583 276.98 677.66 270.328 680.974C263.179 682.645 253.315 681.172 248.95 674.24Z" fill="black"/>
<path d="M283.591 250.651C324.399 242.644 363.25 283.274 361.873 324.295C364.395 325.709 376.033 323.151 376.131 319.304C375.528 304.679 371.738 288.326 361.494 276.531C350.386 261.293 338.023 253.142 321.103 245.6C304.669 236.488 289.104 232.13 283.591 250.653V250.651Z" fill="#FFA0C1"/>
<path d="M225.593 402.989C222.552 410.97 206.081 395.169 200.182 393.664C178.053 380.735 157.735 369.076 137.203 354.291C134.086 360.333 130.512 368.323 132.267 375.129C141.305 380.188 150.454 383.979 160.193 388.525C176.421 394.204 223.784 427.736 225.593 402.989Z" fill="#2D881A"/>
<path d="M173.376 181.145C116.228 142.405 132.517 165.72 125.264 213.431C140.366 206.391 158.211 191.691 173.376 181.145Z" fill="#CC7A9C"/>
<path d="M105.424 323.525C138.482 354.528 180.542 376.361 220.189 399.869C224.057 400.612 226.13 392.381 222.679 389.941C211.959 386.185 201.557 377.7 190.289 372.542C135.166 342.34 110.881 317.567 105.424 323.525Z" fill="white"/>
<path d="M259.65 420.596C318.75 413.734 315.571 429.287 341.195 402.474C342.415 401.496 342.579 400.317 339.297 401.285C330.145 403.98 320.358 401.269 310.739 401.121C303.244 402.965 296.69 406.618 288.717 407.438C266.059 411.374 265.608 396.181 259.65 420.594V420.596Z" fill="#2D881A"/>
<path d="M126.46 163.474C119.129 163.886 121.422 166.945 118.448 173.933C107.623 203.978 106.259 234.709 111.173 266.026C113.602 258.176 115.812 248.765 119.619 240.851C119.669 215.71 121.889 188.609 126.46 163.474Z" fill="#77A1DD"/>
<path d="M356.619 321.643C333.91 346.444 363.233 327.434 364.381 352.085C379.385 356.098 404.145 339.959 399.899 322.922C400.128 327.937 382.345 354.665 381.123 344.24C387.936 336.581 397.67 328.226 395.781 316.088C385.999 340.316 365.295 346.76 382.528 329.003C388.688 324.891 395.692 302.947 390.855 307.401C388.745 325.275 355.187 340.117 356.62 321.643H356.619Z" fill="#EC987E"/>
<path d="M321.435 395.118C344.207 399.434 369.293 385.674 376.666 362.698C381.74 353.509 374.288 358.082 368.41 358.019C362.887 360.01 361.854 370.821 356.348 374.065C351.087 379.205 344.869 381.133 337.159 382.993C332.754 386.615 326.714 391.282 321.435 395.118Z" fill="#FFA0C1"/>
<path d="M404.527 309.336C404.227 312.412 402.035 315.689 402.952 319.283C409.252 334.392 395.695 348.601 383.322 355.233C383.437 359.484 372.729 379.326 376.727 376.416C401.97 367.447 422.234 320.007 404.527 309.336Z" fill="#FFA0C1"/>
<path d="M396.118 173.175C402.428 177.447 410.629 178.562 418.733 180.897C431.781 184.823 441.192 191.434 454.894 194.344C448.935 187.3 445.152 177.094 439.26 170.621C424.927 171.511 410.72 170.013 396.118 173.175Z" fill="black"/>
<path d="M222.456 278.38C214.087 285.103 205.583 291.317 197.733 298.719C204.097 302.984 211.063 307.649 218.476 311.668C221.513 301.802 221.23 290.06 222.457 278.38H222.456Z" fill="white"/>
<path d="M400.928 363.5C405.812 361.698 414.842 361.805 419.089 358.25C419.734 348.489 420.147 335.039 414.496 326.021C413.589 339.916 408.457 352.069 400.928 363.5Z" fill="#2D881A"/>
<path d="M447.676 199.612C443.927 196.015 394.447 172.729 401.912 187.041C410.582 189.726 420.668 192.196 429.629 196.018C434.78 196.838 448.559 207.542 447.676 199.612Z" fill="black"/>
<path d="M181.206 403.877C190.509 413.842 199.698 429.229 215.953 426.149C206.918 416.177 194.908 408.532 181.206 403.877Z" fill="#77A1DD"/>
<path d="M355.023 236.535C351.156 232.261 319.843 217.09 332.504 233.634C340.27 237.799 349.991 248.545 355.023 236.535Z" fill="#FFA0C1"/>
<path d="M386.774 294.171C385.033 296.945 378.656 298.944 379.041 303.493C381.058 312.687 379.84 324.953 386.4 307.565C387.777 304.057 387.756 299.792 393.176 299.892C391.154 297.576 388.634 296.483 386.774 294.173V294.171Z" fill="#2D881A"/>
<path d="M138.659 255.037C136.303 248.028 128.577 238.696 124.857 230.781C121.989 248.307 128.895 247.575 138.659 255.037Z" fill="white"/>
<path d="M217.179 420.005C223.265 427.726 238.907 417.869 231.496 408.387C227.392 413.225 223.473 418.075 217.179 420.005Z" fill="#95908D"/>
<path d="M94.9171 300.152C112.344 314.971 78.3521 303.992 104.723 314.735C107.56 301.152 106.737 302.444 94.9171 300.152Z" fill="#FF5C33"/>
<path d="M414.609 270.436C413.758 278.31 424.904 287.445 422.452 275.005C420.598 272.355 415.667 262.881 414.609 270.436Z" fill="white"/>
<path d="M399.899 314.076C402.421 308.035 401.643 304.522 395.047 301.052C397.038 305.328 396.4 309.39 399.899 314.076Z" fill="#2D881A"/>
<path d="M360.929 195.751C365.89 194.017 365.068 191.491 367.05 199.839C371.499 190.43 367.772 187.387 360.929 195.751Z" fill="#FFC73C"/>
<path d="M347.68 372.927C352.988 371.224 359.2 364.526 360.183 359.997C355.855 364.472 351.766 368.699 347.68 372.927Z" fill="#2D881A"/>
<mask id="mask1_7_42" style="mask-type:luminance" maskUnits="userSpaceOnUse" x="54" y="32" width="720" height="758">
<path d="M54.535 32.721H773.977V789.726H54.535V32.721Z" fill="white"/>
</mask>
<g mask="url(#mask1_7_42)">
<path d="M772.264 345.023L772.086 344.822L771.819 344.808C734.106 342.884 695.508 344.701 658.178 346.46C636.582 347.477 614.249 348.529 591.997 348.879C591.283 349.014 590.715 349.056 590.257 349.089C587.802 349.267 587.707 349.659 586.138 356.206C583.572 366.916 576.751 395.36 549.638 471.548C546.871 480.05 544.207 488.321 541.553 496.56C538.175 507.046 534.682 517.887 531.106 528.82C530.169 530.659 527.942 530.528 525.369 530.372C523.795 530.276 522.167 530.18 520.717 530.514C515.611 531.113 508.621 531.933 507.978 531.363C507.955 531.199 508.221 530.655 508.415 530.259C509.469 528.11 511.426 524.113 504.963 518.803C497.971 511.71 489.097 511.815 480.516 511.921C476.433 511.972 472.217 512.023 468.291 511.281C463.935 509.413 458.152 504.534 457.348 501.329C459.964 494.313 463.028 487.303 466.274 479.887C478.599 451.712 491.343 422.582 478.459 393.435C467.755 373.032 449.922 360.538 429.533 359.155L429.46 359.15L429.386 359.162C427.191 359.515 425.708 359.323 424.87 358.555C423.34 357.164 423.573 353.743 423.892 349.012C424.67 337.582 425.969 318.451 403.393 299.794C402.687 299.002 400.58 297.637 398.139 296.055C395.786 294.529 391.97 292.058 391.206 291.018C391.336 291.004 391.525 290.997 391.795 291.012C411.802 302.023 421.531 291.839 434.861 273.547C446.42 287.218 456.349 292.94 461.504 288.859C467.227 284.323 464.628 268.317 450.415 249.449C447.002 243.549 448.098 237.911 449.26 231.938C450.228 226.955 451.23 221.802 449.636 216.23C448.767 213.269 449.45 212.487 450.482 211.306C451.13 210.565 451.936 209.642 452.469 208.065L452.502 207.897C452.696 204.421 453.273 202.365 454.215 201.79C455.046 201.278 456.36 201.862 457.881 202.533C460.219 203.568 463.13 204.852 465.841 202.578L465.986 202.458L466.04 202.276C467.557 197.342 464.301 193.638 461.153 190.056C459.422 188.086 457.632 186.05 456.578 183.792L456.477 183.638C454.467 181.388 452.95 178.445 451.485 175.597C449.304 171.364 447.049 166.982 443.137 165.033L442.981 164.956L442.808 164.967C436.981 165.362 430.805 165.349 424.826 165.342C408.058 165.311 390.754 165.285 376.319 173.708L375.463 174.617C369.709 181.032 365.162 186.097 358.669 191.075L358.568 191.171C355.738 194.55 354.827 199.189 356.578 201.301C357.216 202.071 358.709 203.075 361.724 201.622C362.518 203.571 363.448 204.704 364.622 205.167C366.328 205.833 368.109 204.908 369.999 203.929C371.418 203.192 372.886 202.43 374.423 202.267L374.685 202.239L374.853 202.035C378.427 197.626 376.499 194.578 374.797 191.888C372.589 188.397 370.502 185.099 379.474 178.198C385.125 172.477 394.115 177.435 397.487 180.093C395.702 189.682 389.472 196.071 380.107 205.681C373.933 212.015 366.267 219.879 357.666 230.98C351.585 228.902 350.074 219.475 348.33 208.596C346.056 194.405 343.224 176.742 329.157 167.019C317.925 159.256 301.423 157.631 278.752 162.069C281.923 157.396 285.054 152.48 288.09 147.711C296.176 135.007 304.538 121.872 314.644 111.704C317.906 110.134 316.646 107.278 316.228 106.333L316.139 106.128L315.941 106.025C307.852 101.781 299.799 97.5268 291.764 93.2828C252.551 72.5665 212.003 51.1458 170.107 32.7892L169.95 32.721L169.779 32.7402C164.461 33.3433 162.556 37.8669 160.537 42.6597C159.207 45.8181 157.7 49.3979 154.996 52.3991C135.397 82.8722 121.04 107.637 108.484 132.628C106.873 135.013 106.354 137.191 106.892 139.285C108.054 143.803 113.948 146.82 120.187 150.013C123.651 151.787 127.22 153.616 129.916 155.711C73.6222 168.651 51.1806 197.565 54.9352 252.116C53.5036 294.243 70.9356 332.274 87.7925 369.052C90.6836 375.362 93.6725 381.881 96.5129 388.31C98.3814 392.337 100.276 396.496 102.209 400.738C120.695 441.314 143.7 491.811 182.596 504.583C202.113 510.988 223.454 507.658 247.786 494.395C240.158 519.512 231.401 544.12 222.927 567.928C215.873 587.744 208.581 608.233 201.947 628.979C198.364 637.387 197.782 645.532 197.219 653.408C196.863 658.409 196.494 663.581 195.382 668.763C193.269 675.423 191.703 682.041 190.189 688.44C188.354 696.197 186.621 703.526 184.007 710.845L183.968 710.953L183.97 711.07C184.122 720.102 184.145 729.486 184.169 738.56C184.208 754.313 184.25 770.604 184.95 785.981C185.061 788.872 186.431 789.52 187.016 789.665C187.179 789.707 187.345 789.726 187.508 789.726C188.319 789.726 189.121 789.24 189.724 788.375C190.456 788.421 191.191 788.541 191.963 788.671C193.68 788.954 195.457 789.249 197.422 788.789L218.79 787.821C305.401 783.9 387.209 780.195 472.117 775.722C505.987 773.451 540.272 772.104 573.428 770.8C612.542 769.26 652.987 767.669 692.612 764.56L693.077 764.523L693.183 764.07C706.352 708.256 716.873 650.554 727.046 594.75C734.331 554.784 741.866 513.458 750.335 473.007C758.115 433.548 765.39 395.396 772.78 356.496C772.944 355.243 773.194 354.102 773.415 353.097C774.079 350.066 774.603 347.669 772.266 345.023H772.264ZM418.909 180.284C416.826 179.682 414.719 179.16 412.681 178.651C407.275 177.305 402.141 176.026 397.801 173.481C406.873 171.717 415.938 171.665 424.717 171.616C429.39 171.59 434.217 171.562 438.993 171.277C441.891 174.529 444.242 178.642 446.731 182.989C448.751 186.524 450.833 190.163 453.249 193.316C446.367 191.656 440.63 189.107 434.583 186.424C429.685 184.25 424.621 182.002 418.909 180.284ZM402.418 362.375C409.733 350.879 413.851 339.645 414.964 328.143C419.171 336.38 419.133 347.72 418.47 357.926C415.885 359.935 411.419 360.698 407.467 361.377C405.667 361.684 403.936 361.98 402.418 362.375ZM688.473 752.202C688.064 756.186 686.44 756.336 601.638 760.18C534.812 763.21 410.496 768.846 191.003 781.041C190.951 778.284 190.893 775.512 190.837 772.724C190.441 753.553 190.032 733.737 191.082 715.045C214.228 710.845 237.535 707.085 260.079 703.447C282.717 699.796 306.123 696.019 329.505 691.773C331.146 691.31 333.072 691.069 334.934 690.834C340.171 690.174 345.587 689.49 346.746 684.045C351.272 661.565 356.332 639.395 361.226 617.955C365.217 600.467 369.345 582.385 373.194 564.088C373.79 561.212 374.264 558.702 374.676 556.518C376.036 549.311 376.72 545.694 378.821 544.202C380.934 542.702 384.785 543.104 392.463 543.908C407.729 545.509 436.149 548.488 494.484 541.921C505.375 541.898 513.305 541.141 524.134 539.989C525.224 539.923 526.298 539.926 527.329 539.932C531.347 539.94 535.146 539.966 537.056 535.317C556.579 475.9 574.39 418.187 590.965 364.142L591.091 363.663C592.157 359.602 598.279 357.645 609.455 357.793C620.659 357.94 639.411 358.19 670.752 356.766C682.156 356.385 693.484 356.096 704.44 355.816C722.43 355.357 741.033 354.881 759.873 353.999L761.12 353.911C762.681 353.794 764.032 353.694 764.327 354.03C764.411 354.128 764.526 354.437 764.318 355.411C749.431 435.21 733.917 515.618 718.913 593.379C708.99 644.819 698.726 698.008 688.716 750.66C688.574 751.235 688.52 751.749 688.475 752.202H688.473ZM216.953 700.137C216.154 701.067 214.583 701.505 212.188 701.429C213.085 699.107 214.892 696.034 216.579 695.218C216.892 695.066 217.179 695.005 217.446 695.031C217.941 697.504 217.778 699.177 216.953 700.137ZM114.114 167.478C102.534 199.306 99.5298 232.23 105.195 265.397C107.901 276.22 109.135 285.655 106.373 296.415C104.193 296.982 100.206 295.919 96.6684 294.971C94.2458 294.321 91.9561 293.708 90.1225 293.559C86.4641 293.577 84.4278 294.164 83.8772 295.541C83.0696 297.562 85.8069 300.137 88.2225 302.411C88.7329 302.89 89.2258 303.353 89.6121 303.751C86.7315 304.896 84.1603 306.046 83.7985 307.944C83.5958 309.005 84.1062 310.091 85.3577 311.259L85.5447 311.381C100.821 317.846 100.708 318.544 100.433 320.227C99.958 323.144 99.1645 328.03 127.65 348.928L127.771 348.996C131.258 350.538 130.316 353.105 128.037 358.307C125.876 363.238 123.188 369.375 124.958 376.786L125.02 377.043L125.247 377.181C132.672 381.738 140.884 385.449 148.825 389.037C155.53 392.066 162.462 395.201 168.926 398.838C172.093 401.928 175.194 405.442 178.474 409.161C188.415 420.432 198.693 432.085 211.8 432.65C219.807 432.977 227.977 429.133 236.614 420.888C246.537 413.513 245.509 405.262 243.254 387.179C240.816 367.629 236.734 334.91 244.467 277.996C245.404 272.469 246.262 266.823 247.092 261.364C251.219 234.212 255.488 206.132 271.238 182.254C275.61 174.778 282.477 169.857 291.101 168.022C303.157 165.456 317.78 168.982 329.197 177.167C338.031 185.424 339.912 197.527 341.728 209.231C342.259 212.652 342.808 216.189 343.541 219.661C344.275 221.956 343.955 222.325 343.955 222.325C343.698 222.478 342.433 221.943 341.754 221.655C341.42 221.512 341.081 221.367 340.735 221.232C334.618 218.895 329.86 218.937 327.346 221.346C324.957 223.637 324.738 227.776 326.747 233.765C329.393 238.433 333.901 240.814 338.26 243.116C340.543 244.32 342.705 245.463 344.46 246.874C344.577 247.972 344.547 249.265 343.88 249.702C342.158 250.835 336.379 247.393 330.269 243.742C315.59 234.976 293.412 221.734 281.876 241.017C278.23 249.755 277.487 253.778 279.14 255.858C281.023 258.229 285.643 257.447 293.297 256.157C294.337 255.982 295.435 255.797 296.585 255.608C306.553 256.21 315.555 260.836 324.259 265.311C326.808 266.62 329.431 267.97 332.022 269.181C328.288 272.215 324.23 275.285 319.951 278.522C307.368 288.041 293.103 298.829 283.25 312.012C282.108 313.505 280.941 315.015 279.759 316.544C263.991 336.948 246.119 360.076 251.845 386.749C253.102 392.407 256.926 398.693 261.376 402.419C262.341 403.765 261.684 404.697 260.45 406.212C259.777 407.037 259.083 407.89 258.767 408.92C252.079 421.428 250.244 433.614 248.543 448.215C247.157 456.676 248.636 464.603 250.066 472.27C250.581 475.03 251.067 477.644 251.42 480.254C236.643 497.282 192.935 504.917 169.731 489.111C138.985 467.393 113.101 407.948 94.1934 364.53C93.1866 362.34 92.1798 360.165 91.1782 358.003C75.0327 323.113 59.7804 290.158 61.2574 241.896C59.9884 203.096 75.814 180.771 114.114 167.477V167.478ZM126.072 212.34C127.582 201.935 128 192.648 128.339 185.132C128.884 173.011 129.244 165.002 133.466 162.883C134.25 162.49 135.179 162.285 136.281 162.285C142.071 162.285 152.647 167.905 172.248 181.152C168.249 183.954 164.135 186.978 159.794 190.172C148.398 198.553 136.628 207.21 126.072 212.339V212.34ZM234.256 349.706C234.747 362.53 236.154 375.535 237.516 388.111C238.052 393.082 238.608 398.221 239.083 403.148C239.227 406.511 239.316 408.64 237.598 410.222C225.909 396.258 220.445 323.268 230.964 259.134C235.946 228.759 246.211 190.432 266.985 176.756C243.939 210.822 233.848 289.551 234.256 349.706ZM130.823 242.181C133.359 246.121 135.778 249.879 137.262 253.226C135.871 252.254 134.551 251.427 133.345 250.669C127.191 246.804 123.658 244.588 125.193 232.88C126.783 235.906 128.832 239.087 130.823 242.181ZM214.681 425.712C202.236 427.42 194.253 418.046 186.515 408.962C185.445 407.705 184.412 406.492 183.384 405.328C195.653 409.88 206.41 416.882 214.681 425.712ZM216.187 284.147C218.014 282.715 219.844 281.282 221.669 279.826C221.377 282.907 221.176 285.999 220.98 289.002C220.47 296.777 219.989 304.138 218.089 310.729C211.211 306.95 204.629 302.57 198.756 298.635C204.342 293.432 210.36 288.716 216.187 284.147ZM200.904 286.23C198.116 288.955 195.48 291.532 193.388 293.073C189.516 294.393 184.739 290.016 180.11 285.791C177.859 283.738 175.734 281.797 173.682 280.455C152.64 266.814 140.742 247.743 129.43 227.757L129.32 227.614C127.47 225.813 126.68 224.324 126.83 222.929C127.178 219.757 132.336 216.558 140.882 211.26C149.517 205.906 161.343 198.574 175.517 186.747C176.293 185.835 177.237 185.443 178.324 185.443C181.266 185.443 185.239 188.317 189.651 191.509C193.225 194.094 197.279 197.025 201.286 198.771C211.552 205.524 218.888 209.374 223.742 211.924C230.564 215.508 232.936 221.148 230.859 228.846C228.701 236.85 225.109 250.165 222.26 273.951C216.701 270.791 208.332 278.968 200.904 286.23ZM195.471 391.654L199.86 394.216L200.023 394.283C201.858 394.753 204.952 396.798 208.226 398.966C213.8 402.655 220.122 406.838 223.772 405.66C224.074 405.562 224.354 405.433 224.611 405.27C224.053 407.623 222.901 409.259 221.125 410.245C212.868 414.831 193.166 404.45 177.335 396.115C170.455 392.489 164.512 389.361 160.464 387.947C157.819 386.713 155.222 385.535 152.656 384.37C145.792 381.259 139.304 378.317 132.821 374.706C131.368 368.566 134.261 361.478 137.432 355.243C156.423 368.863 175.396 379.938 195.471 391.654ZM222.379 390.513C224.058 391.78 224.121 394.854 223.202 397.013C222.95 397.604 221.998 399.483 220.412 399.259C213.464 395.141 206.322 391.004 199.414 387.003C167.001 368.225 133.492 348.813 106.397 323.56C109.488 321.865 118.177 327.752 132.036 337.145C145.717 346.416 164.453 359.115 190.023 373.123C194.936 375.372 199.747 378.296 204.4 381.125C210.536 384.855 216.334 388.38 222.379 390.513ZM229.407 419.843C226.142 422.403 221.283 423.157 218.306 420.301C223.98 418.229 227.781 413.762 231.457 409.422C234.296 413.676 232.193 417.656 229.407 419.843ZM219.054 332.373C218.94 340.536 218.727 355.626 221.47 383.85C208.184 375.332 193.971 367.487 180.215 359.893C155.984 346.514 130.929 332.683 110.454 314.878C110.26 309.381 116.21 254.013 121.272 252.581C121.595 252.476 122.088 253.011 122.562 253.99L122.651 254.173L122.831 254.271C139.339 263.252 153.998 274.381 169.516 286.164C179.953 294.087 190.747 302.281 202.045 309.668C206.598 313.216 209.986 315.488 212.457 317.147C216.957 320.168 219.155 325.242 219.054 332.373ZM96.1668 309.661C97.8727 309.414 100.206 309.079 100.697 307.378C101.12 305.915 99.958 303.931 97.0565 301.203C97.3152 301.25 97.5651 301.295 97.8116 301.341C101.842 302.071 104.062 302.475 104.929 303.76C105.88 305.174 105.473 307.96 104.254 313.852C101.764 312.835 96.81 310.781 95.2893 309.799C95.5637 309.748 95.8924 309.701 96.1668 309.661ZM118.981 240.704C116.133 246.666 114.214 253.315 112.359 259.749C112.029 260.891 111.706 262.016 111.379 263.121C106.67 230.657 109.184 201.528 119.035 174.185C119.937 172.068 120.365 170.301 120.711 168.882C121.459 165.802 121.769 164.531 125.684 164.171C121.356 188.273 119.04 214.714 118.981 240.704ZM267.08 167.498C258.837 172.712 252.121 179.899 246.566 189.453C232.534 182.175 218.362 174.211 203.368 165.786C176.468 150.672 148.658 135.048 120.881 123.149C128.134 108.719 136.563 94.7703 144.715 81.2729C152.897 67.7335 161.354 53.738 168.55 39.3561C201.706 52.8815 235.909 71.1332 268.99 88.7872C281.561 95.4974 294.552 102.43 307.167 108.925C294.784 124.632 279.174 145.355 267.08 167.496V167.498ZM240.438 194.267C241.258 194.533 241.777 194.971 242.023 195.609C242.936 197.976 240.248 202.664 238.087 206.432C237.122 208.116 236.266 209.61 235.762 210.808C222.361 203.076 208.902 194.942 195.88 187.073C179.7 177.296 162.972 167.186 146.28 157.802C143.75 156.306 141.284 154.827 138.847 153.367C131.183 148.77 123.943 144.429 115.719 140.125C114.296 139.676 113.445 139.159 113.258 138.626C113.031 137.981 113.702 136.982 114.412 135.923C115.097 134.904 115.871 133.751 116.212 132.44C116.607 131.688 116.909 131.034 117.166 130.477C118.119 128.423 118.227 128.341 119.252 128.657C138.237 137.832 158.324 148.146 180.656 160.19C202.435 172.028 220.912 182.343 240.302 194.204L240.438 194.267ZM350.032 241.206C346.612 242.225 342.235 239.236 337.993 236.353C336.308 235.208 334.565 234.025 332.929 233.137C330.559 230.015 329.626 227.757 330.433 227.082C333.211 224.773 350.676 233.329 354.266 236.677C353.133 239.213 351.745 240.697 350.032 241.206ZM421.529 280.345C421.066 280.673 420.32 280.326 419.918 280.09C417.677 278.777 414.817 274.5 415.242 270.513C415.534 268.45 416.048 268.239 416.147 268.216C417.289 267.992 419.794 272.027 420.881 273.753C421.25 274.339 421.58 274.862 421.853 275.258C422.611 279.223 421.8 280.153 421.529 280.345ZM415.455 261.272C413.741 261.403 412.269 262.659 411.314 264.809C409.292 269.357 409.666 277.569 413.772 282.872C414.793 284.353 415.003 285.409 414.392 286.012C411.959 288.426 398.806 285.508 395.95 283.489L395.725 283.329L395.454 283.385C391.329 284.22 388.072 286.952 384.924 289.595C383.502 290.789 382.161 291.916 380.743 292.876L380.605 293.005C379.165 294.798 378.415 295.118 378.045 295.041C377.172 294.895 376.347 292.6 375.393 289.939C373.684 285.183 371.132 278.078 364.919 272.114C372.304 267.947 378.578 262.729 384.65 257.678C386.15 256.432 387.642 255.191 389.153 253.965C390.313 252.985 390.804 252.107 390.651 251.277C390.408 249.971 388.702 249.381 387.052 248.805C386.123 248.486 385.166 248.152 384.72 247.755C383.538 246.794 383.624 244.829 383.904 243.35C384.751 238.858 388.396 233.237 391.182 231.994C401.954 242.057 427.271 225.803 442.457 216.055L444.387 214.817C445.696 220.86 444.656 226.584 443.649 232.129C442.896 236.271 442.116 240.557 442.338 245.063C443.799 250.962 446.883 255.348 449.863 259.588C452.12 262.799 454.453 266.117 456.093 270.123C458.84 275.795 459.396 281.663 457.332 283.199C455.837 284.313 452.862 282.998 449.087 279.553C446.191 277.545 444.179 274.257 442.401 271.354C440.332 267.971 438.545 265.052 435.864 264.996C433.487 264.935 430.954 267.136 427.615 272.088C427.219 272.334 426.984 272.28 426.902 272.259C426.18 272.086 425.467 270.751 424.892 269.679C424.543 269.027 424.214 268.412 423.887 267.996C420.902 263.336 418.072 261.09 415.455 261.272ZM429.807 195.401C423.265 192.617 416.221 190.572 409.409 188.597C406.995 187.896 404.63 187.211 402.36 186.51C401.641 185.048 401.6 184.064 402.236 183.587C407.203 179.869 442.539 196.062 447.065 199.92C447.131 200.816 446.974 201.402 446.594 201.664C445.187 202.641 440.641 200.322 436.99 198.46C434.221 197.048 431.604 195.712 429.809 195.401H429.807ZM358.354 362.806C356.687 365.732 353.679 368.842 350.653 370.77L358.354 362.806ZM331.674 277.907L331.842 277.826L331.942 277.667C332.99 275.984 334.177 275.157 335.554 275.157C335.799 275.157 336.051 275.183 336.306 275.236C343.121 276.613 352.567 295.41 354.645 308.437C355.442 313.45 354.941 316.871 353.196 317.867C347.563 322.069 345.168 328.531 343.055 334.233L342.656 335.305C329.105 340.059 317.855 345.318 306.293 352.296C301.575 354.306 298.789 356.514 298.647 358.356C298.598 359.01 298.885 359.564 299.456 359.919C301.14 360.962 304.863 360.078 308.88 357.692C310.556 356.935 312.744 355.78 315.277 354.446C325.296 349.162 342.065 340.319 351.669 344.046C354.631 345.194 356.704 347.398 357.996 350.779C343.098 372.448 314.527 398.329 282.675 400.388C267.569 398.752 258.99 392.545 257.18 381.943C251.91 351.076 305.56 290.373 331.676 277.905L331.674 277.907ZM364.993 351.581C364.273 340.021 357.302 337.958 352.67 336.589C350.62 335.983 348.999 335.504 348.713 334.466C348.264 332.852 350.504 329.397 355.947 323.333C356.138 327.698 358.536 330.299 362.827 330.718C372.42 331.664 389.705 320.886 391.46 307.721C391.601 307.602 391.708 307.535 391.78 307.497C391.837 307.738 391.9 308.38 391.607 309.888C390.523 315.445 385.984 325.927 382.173 328.472L382.068 328.558C378.541 332.192 374.521 336.946 375.386 338.961C375.606 339.473 376.101 339.816 376.755 339.757C380.154 339.72 389.434 331.746 395.373 318.663C395.588 327.678 389.165 334.597 383.442 340.762C382.481 341.795 381.537 342.812 380.644 343.815L380.455 344.028L380.486 344.315C380.806 347.033 382.231 347.325 383.054 347.262C387.569 346.895 396.917 333.099 399.726 326.076C399.993 331.44 397.488 336.953 392.479 341.879C384.715 349.51 373.245 353.535 364.993 351.581ZM260.488 419.857C263.086 409.387 264.474 406.981 267.534 406.981C268.529 406.981 269.702 407.237 271.149 407.551C274.8 408.345 280.322 409.544 288.784 408.072C293.715 407.567 298.156 405.976 302.451 404.438C305.151 403.473 307.939 402.474 310.813 401.76C313.861 401.813 316.986 402.128 320.008 402.433C326.471 403.084 333.155 403.76 339.479 401.899C340.412 401.622 340.94 401.563 341.218 401.563C341.122 401.68 340.97 401.839 340.734 402.031C324.567 418.948 320.131 418.794 303.639 418.243C294.216 417.922 281.355 417.49 260.488 419.857ZM337.453 383.58C344.764 381.811 351.268 379.891 356.741 374.575C359.517 372.901 361.167 369.508 362.766 366.227C364.409 362.845 365.966 359.65 368.524 358.659H368.531C370.181 358.659 371.923 358.323 373.465 358.026C375.223 357.687 377.214 357.299 377.611 357.842C377.782 358.08 377.982 358.998 376.059 362.506C369.149 384.03 345.589 398.237 323.031 394.744C327.881 391.182 333.289 386.998 337.453 383.58ZM396.309 302.501C400.605 305.16 401.502 307.904 399.741 312.729C398.231 310.369 397.731 308.187 397.207 305.894C396.955 304.784 396.695 303.652 396.31 302.501H396.309ZM386.482 305.289C386.277 305.969 386.062 306.674 385.802 307.338C383.066 314.592 382.046 315.609 381.862 315.73C381.378 315.37 381.013 312.447 380.717 310.1C380.453 307.985 380.153 305.587 379.677 303.438C379.46 300.872 381.783 299.166 384.029 297.515C385.083 296.74 386.092 295.999 386.807 295.185C387.695 296.139 388.686 296.896 389.649 297.632C390.348 298.165 391.063 298.712 391.741 299.336C388.123 299.866 387.256 302.729 386.482 305.289ZM373.323 321.704C370.072 323.553 364.484 324.48 362.525 323.877C363.091 302.479 352.619 279.994 335.123 265.096C319.911 252.147 301.98 246.741 284.519 249.83C286.323 244.402 289.097 240.987 292.977 239.403C299.121 236.893 307.958 239.04 320.844 246.184C336.614 253.214 349.475 261.13 361.009 276.949C372.058 289.67 374.982 307.016 375.489 319.288C375.47 320.063 374.701 320.919 373.323 321.704ZM286.435 668.459C284.047 669.092 281.659 669.877 279.352 670.635C270.532 673.537 262.194 676.285 254.128 670.698C281.572 621.953 302.84 567.122 323.412 514.092L327.804 502.776C332.875 495.615 339.211 489.761 345.916 483.566C351.929 478.013 358.145 472.271 363.484 465.42C364.711 464.401 367.007 461.831 370.165 458.293C379.948 447.334 398.156 426.936 409.067 426.649C411.082 426.584 412.716 427.224 414.034 428.552C420.15 435.242 415.069 448.844 408.037 467.671C401.264 485.8 392.844 508.341 391.605 533.268C384.993 535.502 380.888 535.368 378.158 535.28C372 535.074 371.918 535.471 367.818 555.955L366.646 561.718C358.173 601.593 350.171 639.26 339.867 678.038C338.002 680.378 330.056 681.404 321.65 682.49C316.067 683.212 310.306 683.955 305.195 685.161C307.042 680.05 306.31 675.203 303.118 671.712C300.542 668.898 296.784 667.418 292.624 667.418C290.624 667.418 288.532 667.758 286.435 668.459ZM422.728 536.193C423.209 529.792 424.532 527.43 425.616 527.36C427.1 527.277 429.309 530.76 430.69 536.817C429.897 536.86 429.061 536.96 428.245 537.056C425.188 537.42 423.136 537.558 422.73 536.193H422.728ZM501.411 526.95C501.43 528.184 499.14 529.145 495.099 529.593C491 530.252 486.809 531.066 482.371 531.928C467.187 534.875 451.496 537.923 438.04 535.074C436.754 533.192 435.962 530.792 435.193 528.469C433.588 523.602 431.922 518.572 425.593 519.144C419.926 519.984 418.483 525.039 417.324 529.1C416.85 530.753 416.401 532.323 415.74 533.361L412.428 533.462C404.012 533.725 399.782 533.859 398.411 532.274C397.252 530.935 397.78 527.969 398.738 522.582C399.596 517.761 400.762 511.196 401.412 502.012C410.161 502.161 418.57 503.168 426.712 504.141C434.327 505.054 442.205 505.996 450.272 506.226C453.392 506.559 455.025 509.062 456.752 511.711C458.433 514.29 460.17 516.957 463.308 518.039C468.47 520.923 473.996 520.531 479.347 520.147C482.553 519.918 485.87 519.682 489.029 520.201C493.702 520.58 501.376 524.41 501.411 526.95ZM460.98 471.672C457.475 480.062 453.852 488.737 451.284 497.12C450.363 499.305 441.253 498.266 431.608 497.167C423.141 496.2 413.597 495.11 404.893 495.395C406.557 490.99 408.298 486.527 409.983 482.207C413.877 472.217 417.904 461.889 421.12 451.947C424.329 444.245 425.579 429.757 419.58 422.583C416.674 419.107 412.37 417.88 407.025 419.067C391.002 425.695 379.765 437.862 368.898 449.629C365.818 452.964 362.635 456.409 359.375 459.7C356.426 462.675 353.513 465.788 350.693 468.798C339.241 481.03 327.399 493.68 310.998 499.308C298.123 502.276 284.522 499.953 273.676 492.93C264.248 486.826 257.896 477.594 255.794 466.94C253.411 453.579 255.489 441.852 258.157 427.074C260.001 426.481 260.89 426.09 261.277 425.717C262.369 425.689 263.808 425.651 265.685 425.553C284.634 425.572 303.007 425.459 319.439 423.969L319.633 423.921C320.896 423.382 321.337 423.894 322.069 424.744C322.298 425.011 322.531 425.28 322.789 425.516L323.066 425.768L323.419 425.653C326.658 424.592 328.211 422.629 329.715 420.731C330.671 419.521 331.66 418.271 333.156 417.151C349.124 402.984 397.702 359.865 435.574 368.172C451.828 371.736 464.797 384.321 474.086 405.454C479.071 428.348 469.873 450.374 460.98 471.674V471.672ZM410.397 327.528C408.607 345.275 393.736 369.695 376.512 375.814C376.811 374.292 378.489 370.331 379.759 367.333C381.726 362.691 383.755 357.898 383.946 355.619C397.686 348.133 409.603 333.574 403.573 319.124C403.033 317.013 403.678 314.954 404.3 312.963C404.574 312.091 404.837 311.253 405.006 310.416C410.465 314.342 410.974 321.818 410.397 327.528ZM396.67 195.244C397.904 193.729 398.887 192.526 400.404 192.409C411.487 195.863 427.642 201.465 442.433 208.731C430.487 218.04 407.997 231.683 395.419 226.79C393.671 225.434 391.563 225.245 389.313 226.245C383.767 228.704 378.092 238.241 377.632 245.871C377.403 249.671 378.468 252.551 380.717 254.257C378.183 256.638 375.23 258.568 372.371 260.441C368.733 262.824 364.977 265.281 361.958 268.709C358.332 263.565 354.794 260.868 352.182 258.879C350.029 257.236 348.604 256.15 348.451 254.661C348.103 251.288 354.014 244.469 369.812 226.243C376.187 218.886 384.122 209.734 393.965 198.137C395.064 197.21 395.915 196.165 396.67 195.244ZM319.676 504.26C315.922 513.62 312.201 523.066 308.591 532.22C291.236 576.243 274.844 617.826 252.375 658.931C251.406 660.235 250.62 661.524 249.926 662.66C248.038 665.755 246.673 667.998 243.091 668.902L241.118 668.947C228.096 669.251 214.627 669.571 205.455 660.751L205.315 660.651C198.402 656.897 213.788 613.367 228.666 571.27C239.157 541.59 249.997 510.921 255.991 487.139C269.153 507.488 297.605 515.123 319.676 504.26ZM248.739 675.079C253.282 681.633 263.014 683.339 270.473 681.598L270.612 681.546C275.882 678.922 294.814 673.041 298.887 677.173C299.937 678.239 299.846 680.043 298.616 682.535C287.424 684.42 276.573 687.143 266.077 689.775C253.287 692.984 240.061 696.302 226.5 698.003C226.058 698.031 225.691 698.06 225.385 698.083C224.289 698.169 224.177 698.177 223.758 697.62C224.326 692.631 223.036 688.927 220.283 687.688C217.554 686.458 214.106 687.9 210.844 691.607C208.869 693.572 207.992 695.921 207.215 697.996C206.418 700.126 205.73 701.97 204.074 703.035C198.364 703.741 194.826 703.87 193.632 702.467C192.248 700.845 193.517 696.484 195.618 689.256C197.076 684.243 199.072 677.386 200.986 668.662C201.239 668.381 201.444 668.333 201.584 668.323C202.388 668.272 203.664 669.447 204.889 670.594C206.497 672.095 208.317 673.797 210.206 674.014C226.825 679.379 239.784 679.735 248.739 675.079ZM367.23 197.829C366.507 194.786 366.216 193.807 365.437 193.458C365.273 193.383 365.108 193.349 364.94 193.349C364.509 193.349 364.058 193.568 363.509 193.861C365.62 191.815 367.162 191.208 367.814 191.624C368.468 192.037 368.747 194.01 367.23 197.829Z" fill="black"/>
</g>
<path d="M165.799 293.44C161.051 306.927 158.15 331.77 151.992 335.406C147.152 333.912 161.992 275.535 165.799 293.44Z" fill="black"/>
<path d="M166.409 336.993C167.578 332.172 168.567 297.405 174.802 308.207C174.723 312.75 169.294 360.039 166.409 336.993Z" fill="black"/>
<path d="M214.108 222.125C210.173 231.347 197.265 234.462 189.581 241.781C177.566 249.146 167.185 263.651 161.35 259.539C156.779 252.903 217.402 206.434 214.108 222.125Z" fill="black"/>
<path d="M147.019 233.494C159.613 221.718 177.225 212.846 191.778 201.544C197.088 198.848 198.806 205.941 193.715 209.119C182.778 215.868 146.374 244.822 147.019 233.494Z" fill="black"/>
<path d="M212.076 246.498C222.796 249.624 204.578 258.739 201.65 262.425C193.211 268.775 179.623 284.758 174.757 280.574C173.427 275.18 180.736 273.663 184.04 269.298C193.512 261.02 200.341 251.709 212.076 246.498Z" fill="black"/>
<path d="M171.834 54.348C165.19 50.153 146.211 93.9645 132.817 115.469C127.75 122.529 143.233 125.326 151.667 131.443C182.519 147.82 213.092 166.914 243.99 181.864C250.048 179.675 250.885 172.432 254.451 167.646C263.507 150.978 272.921 134.866 281.923 117.841C287.499 114.6 212.727 77.1024 171.834 54.348Z" fill="#77A1DD"/>
<path d="M243.99 181.864C213.092 166.914 182.519 147.818 151.667 131.443C143.233 125.326 127.752 122.529 132.817 115.469C146.211 93.9628 165.19 50.1512 171.834 54.348C212.727 77.1006 287.499 114.6 281.923 117.841C272.921 134.866 263.507 150.978 254.451 167.646C250.885 172.432 250.048 179.675 243.99 181.864ZM139.075 117.505C264.06 185.187 237.274 178.905 248.867 163.858C258.188 144.5 277.742 118.275 272.262 116.733C238.771 98.3343 204.852 78.4972 170.834 60.3888C159.496 78.5846 150.052 98.579 139.075 117.505Z" fill="black"/>
<path d="M232.91 72.8811C236.785 72.7186 238.007 78.3539 233.876 80.6262C226.298 83.484 222.602 72.1033 232.91 72.8811ZM232.688 76.7912C230.783 77.1024 230.811 76.7091 231.632 77.4345C232.852 76.4294 231.688 75.2391 230.811 76.7091C231.94 77.4729 232.225 77.5341 232.688 76.7912Z" fill="black"/>
<path d="M440.793 236.762C436.883 227.754 424.772 231.707 425.308 240.557C425.457 254.45 443.462 250.136 440.793 236.762Z" fill="white"/>
<path d="M425.308 240.557C424.772 231.707 436.883 227.754 440.793 236.762C443.462 250.136 425.459 254.45 425.308 240.557ZM432.461 243.744C434.439 245.061 434.98 236.451 430.993 236.867C428.341 237.874 428.294 243.411 432.461 243.744Z" fill="black"/>
<path d="M187.088 83.6903C184.505 84.3195 185.228 84.2164 183.841 85.19C181.71 95.646 174.082 104.185 169.504 114.42C166.714 118.797 206.96 139.108 227.712 148.807C233.314 150.751 234.521 141.777 236.428 138.975C239.639 132.197 245.43 125.209 247.227 118.404C230.472 104.671 208.28 89.336 187.088 83.6903Z" fill="white"/>
<path d="M187.088 83.6903C208.28 89.336 230.471 104.671 247.225 118.404C245.43 125.209 239.638 132.197 236.427 138.975C234.521 141.777 233.312 150.751 227.712 148.807C206.96 139.108 166.714 118.797 169.504 114.42C174.08 104.185 181.71 95.646 183.839 85.19C185.228 84.2164 184.505 84.3195 187.088 83.6903ZM187.583 92.1065C184.211 98.2329 179.964 106.633 177.293 113.894C184.459 120.182 194.436 124.349 203.36 129.592C213.501 133.724 225.656 143.901 228.474 139.949C229.622 135.512 243.359 119.554 235.275 121.48C227.848 120.76 218.159 122.99 210.585 120.337C202.377 111.659 196.26 100.954 187.583 92.1065ZM197.415 92.8039C218.224 116.443 207.869 116.548 233.12 115.966C224.051 107.457 209.299 100.103 197.415 92.8039Z" fill="black"/>
</svg>
